<svg width="330" height="48" viewBox="0 0 330 48" fill="none" xmlns="http://www.w3.org/2000/svg">
<path d="M324.856 47.9125C323.442 47.9125 322.227 47.4023 321.213 46.3818C320.212 45.3467 319.712 44.1075 319.712 42.6642C319.712 41.2355 320.212 40.0109 321.213 38.9904C322.227 37.9699 323.442 37.4597 324.856 37.4597C326.228 37.4597 327.428 37.9699 328.457 38.9904C329.486 40.0109 330 41.2355 330 42.6642C330 43.6264 329.757 44.5084 329.271 45.3102C328.8 46.0975 328.178 46.7317 327.407 47.2127C326.635 47.6793 325.785 47.9125 324.856 47.9125Z" fill="#78A5FF"/>
<path d="M297.379 48C294.05 48 291.171 47.2784 288.742 45.8351C286.327 44.3772 284.463 42.3508 283.148 39.7558C281.833 37.1462 281.176 34.1212 281.176 30.6806C281.176 27.2109 281.833 24.1786 283.148 21.5836C284.463 18.974 286.327 16.9476 288.742 15.5043C291.171 14.0465 294.05 13.3175 297.379 13.3175C300.709 13.3175 303.581 14.0465 305.995 15.5043C308.424 16.9476 310.296 18.974 311.611 21.5836C312.925 24.1786 313.583 27.2109 313.583 30.6806C313.583 34.1212 312.925 37.1462 311.611 39.7558C310.296 42.3508 308.424 44.3772 305.995 45.8351C303.581 47.2784 300.709 48 297.379 48ZM297.422 40.7836C298.937 40.7836 300.201 40.3462 301.216 39.4715C302.23 38.5822 302.995 37.3722 303.509 35.8415C304.038 34.3107 304.302 32.5686 304.302 30.615C304.302 28.6615 304.038 26.9194 303.509 25.3886C302.995 23.8579 302.23 22.6478 301.216 21.7585C300.201 20.8692 298.937 20.4246 297.422 20.4246C295.893 20.4246 294.607 20.8692 293.564 21.7585C292.536 22.6478 291.757 23.8579 291.228 25.3886C290.714 26.9194 290.457 28.6615 290.457 30.615C290.457 32.5686 290.714 34.3107 291.228 35.8415C291.757 37.3722 292.536 38.5822 293.564 39.4715C294.607 40.3462 295.893 40.7836 297.422 40.7836Z" fill="#EFF4FF"/>
<path d="M254.091 27.9253V47.344H244.96V13.7549H253.662V19.6811H254.048C254.776 17.7276 255.998 16.1822 257.713 15.0451C259.427 13.8934 261.506 13.3175 263.95 13.3175C266.236 13.3175 268.229 13.8278 269.929 14.8483C271.63 15.8688 272.951 17.3266 273.894 19.2219C274.837 21.1025 275.309 23.3476 275.309 25.9572V47.344H266.179V27.6191C266.193 25.5635 265.679 23.9599 264.635 22.8082C263.592 21.6419 262.156 21.0588 260.328 21.0588C259.099 21.0588 258.013 21.3285 257.07 21.8679C256.141 22.4073 255.412 23.1945 254.884 24.2296C254.369 25.2501 254.105 26.482 254.091 27.9253Z" fill="#EFF4FF"/>
<path d="M228.516 47.344V13.7549H237.646V47.344H228.516ZM233.103 9.42506C231.745 9.42506 230.581 8.96583 229.609 8.04738C228.652 7.11435 228.173 5.99909 228.173 4.7016C228.173 3.41868 228.652 2.318 229.609 1.39955C230.581 0.466516 231.745 0 233.103 0C234.46 0 235.617 0.466516 236.575 1.39955C237.546 2.318 238.032 3.41868 238.032 4.7016C238.032 5.99909 237.546 7.11435 236.575 8.04738C235.617 8.96583 234.46 9.42506 233.103 9.42506Z" fill="#EFF4FF"/>
<path d="M203.82 47.3439V13.7549H212.672V19.6155H213.015C213.615 17.5307 214.622 15.9562 216.037 14.892C217.451 13.8132 219.08 13.2738 220.923 13.2738C221.381 13.2738 221.874 13.3029 222.402 13.3613C222.931 13.4196 223.395 13.4998 223.795 13.6018V21.8679C223.367 21.7367 222.774 21.62 222.016 21.518C221.259 21.4159 220.566 21.3649 219.938 21.3649C218.594 21.3649 217.394 21.6638 216.337 22.2615C215.294 22.8446 214.465 23.661 213.851 24.7107C213.25 25.7603 212.95 26.9704 212.95 28.3408V47.3439H203.82Z" fill="#EFF4FF"/>
<path d="M182.752 48C179.365 48 176.45 47.3002 174.007 45.9007C171.578 44.4866 169.706 42.4893 168.392 39.9089C167.077 37.3139 166.42 34.2451 166.42 30.7025C166.42 27.2474 167.077 24.215 168.392 21.6055C169.706 18.9959 171.557 16.9622 173.943 15.5043C176.343 14.0465 179.158 13.3175 182.387 13.3175C184.559 13.3175 186.581 13.6747 188.453 14.3891C190.339 15.0888 191.982 16.1458 193.382 17.5599C194.797 18.974 195.897 20.7526 196.683 22.8957C197.469 25.0241 197.862 27.5171 197.862 30.3745V32.933H170.063V27.1599H189.267C189.267 25.8187 188.981 24.6305 188.41 23.5954C187.838 22.5604 187.045 21.7512 186.031 21.1681C185.031 20.5704 183.866 20.2715 182.537 20.2715C181.151 20.2715 179.923 20.5995 178.851 21.2556C177.794 21.897 176.965 22.7645 176.365 23.8579C175.765 24.9367 175.457 26.1394 175.443 27.4661V32.9549C175.443 34.6169 175.743 36.0528 176.343 37.2629C176.958 38.4729 177.822 39.4059 178.937 40.062C180.051 40.718 181.373 41.046 182.902 41.046C183.916 41.046 184.845 40.9002 185.688 40.6087C186.531 40.3171 187.253 39.8797 187.853 39.2966C188.453 38.7134 188.91 37.9991 189.224 37.1535L197.669 37.7221C197.24 39.7923 196.361 41.6 195.033 43.1453C193.718 44.6761 192.018 45.8715 189.932 46.7317C187.86 47.5772 185.466 48 182.752 48Z" fill="#EFF4FF"/>
<path d="M142.249 37.6783L142.271 26.5039H143.599L154.144 13.7549H164.625L150.458 30.6369H148.293L142.249 37.6783ZM133.976 47.3439V2.55852H143.106V47.3439H133.976ZM154.552 47.3439L144.864 32.7143L150.951 26.1321L165.246 47.3439H154.552Z" fill="#EFF4FF"/>
<path d="M108.353 47.9781C106.253 47.9781 104.381 47.6064 102.738 46.8629C101.095 46.1048 99.7944 44.9895 98.8371 43.5171C97.8941 42.0301 97.4225 40.1786 97.4225 37.9626C97.4225 36.0966 97.7583 34.5294 98.4299 33.261C99.1014 31.9927 100.016 30.9722 101.173 30.1995C102.331 29.4269 103.645 28.8437 105.117 28.4501C106.603 28.0565 108.16 27.7795 109.789 27.6191C111.704 27.415 113.247 27.2255 114.419 27.0506C115.59 26.861 116.441 26.5841 116.969 26.2196C117.498 25.8551 117.762 25.3157 117.762 24.6014V24.4702C117.762 23.0852 117.334 22.0137 116.476 21.2556C115.633 20.4975 114.433 20.1184 112.876 20.1184C111.232 20.1184 109.925 20.4902 108.953 21.2337C107.982 21.9626 107.339 22.8811 107.024 23.9891L98.5799 23.2893C99.0086 21.2483 99.8516 19.4843 101.109 17.9973C102.366 16.4957 103.988 15.344 105.974 14.5421C107.975 13.7257 110.289 13.3175 112.918 13.3175C114.747 13.3175 116.498 13.5362 118.169 13.9736C119.855 14.4109 121.349 15.0888 122.649 16.0073C123.963 16.9257 124.999 18.1066 125.757 19.5499C126.514 20.9786 126.893 22.6916 126.893 24.6888V47.344H118.234V42.6861H117.977C117.448 43.7358 116.741 44.6615 115.855 45.4633C114.969 46.2506 113.904 46.8702 112.661 47.3221C111.418 47.7595 109.982 47.9781 108.353 47.9781ZM110.968 41.549C112.311 41.549 113.497 41.2793 114.526 40.7399C115.555 40.1859 116.362 39.4424 116.948 38.5093C117.534 37.5763 117.827 36.5194 117.827 35.3385V31.774C117.541 31.9635 117.148 32.1385 116.648 32.2989C116.162 32.4446 115.612 32.5831 114.997 32.7143C114.383 32.831 113.769 32.9403 113.154 33.0424C112.54 33.1298 111.983 33.21 111.482 33.2829C110.411 33.4433 109.475 33.6984 108.675 34.0483C107.875 34.3982 107.253 34.872 106.81 35.4697C106.367 36.0528 106.146 36.7818 106.146 37.6565C106.146 38.9248 106.596 39.8943 107.496 40.5649C108.41 41.221 109.568 41.549 110.968 41.549Z" fill="#EFF4FF"/>
<path d="M77.8973 48C74.5109 48 71.5961 47.3002 69.1527 45.9007C66.7237 44.4866 64.8519 42.4893 63.5374 39.9089C62.2228 37.3139 61.5655 34.2451 61.5655 30.7025C61.5655 27.2474 62.2228 24.215 63.5374 21.6055C64.8519 18.9959 66.7023 16.9622 69.0884 15.5043C71.4889 14.0465 74.3037 13.3175 77.5329 13.3175C79.7048 13.3175 81.7266 13.6747 83.5984 14.3891C85.4845 15.0888 87.1277 16.1458 88.5279 17.5599C89.9425 18.974 91.0427 20.7526 91.8286 22.8957C92.6145 25.0241 93.0074 27.5171 93.0074 30.3745V32.933H65.2091V27.1599H84.4128C84.4128 25.8187 84.1271 24.6305 83.5555 23.5954C82.984 22.5604 82.191 21.7512 81.1765 21.1681C80.1763 20.5704 79.0118 20.2715 77.683 20.2715C76.297 20.2715 75.0682 20.5995 73.9965 21.2556C72.9392 21.897 72.1105 22.7645 71.5103 23.8579C70.9102 24.9367 70.603 26.1394 70.5887 27.4661V32.9549C70.5887 34.6169 70.8888 36.0528 71.4889 37.2629C72.1033 38.4729 72.9678 39.4059 74.0823 40.062C75.1968 40.718 76.5184 41.046 78.0473 41.046C79.0618 41.046 79.9906 40.9002 80.8336 40.6087C81.6766 40.3171 82.3982 39.8797 82.9983 39.2966C83.5984 38.7134 84.0556 37.9991 84.37 37.1535L92.8145 37.7221C92.3858 39.7923 91.5071 41.6 90.1783 43.1453C88.8637 44.6761 87.1634 45.8715 85.0773 46.7317C83.0054 47.5772 80.6121 48 77.8973 48Z" fill="#EFF4FF"/>
<path d="M39.7309 47.3439V13.7549H48.5827V19.6155H48.9256C49.5257 17.5307 50.533 15.9562 51.9476 14.892C53.3622 13.8132 54.9911 13.2738 56.8343 13.2738C57.2915 13.2738 57.7845 13.3029 58.3131 13.3613C58.8418 13.4196 59.3062 13.4998 59.7063 13.6018V21.8679C59.2776 21.7367 58.6846 21.62 57.9273 21.518C57.1701 21.4159 56.4771 21.3649 55.8484 21.3649C54.5052 21.3649 53.305 21.6638 52.2477 22.2615C51.2046 22.8446 50.3759 23.661 49.7615 24.7107C49.1614 25.7603 48.8613 26.9704 48.8613 28.3408V47.3439H39.7309Z" fill="#EFF4FF"/>
<path d="M0 47.3439V2.55852H17.5749C20.8041 2.55852 23.4974 3.0469 25.655 4.02366C27.8126 5.00043 29.4343 6.35624 30.5202 8.09109C31.6062 9.81136 32.1491 11.7941 32.1491 14.0392C32.1491 15.7886 31.8062 17.3266 31.1204 18.6533C30.4345 19.9654 29.4915 21.0442 28.2912 21.8897C27.1053 22.7207 25.7479 23.3111 24.219 23.661V24.0984C25.8908 24.1713 27.4554 24.6524 28.9128 25.5417C30.3845 26.431 31.5776 27.6774 32.492 29.2811C33.4065 30.8701 33.8637 32.7654 33.8637 34.9667C33.8637 37.343 33.2851 39.4642 32.1277 41.3303C30.9846 43.1818 29.2914 44.6469 27.0481 45.7257C24.8048 46.8045 22.04 47.3439 18.7537 47.3439H0ZM9.28038 39.6027H16.8461C19.4324 39.6027 21.3184 39.0998 22.5044 38.0938C23.6903 37.0733 24.2833 35.7175 24.2833 34.0264C24.2833 32.7872 23.9904 31.6938 23.4046 30.7462C22.8187 29.7986 21.9829 29.0551 20.8969 28.5157C19.8253 27.9763 18.5465 27.7066 17.0605 27.7066H9.28038V39.6027ZM9.28038 21.2993H16.1603C17.432 21.2993 18.5608 21.0733 19.5467 20.6214C20.5469 20.1549 21.3327 19.4988 21.9043 18.6533C22.4901 17.8077 22.783 16.7945 22.783 15.6136C22.783 13.9954 22.2186 12.6906 21.0898 11.6993C19.9753 10.7079 18.3893 10.2123 16.3318 10.2123H9.28038V21.2993Z" fill="#EFF4FF"/>
</svg>
