<svg width="51" height="48" viewBox="0 0 51 48" fill="none" xmlns="http://www.w3.org/2000/svg">
<path d="M41.6561 0H8.82406C4.31742 0 0.664062 3.65336 0.664062 8.16V39.7632C0.664062 44.2698 4.31742 47.9232 8.82406 47.9232H41.6561C46.1627 47.9232 49.8161 44.2698 49.8161 39.7632V8.16C49.8161 3.65336 46.1627 0 41.6561 0Z" fill="#001E36"/>
<path d="M26.4772 33.8705H13.4859C13.2658 33.8705 13.156 33.7496 13.1562 33.5076V12.5702C13.1504 12.5299 13.1541 12.4888 13.167 12.4502C13.1799 12.4116 13.2015 12.3765 13.2303 12.3477C13.2591 12.3189 13.2942 12.2972 13.3328 12.2843C13.3714 12.2714 13.4125 12.2677 13.4529 12.2734H17.4756C17.507 12.269 17.5389 12.2719 17.569 12.282C17.599 12.292 17.6263 12.3089 17.6487 12.3313C17.6711 12.3537 17.6879 12.381 17.6979 12.411C17.708 12.4411 17.7109 12.473 17.7064 12.5044V29.7162H27.1695C27.3673 29.7162 27.4443 29.8151 27.4005 30.0129L26.8068 33.5739C26.8054 33.6225 26.7928 33.6701 26.7699 33.713C26.747 33.7559 26.7145 33.7929 26.6749 33.8212C26.6138 33.8529 26.5461 33.8699 26.4772 33.8707M29.7412 17.4831H33.3352C33.5357 17.4851 33.7108 17.6195 33.7638 17.813C33.8423 17.9574 33.898 18.1131 33.9289 18.2746C33.9747 18.4869 34.0076 18.7012 34.0276 18.9176C34.0493 19.1484 34.0603 19.3956 34.0606 19.6595C34.6769 18.9417 35.4202 18.3437 36.2532 17.8954C37.189 17.3894 38.2397 17.1338 39.3033 17.1535C39.3437 17.1477 39.3848 17.1514 39.4234 17.1643C39.462 17.1772 39.4971 17.1989 39.5259 17.2277C39.5547 17.2565 39.5763 17.2916 39.5892 17.3303C39.6021 17.3689 39.6058 17.41 39.6 17.4503V21.4401C39.6 21.594 39.4901 21.671 39.2703 21.6708C37.9421 21.5887 36.6135 21.8261 35.396 22.3632C34.9823 22.5424 34.6072 22.7999 34.2914 23.1216V33.5741C34.2914 33.7718 34.2034 33.8707 34.0276 33.8707H30.0378C29.993 33.8771 29.9474 33.873 29.9044 33.8588C29.8615 33.8445 29.8225 33.8204 29.7905 33.7884C29.7585 33.7564 29.7344 33.7174 29.7201 33.6744C29.7058 33.6315 29.7017 33.5858 29.7081 33.5411V22.1983C29.7081 21.9222 29.7064 21.6369 29.7028 21.3425L29.6961 20.8944C29.6948 20.8185 29.6933 20.7421 29.6916 20.6652C29.6833 20.2642 29.6719 19.8634 29.6575 19.4627L29.6421 19.066C29.6275 18.613 29.5835 18.1614 29.5104 17.7141C29.5027 17.6842 29.5023 17.6529 29.5095 17.6229C29.5166 17.5928 29.531 17.565 29.5513 17.5418C29.5717 17.5185 29.5974 17.5006 29.6262 17.4896C29.655 17.4786 29.6861 17.4748 29.7168 17.4785L29.7412 17.4831Z" fill="#31A8FF"/>
</svg>
