<svg width="50" height="48" viewBox="0 0 50 48" fill="none" xmlns="http://www.w3.org/2000/svg">
<path d="M41.4959 0H8.66391C4.15726 0 0.503906 3.65336 0.503906 8.16V39.7632C0.503906 44.2698 4.15726 47.9232 8.66391 47.9232H41.4959C46.0025 47.9232 49.6559 44.2698 49.6559 39.7632V8.16C49.6559 3.65336 46.0025 0 41.4959 0Z" fill="#001E36"/>
<path d="M11.5715 33.6067V12.537C11.5715 12.3833 11.6375 12.3064 11.7695 12.3062L11.9782 12.3057L12.3349 12.3018L12.8307 12.292L14.4915 12.2569L16.2723 12.2239C16.8986 12.213 17.5195 12.2075 18.1351 12.2074C19.8055 12.2074 21.2123 12.4162 22.3556 12.8339C23.3871 13.1825 24.3277 13.757 25.1089 14.5154C25.7712 15.1727 26.2831 15.9658 26.6092 16.8401C26.9175 17.691 27.0738 18.5894 27.0709 19.4943C27.0709 21.2532 26.6642 22.704 25.8508 23.8468C25.0553 24.9617 23.9457 25.8143 22.6636 26.2959L22.5535 26.3363C21.2147 26.8357 19.7321 27.0161 18.1061 27.0275L17.8534 27.0282L17.4784 27.0263L17.2893 27.0236L17.0785 27.0186L16.9514 27.0136L16.8742 27.0096L16.6843 27.0027L16.4522 26.9979L16.1027 26.9954L16.025 26.9952V33.5737C16.0308 33.614 16.0271 33.6551 16.0142 33.6938C16.0013 33.7324 15.9796 33.7676 15.9508 33.7964C15.922 33.8252 15.8869 33.8469 15.8482 33.8598C15.8096 33.8726 15.7685 33.8763 15.7281 33.8705H11.8025C11.6484 33.8707 11.5714 33.7827 11.5715 33.6067ZM16.0252 16.263V23.135C16.3106 23.1572 16.5743 23.1682 16.8162 23.1681H17.9045C18.6547 23.1655 19.4007 23.0538 20.1188 22.8365L20.262 22.7918C20.9154 22.5979 21.4992 22.2201 21.9438 21.7035C22.3569 21.2162 22.571 20.5447 22.5858 19.689L22.5868 19.5932C22.604 18.9554 22.4382 18.326 22.1085 17.7798C21.7622 17.2514 21.2613 16.8426 20.6743 16.6092C19.9078 16.3111 19.0891 16.171 18.2671 16.1971L17.849 16.1983L17.5852 16.2006L17.3335 16.2038L16.9783 16.2108L16.7191 16.2181L16.5845 16.223L16.4046 16.2315L16.2513 16.2409L16.164 16.2478L16.0885 16.2551L16.0553 16.259L16.0252 16.263ZM39.8197 21.8855C39.2445 21.59 38.6344 21.368 38.0038 21.2246L37.8579 21.1932C37.1641 21.034 36.4558 20.9463 35.7441 20.9315L35.5664 20.9294C35.1491 20.918 34.7325 20.968 34.3299 21.0778C34.0736 21.135 33.8458 21.2809 33.6867 21.4898C33.5791 21.657 33.522 21.8516 33.5219 22.0504C33.528 22.2432 33.5975 22.4286 33.7197 22.5779C33.8947 22.7825 34.1051 22.954 34.3408 23.0842L34.4122 23.122C34.8824 23.3751 35.3668 23.6008 35.863 23.7978C36.9695 24.1685 38.0269 24.6723 39.0118 25.2981C39.6828 25.7216 40.2381 26.3051 40.6277 26.9964C40.9551 27.6508 41.1191 28.3748 41.1057 29.1064C41.1253 30.0727 40.8492 31.0219 40.3143 31.8269C39.7416 32.6439 38.9461 33.2791 38.0226 33.6566C37.0554 34.0816 35.8678 34.3013 34.4597 34.3156L34.3134 34.3164C33.4404 34.325 32.5687 34.2486 31.7106 34.0883L31.5271 34.0525C30.8046 33.9201 30.1013 33.6985 29.4333 33.393C29.3661 33.3584 29.3093 33.3066 29.2688 33.2428C29.2282 33.1791 29.2054 33.1057 29.2025 33.0301V29.4363C29.1986 29.4014 29.2042 29.3661 29.2187 29.3342C29.2332 29.3022 29.2562 29.2748 29.2851 29.2549C29.3134 29.2388 29.3459 29.2317 29.3783 29.2347C29.4107 29.2376 29.4414 29.2504 29.4663 29.2714C30.2552 29.7365 31.1117 30.0758 32.0051 30.2771C32.7926 30.4745 33.6004 30.5797 34.4122 30.5904C35.1814 30.5904 35.7474 30.4915 36.1103 30.2936C36.2741 30.2185 36.4126 30.0976 36.5092 29.9454C36.6057 29.7933 36.6562 29.6165 36.6544 29.4363C36.6544 29.1509 36.4895 28.8761 36.1598 28.612C36.0216 28.5014 35.8234 28.3811 35.5652 28.2511L35.4417 28.1904L35.31 28.1284L35.2409 28.0969L35.0961 28.0328L35.0207 28.0001L34.8632 27.9341L34.7813 27.9005L34.6111 27.8323L34.5228 27.7978L34.3399 27.7273L34.1484 27.6557C33.1129 27.2956 32.1312 26.7965 31.2302 26.1719C30.5857 25.7237 30.055 25.1309 29.6806 24.4408C29.3565 23.7911 29.1925 23.0731 29.2025 22.3471C29.2005 21.4746 29.4401 20.6187 29.8949 19.8741C30.4133 19.0543 31.1575 18.4015 32.0382 17.9948C33.0052 17.5115 34.2142 17.2696 35.665 17.2693C36.5148 17.2624 37.3638 17.3231 38.204 17.4507C38.8124 17.5279 39.4072 17.6888 39.9716 17.9288C40.0624 17.9549 40.1356 18.0219 40.1694 18.1102C40.1918 18.1907 40.2028 18.2738 40.2024 18.3575V21.6878C40.2072 21.7665 40.1694 21.8419 40.1035 21.8855C40.0594 21.9074 40.0108 21.9188 39.9616 21.9188C39.9124 21.9188 39.8638 21.9074 39.8197 21.8855Z" fill="#31A8FF"/>
</svg>
