<svg width="49" height="48" viewBox="0 0 49 48" fill="none" xmlns="http://www.w3.org/2000/svg">
<path d="M9.17266 0.599976H40.1852C44.8727 0.599976 48.6977 4.38748 48.6977 9.11248V38.925C48.6977 43.6125 44.9102 47.4375 40.1852 47.4375H9.17266C4.44766 47.4 0.660156 43.6125 0.660156 38.8875V9.11248C0.660156 4.38748 4.44766 0.599976 9.17266 0.599976Z" fill="#330000"/>
<path d="M23.8728 28.6125H16.4103L14.9103 33.3C14.8728 33.4875 14.7228 33.6 14.5353 33.5625H10.7853C10.5603 33.5625 10.5228 33.45 10.5603 33.1875L17.0103 14.6625C17.0853 14.475 17.1228 14.25 17.1978 13.9875C17.2728 13.575 17.3103 13.125 17.3103 12.675C17.2728 12.5625 17.3853 12.4875 17.4603 12.45H22.6353C22.7853 12.45 22.8603 12.525 22.8978 12.6L30.2103 33.1875C30.2853 33.4125 30.2103 33.525 30.0228 33.525H25.8228C25.6728 33.5625 25.5603 33.45 25.4853 33.3L23.8728 28.6125ZM17.5728 24.525H22.6353C22.5228 24.1125 22.3728 23.5875 22.1853 23.1C21.9978 22.575 21.8103 21.975 21.6603 21.375C21.4728 20.7375 21.2853 20.1375 21.0978 19.5375C20.9103 18.9 20.7228 18.3375 20.5728 17.775C20.4228 17.2125 20.2728 16.6875 20.1228 16.2H20.0853C19.8978 17.0625 19.6728 17.925 19.4103 18.7875C19.1103 19.7625 18.8103 20.7375 18.4728 21.75C18.1728 22.7625 17.8728 23.7 17.5728 24.525ZM34.6728 16.0125C33.9978 16.05 33.3603 15.7875 32.9103 15.3C32.4603 14.8125 32.1978 14.1375 32.2353 13.4625C32.1978 12.7875 32.4603 12.15 32.9478 11.7C33.4353 11.25 34.0728 10.9875 34.7103 10.9875C35.4978 10.9875 36.0978 11.2125 36.5478 11.7C36.9978 12.1875 37.2228 12.825 37.2228 13.4625C37.2603 14.1375 36.9978 14.8125 36.5103 15.3C36.0228 15.7875 35.3478 16.05 34.6728 16.0125ZM32.4228 33.375V17.9625C32.4228 17.775 32.4978 17.7 32.6853 17.7H36.6603C36.8478 17.7 36.9228 17.8125 36.9228 17.9625V33.375C36.9228 33.6 36.8478 33.7125 36.6603 33.7125H32.7228C32.5353 33.675 32.4228 33.5625 32.4228 33.375Z" fill="#FF9A00"/>
</svg>
