<svg width="49" height="48" viewBox="0 0 49 48" fill="none" xmlns="http://www.w3.org/2000/svg">
<path d="M37.5703 0H12.0703C5.85711 0 0.820312 5.0368 0.820312 11.25V36.75C0.820312 42.9632 5.85711 48 12.0703 48H37.5703C43.7835 48 48.8203 42.9632 48.8203 36.75V11.25C48.8203 5.0368 43.7835 0 37.5703 0Z" fill="#00005B"/>
<path d="M10.9453 34.2525V13.6524C10.9453 13.5126 11.0053 13.4325 11.1454 13.4325C11.4853 13.4325 11.8054 13.4325 12.2653 13.4124C12.7453 13.3926 13.2454 13.3926 13.7854 13.3725C14.3254 13.3524 14.9053 13.3524 15.5254 13.3326C16.1453 13.3125 16.7453 13.3125 17.3453 13.3125C18.9853 13.3125 20.3453 13.5126 21.4654 13.9326C22.4693 14.2735 23.3848 14.8337 24.1453 15.5724C24.7896 16.2191 25.2875 16.9967 25.6054 17.8524C25.9054 18.6924 26.0653 19.5525 26.0653 20.4525C26.0653 22.1725 25.6653 23.5925 24.8653 24.7125C24.0653 25.8324 22.9453 26.6724 21.6454 27.1524C20.2853 27.6525 18.7853 27.8325 17.1454 27.8325C16.6654 27.8325 16.3453 27.8325 16.1453 27.8124C15.9454 27.7926 15.6653 27.7926 15.2854 27.7926V34.2126C15.3053 34.3524 15.2053 34.4724 15.0652 34.4925H11.1853C11.0254 34.4925 10.9453 34.4124 10.9453 34.2324V34.2525ZM15.3052 17.3124V24.0324C15.5854 24.0525 15.8453 24.0726 16.0853 24.0726H17.1454C17.9254 24.0726 18.7054 23.9526 19.4452 23.7126C20.0854 23.5326 20.6453 23.1525 21.0853 22.6524C21.5053 22.1526 21.7054 21.4725 21.7054 20.5926C21.7242 19.9675 21.5646 19.3501 21.2452 18.8124C20.9053 18.2925 20.4253 17.8926 19.8454 17.6724C19.1053 17.3724 18.3052 17.2524 17.4853 17.2725C16.9654 17.2725 16.5052 17.2725 16.1254 17.2926C15.7252 17.2725 15.4453 17.2926 15.3052 17.3124ZM28.9453 18.4926H32.4454C32.6454 18.4926 32.8054 18.6324 32.8654 18.8124C32.9254 18.9726 32.9653 19.1325 32.9854 19.3125C33.0253 19.5126 33.0654 19.7325 33.0853 19.9326C33.1054 20.1525 33.1254 20.3925 33.1254 20.6526C33.7259 19.9515 34.4516 19.3682 35.2654 18.9324C36.1854 18.4125 37.2454 18.1524 38.3053 18.1524C38.4454 18.1326 38.5654 18.2325 38.5854 18.3726V22.3524C38.5854 22.5126 38.4853 22.5726 38.2654 22.5726C37.5454 22.5525 36.8053 22.6125 36.1054 22.7724C35.5254 22.8924 34.9654 23.0724 34.4254 23.3124C34.0453 23.4924 33.6853 23.7324 33.4054 24.0525V34.2525C33.4054 34.4526 33.3253 34.5324 33.1453 34.5324H29.2054C29.0454 34.5525 28.9054 34.4526 28.8853 34.2924V23.1324C28.8853 22.6524 28.8853 22.1526 28.8654 21.6324C28.8454 21.1125 28.8454 20.5926 28.8253 20.0724C28.8253 19.6125 28.7854 19.1724 28.7454 18.7125C28.7254 18.6126 28.7854 18.5124 28.8853 18.4926C28.8853 18.4725 28.9254 18.4725 28.9453 18.4926Z" fill="#9999FF"/>
</svg>
