<svg width="49" height="48" viewBox="0 0 49 48" fill="none" xmlns="http://www.w3.org/2000/svg">
<path d="M37.5703 0H12.0703C5.85711 0 0.820312 5.0368 0.820312 11.25V36.75C0.820312 42.9632 5.85711 48 12.0703 48H37.5703C43.7835 48 48.8203 42.9632 48.8203 36.75V11.25C48.8203 5.0368 43.7835 0 37.5703 0Z" fill="#00005B"/>
<path d="M20.5372 29.2725H13.0972L11.5772 33.9924C11.5372 34.1724 11.3773 34.2924 11.1973 34.2726H7.43716C7.21722 34.2726 7.15722 34.1526 7.21722 33.9126L13.6573 15.4524C13.7173 15.2526 13.7773 15.0726 13.8572 14.8326C13.9372 14.4126 13.9772 13.9725 13.9772 13.5324C13.9573 13.4325 14.0372 13.3326 14.1371 13.3125H19.3172C19.4572 13.3125 19.5572 13.3725 19.5772 13.4724L26.8772 33.8724C26.9372 34.0926 26.8772 34.1925 26.6773 34.1925H22.4972C22.3573 34.2126 22.2172 34.1124 22.1773 33.9726L20.5372 29.1726V29.2725ZM14.2573 25.2924H19.3372C19.2172 24.8724 19.0571 24.3726 18.8771 23.8524C18.6971 23.3124 18.5171 22.7325 18.3371 22.1325C18.1372 21.5124 17.9572 20.9124 17.7572 20.2926C17.5571 19.6727 17.3773 19.0926 17.2172 18.5124C17.0572 17.9526 16.9172 17.4324 16.7771 16.9524H16.7372C16.5572 17.8125 16.3372 18.6726 16.0571 19.5324C15.7571 20.4924 15.4571 21.4926 15.1372 22.4925C14.8772 23.5125 14.5571 24.4524 14.2573 25.2924ZM38.6572 27.4725H32.3173C32.3972 28.0926 32.5972 28.7124 32.9372 29.2524C33.2972 29.7924 33.7972 30.2124 34.3972 30.4524C35.1973 30.7926 36.0772 30.9726 36.9572 30.9525C37.6573 30.9324 38.3572 30.8724 39.0373 30.7326C39.6472 30.6528 40.245 30.4982 40.8172 30.2724C40.9172 30.1926 40.9772 30.2325 40.9772 30.4326V33.4926C40.9772 33.5724 40.9573 33.6525 40.9372 33.7326C40.8973 33.7926 40.8572 33.8325 40.7972 33.8724C40.1576 34.1534 39.4859 34.3549 38.7973 34.4724C37.8617 34.6524 36.9097 34.7329 35.9572 34.7124C34.4372 34.7124 33.1573 34.4724 32.1172 34.0125C31.1372 33.5925 30.2773 32.9325 29.5972 32.1126C28.964 31.342 28.4945 30.4505 28.2172 29.4924C27.9373 28.5525 27.7972 27.5724 27.7972 26.5725C27.7972 25.4925 27.9572 24.4326 28.2973 23.3925C28.6161 22.3911 29.1254 21.4607 29.7973 20.6526C30.4573 19.8525 31.2772 19.2126 32.2172 18.7524C33.1573 18.2925 34.2772 18.1326 35.5573 18.1326C36.6172 18.1125 37.6772 18.3126 38.6572 18.7524C39.4772 19.1124 40.1972 19.6524 40.7572 20.3526C41.2772 21.0324 41.6972 21.7926 41.9572 22.6326C42.2173 23.4324 42.3373 24.2526 42.3373 25.0725C42.3373 25.5525 42.3172 25.9725 42.2972 26.3526C42.2572 26.7324 42.2372 27.0126 42.2173 27.1926C42.1972 27.3324 42.0772 27.4524 41.9372 27.4524C41.8172 27.4524 41.5972 27.4725 41.2772 27.4926C40.9573 27.5325 40.5772 27.5526 40.1173 27.5526C39.6572 27.5526 39.1772 27.4725 38.6572 27.4725ZM32.3173 24.5526H36.5372C37.0573 24.5526 37.4372 24.5526 37.6772 24.5325C37.8373 24.5124 37.9972 24.4725 38.1373 24.3726V24.1725C38.1379 23.9209 38.0974 23.6709 38.0173 23.4324C37.6573 22.3125 36.5972 21.5526 35.4172 21.5925C34.8744 21.5621 34.3344 21.6894 33.8624 21.9592C33.3904 22.2289 33.0065 22.6295 32.7572 23.1126C32.5172 23.5725 32.3773 24.0525 32.3173 24.5526Z" fill="#9999FF"/>
</svg>
