<svg width="57" height="48" viewBox="0 0 57 48" fill="none" xmlns="http://www.w3.org/2000/svg">
<path d="M27.768 0.00263014C30.8006 0.089863 33.5394 1.87003 34.8519 4.62488L40.0597 15.5803L40.1435 15.3685C40.3502 14.8225 40.5197 14.263 40.6509 13.694L40.7236 13.3547C41.6012 8.96679 45.8662 6.1269 50.2623 6.99507C51.3064 7.20359 52.2993 7.61579 53.1841 8.20814C54.0688 8.80049 54.8283 9.56137 55.4189 10.4473C56.0095 11.3332 56.4198 12.3269 56.6263 13.3714C56.8328 14.416 56.8315 15.491 56.6224 16.535C55.4526 22.3765 52.4372 27.7979 48.1119 32.0929L47.9749 32.226L49.8007 36.0647C51.9197 40.5205 49.7242 45.9064 45.1103 47.4179L44.9021 47.483L44.7431 47.531C44.0372 47.7297 43.3074 47.8309 42.5739 47.8319C41.0407 47.832 39.5388 47.3976 38.2424 46.579C36.9459 45.7604 35.908 44.5912 35.249 43.2068L33.8397 40.2439L33.4842 40.3321C31.5791 40.7822 29.6468 41.0317 27.7137 41.07L27.1865 41.0753C25.3262 41.0753 23.4351 40.859 21.5458 40.4397L21.1732 40.3529L19.8193 43.1993C18.9065 45.1188 17.2761 46.6027 15.2795 47.3313L15.0384 47.415C13.9985 47.758 12.8999 47.8865 11.8089 47.793C10.7179 47.6994 9.65727 47.3856 8.69098 46.8706C4.84222 44.8248 3.3746 40.0353 5.25252 36.0793L6.93361 32.5442L6.78676 32.4018C4.48211 30.1282 2.65504 27.5441 1.44298 24.7662L1.28145 24.3864L1.25822 24.3248C-0.409949 20.1771 1.59334 15.4558 5.73843 13.7775C8.98972 12.4614 12.5939 13.4065 14.8102 15.8768L14.8519 15.9246L20.2099 4.65403C20.8451 3.29649 21.8455 2.14243 23.0991 1.32091C24.3527 0.499391 25.8101 0.042797 27.3084 0.00219178L27.5353 0L27.768 0.00263014Z" fill="white"/>
<path d="M19.7652 37.2701L24.5643 27.173C20.8988 26.3945 17.2107 24.1271 15.1247 21.3688L10.1064 31.9189C12.895 34.2845 16.2432 36.144 19.7652 37.2701Z" fill="#1A007F"/>
<path d="M39.793 21.0663C37.3821 24.0215 34.0341 26.2133 30.4517 27.0672L35.2357 37.134C38.7274 35.9549 41.9923 34.0504 44.8116 31.6094L39.793 21.0663Z" fill="#4E000A"/>
<path d="M10.1063 31.9191L7.59711 37.1945C6.31974 39.8775 7.27952 43.1803 9.90966 44.5784C12.6985 46.0596 16.1297 44.9035 17.475 42.0842L19.765 37.2701C16.2286 36.1302 12.948 34.3128 10.1063 31.9191Z" fill="#1A007F"/>
<path d="M49.754 9.54848C49.0443 9.40639 48.3137 9.40551 47.6037 9.54588C46.8937 9.68624 46.2184 9.96511 45.6162 10.3665C45.014 10.768 44.4969 11.2841 44.0942 11.8855C43.6916 12.4868 43.4114 13.1616 43.2696 13.8713C42.7405 16.5168 41.501 18.9804 39.793 21.074L44.8038 31.6245C49.4291 27.6114 52.845 22.1473 54.0696 16.0329C54.6666 13.04 52.7317 10.1378 49.754 9.54848Z" fill="#FF9396"/>
<path d="M30.4515 27.0672C29.3784 27.3241 28.2825 27.4602 27.1866 27.4602C26.3327 27.4602 25.4485 27.362 24.5641 27.173C20.8986 26.3945 17.2105 24.1271 15.1246 21.3688C14.6029 20.681 14.1799 19.963 13.8851 19.2298C12.7439 16.4107 9.53182 15.0505 6.71275 16.1841C3.89368 17.3254 2.53368 20.5374 3.66705 23.3563C4.95933 26.5607 7.24185 29.5007 10.1063 31.9191C12.9455 34.3124 16.2235 36.1298 19.7574 37.2701C22.1834 38.0484 24.7 38.4793 27.1792 38.4793C29.9301 38.4793 32.6433 38.0031 35.228 37.134L30.4515 27.0672Z" fill="#002DC8"/>
<path d="M47.4486 37.1717L44.8035 31.6094L39.7927 21.0663L39.7852 21.074C39.7852 21.074 39.7852 21.0663 39.7927 21.0663L32.5072 5.73917C32.06 4.79877 31.3555 4.00432 30.4753 3.4479C29.5952 2.89148 28.5753 2.59585 27.534 2.59528C25.4102 2.59528 23.4755 3.8196 22.5611 5.73939L15.1318 21.3688C17.2178 24.1271 20.9059 26.3945 24.5714 27.173L26.9747 22.1245C27.2015 21.6482 27.8816 21.6482 28.1085 22.1245L30.459 27.0672H30.4741H30.4587L35.243 37.134L37.5934 42.0767C38.0402 43.0189 38.7456 43.8147 39.6274 44.3714C40.5092 44.928 41.531 45.2226 42.5738 45.2208C43.0652 45.2208 43.5564 45.1529 44.0401 45.0168C47.358 44.1021 48.93 40.2856 47.4486 37.1717Z" fill="#FF536A"/>
</svg>
