<svg width="57" height="48" viewBox="0 0 57 48" fill="none" xmlns="http://www.w3.org/2000/svg">
<path d="M27.9179 0.00263014C30.9505 0.089863 33.6893 1.87003 35.0018 4.62488L40.2097 15.5803L40.2934 15.3685C40.5001 14.8225 40.6696 14.263 40.8008 13.694L40.8735 13.3547C41.7511 8.96679 46.0161 6.1269 50.4122 6.99507C51.4563 7.20359 52.4492 7.61579 53.334 8.20814C54.2187 8.80049 54.9782 9.56137 55.5688 10.4473C56.1594 11.3332 56.5697 12.3269 56.7762 13.3714C56.9827 14.416 56.9814 15.491 56.7723 16.535C55.6025 22.3765 52.5871 27.7979 48.2618 32.0929L48.1248 32.226L49.9506 36.0647C52.0696 40.5205 49.8741 45.9064 45.2602 47.4179L45.052 47.483L44.8931 47.531C44.1871 47.7297 43.4573 47.8309 42.7238 47.8319C41.1906 47.832 39.6887 47.3976 38.3923 46.579C37.0958 45.7604 36.0579 44.5912 35.3989 43.2068L33.9896 40.2439L33.6341 40.3321C31.729 40.7822 29.7967 41.0317 27.8636 41.07L27.3364 41.0753C25.4761 41.0753 23.585 40.859 21.6957 40.4397L21.3231 40.3529L19.9692 43.1993C19.0564 45.1188 17.426 46.6027 15.4294 47.3313L15.1883 47.415C14.1484 47.758 13.0498 47.8865 11.9588 47.793C10.8678 47.6994 9.80718 47.3856 8.84088 46.8706C4.99212 44.8248 3.5245 40.0353 5.40242 36.0793L7.08352 32.5442L6.93667 32.4018C4.63201 30.1282 2.80494 27.5441 1.59289 24.7662L1.43135 24.3864L1.40812 24.3248C-0.260046 20.1771 1.74324 15.4558 5.88834 13.7775C9.13962 12.4614 12.7438 13.4065 14.9601 15.8768L15.0018 15.9246L20.3598 4.65403C20.995 3.29649 21.9954 2.14243 23.249 1.32091C24.5026 0.499391 25.96 0.042797 27.4583 0.00219178L27.6852 0L27.9179 0.00263014Z" fill="white"/>
<path d="M19.9151 37.2701L24.7142 27.173C21.0487 26.3945 17.3606 24.1271 15.2746 21.3688L10.2563 31.9189C13.045 34.2845 16.3931 36.144 19.9151 37.2701Z" fill="#1A007F"/>
<path d="M39.9429 21.0663C37.532 24.0215 34.184 26.2133 30.6016 27.0672L35.3856 37.134C38.8773 35.9549 42.1422 34.0504 44.9615 31.6094L39.9429 21.0663Z" fill="#4E000A"/>
<path d="M10.2562 31.9191L7.74701 37.1945C6.46964 39.8775 7.42942 43.1803 10.0596 44.5784C12.8484 46.0596 16.2796 44.9035 17.6249 42.0842L19.9149 37.2701C16.3785 36.1302 13.0979 34.3128 10.2562 31.9191Z" fill="#1A007F"/>
<path d="M49.9039 9.54848C49.1942 9.40639 48.4636 9.40551 47.7536 9.54588C47.0436 9.68624 46.3683 9.96511 45.7661 10.3665C45.1639 10.768 44.6468 11.2841 44.2441 11.8855C43.8415 12.4868 43.5613 13.1616 43.4195 13.8713C42.8904 16.5168 41.6509 18.9804 39.9429 21.074L44.9537 31.6245C49.579 27.6114 52.9949 22.1473 54.2195 16.0329C54.8165 13.04 52.8816 10.1378 49.9039 9.54848Z" fill="#FF9396"/>
<path d="M30.6014 27.0672C29.5283 27.3241 28.4324 27.4602 27.3365 27.4602C26.4826 27.4602 25.5984 27.362 24.7141 27.173C21.0485 26.3945 17.3604 24.1271 15.2745 21.3688C14.7528 20.681 14.3298 19.963 14.035 19.2298C12.8938 16.4107 9.68172 15.0505 6.86265 16.1841C4.04359 17.3254 2.68359 20.5374 3.81696 23.3563C5.10923 26.5607 7.39175 29.5007 10.2562 31.9191C13.0954 34.3124 16.3734 36.1298 19.9073 37.2701C22.3333 38.0484 24.8499 38.4793 27.3291 38.4793C30.08 38.4793 32.7932 38.0031 35.3779 37.134L30.6014 27.0672Z" fill="#002DC8"/>
<path d="M47.5985 37.1717L44.9534 31.6094L39.9426 21.0663L39.9351 21.074C39.9351 21.074 39.9351 21.0663 39.9426 21.0663L32.6571 5.73917C32.2099 4.79877 31.5054 4.00432 30.6252 3.4479C29.7451 2.89148 28.7252 2.59585 27.6839 2.59528C25.5601 2.59528 23.6254 3.8196 22.711 5.73939L15.2817 21.3688C17.3677 24.1271 21.0558 26.3945 24.7213 27.173L27.1246 22.1245C27.3514 21.6482 28.0315 21.6482 28.2584 22.1245L30.6089 27.0672H30.624H30.6086L35.3929 37.134L37.7433 42.0767C38.1901 43.0189 38.8955 43.8147 39.7773 44.3714C40.6591 44.928 41.6809 45.2226 42.7237 45.2208C43.2151 45.2208 43.7063 45.1529 44.19 45.0168C47.5079 44.1021 49.0799 40.2856 47.5985 37.1717Z" fill="#FF536A"/>
</svg>
