<svg width="53" height="48" viewBox="0 0 53 48" fill="none" xmlns="http://www.w3.org/2000/svg">
<path d="M41.3934 25.3711C35.1658 25.3711 30.1175 30.4196 30.1175 36.6475C30.1175 42.8753 35.1658 47.9238 41.3934 47.9238C47.6211 47.9238 52.6694 42.8751 52.6694 36.6475C52.6694 30.4196 47.6211 25.3711 41.3934 25.3711ZM12.0972 25.3722C5.8698 25.3722 0.821289 30.4196 0.821289 36.6475C0.821289 42.8753 5.8698 47.9238 12.0972 47.9238C18.3251 47.9238 23.3738 42.8751 23.3738 36.6475C23.3738 30.4196 18.3251 25.3722 12.0972 25.3722ZM38.0213 11.2759C38.0213 17.5038 32.9728 22.5529 26.7455 22.5529C20.5177 22.5529 15.4694 17.5038 15.4694 11.2759C15.4694 5.04871 20.5175 0 26.7453 0C32.9726 0 38.0209 5.04911 38.0209 11.2757" fill="#F06A6A"/>
</svg>
