<svg width="53" height="48" viewBox="0 0 53 48" fill="none" xmlns="http://www.w3.org/2000/svg">
<path d="M41.5033 25.3711C35.2757 25.3711 30.2274 30.4196 30.2274 36.6475C30.2274 42.8753 35.2757 47.9238 41.5033 47.9238C47.7309 47.9238 52.7793 42.8751 52.7793 36.6475C52.7793 30.4196 47.7309 25.3711 41.5033 25.3711ZM12.2071 25.3722C5.97966 25.3722 0.931152 30.4196 0.931152 36.6475C0.931152 42.8753 5.97966 47.9238 12.2071 47.9238C18.4349 47.9238 23.4837 42.8751 23.4837 36.6475C23.4837 30.4196 18.4349 25.3722 12.2071 25.3722ZM38.1312 11.2759C38.1312 17.5038 33.0826 22.5529 26.8554 22.5529C20.6276 22.5529 15.5793 17.5038 15.5793 11.2759C15.5793 5.04871 20.6274 0 26.8552 0C33.0824 0 38.1307 5.04911 38.1307 11.2757" fill="#F06A6A"/>
</svg>
