<svg width="49" height="48" viewBox="0 0 49 48" fill="none" xmlns="http://www.w3.org/2000/svg">
<path d="M31.544 3.54936C31.9089 4.00199 32.0949 4.61286 32.4654 5.83311L40.5864 32.5091C37.5364 30.9256 34.2624 29.8172 30.8776 29.2222L25.5909 11.355C25.5491 11.2122 25.4622 11.0867 25.3431 10.9975C25.224 10.9084 25.0791 10.8602 24.9303 10.8604C24.7815 10.8606 24.6368 10.909 24.5179 10.9985C24.399 11.0879 24.3123 11.2136 24.2709 11.3565L19.0475 29.2132C15.6481 29.8061 12.3596 30.9162 9.29639 32.505L17.4556 5.82749C17.8291 4.60874 18.0151 3.99899 18.3796 3.54636C18.7016 3.14767 19.1202 2.83808 19.5958 2.64711C20.1331 2.43149 20.7718 2.43149 22.0464 2.43149H27.875C29.1508 2.43149 29.7894 2.43149 30.3286 2.64861C30.8042 2.84006 31.2224 3.15017 31.544 3.54936Z" fill="white"/>
<path d="M32.5152 33.7777C31.1765 34.9234 28.5042 35.7041 25.4266 35.7041C21.6503 35.7041 18.4835 34.5277 17.6438 32.9456C17.3438 33.8524 17.2763 34.8896 17.2763 35.5534C17.2763 35.5534 17.0787 38.8065 19.3418 41.0696C19.3418 40.7903 19.3968 40.5137 19.5037 40.2556C19.6105 39.9976 19.7672 39.7631 19.9647 39.5656C20.1623 39.3681 20.3968 39.2115 20.6548 39.1047C20.9129 38.9978 21.1895 38.9429 21.4688 38.943C23.4826 38.943 23.4815 40.6991 23.48 42.126V42.252C23.48 44.4169 24.8026 46.2716 26.6836 47.0539C26.3934 46.4584 26.2431 45.8045 26.2441 45.1421C26.2441 43.0766 27.4553 42.309 28.8646 41.4154C29.9855 40.7051 31.2305 39.9154 32.0873 38.3321C32.55 37.4791 32.7917 36.5238 32.7905 35.5534C32.7907 34.9508 32.6979 34.3519 32.5152 33.7777Z" fill="#FF5D01"/>
<path d="M32.5152 33.7777C31.1765 34.9234 28.5042 35.7041 25.4266 35.7041C21.6503 35.7041 18.4835 34.5277 17.6438 32.9456C17.3438 33.8524 17.2763 34.8896 17.2763 35.5534C17.2763 35.5534 17.0787 38.8065 19.3418 41.0696C19.3418 40.7903 19.3968 40.5137 19.5037 40.2556C19.6105 39.9976 19.7672 39.7631 19.9647 39.5656C20.1623 39.3681 20.3968 39.2115 20.6548 39.1047C20.9129 38.9978 21.1895 38.9429 21.4688 38.943C23.4826 38.943 23.4815 40.6991 23.48 42.126V42.252C23.48 44.4169 24.8026 46.2716 26.6836 47.0539C26.3934 46.4584 26.2431 45.8045 26.2441 45.1421C26.2441 43.0766 27.4553 42.309 28.8646 41.4154C29.9855 40.7051 31.2305 39.9154 32.0873 38.3321C32.55 37.4791 32.7917 36.5238 32.7905 35.5534C32.7907 34.9508 32.6979 34.3519 32.5152 33.7777Z" fill="url(#paint0_linear_6_582)"/>
<defs>
<linearGradient id="paint0_linear_6_582" x1="38.543" y1="24.4669" x2="30.6172" y2="41.0591" gradientUnits="userSpaceOnUse">
<stop stop-color="#FF1639"/>
<stop offset="1" stop-color="#FF1639" stop-opacity="0"/>
</linearGradient>
</defs>
</svg>
