<svg width="49" height="48" viewBox="0 0 49 48" fill="none" xmlns="http://www.w3.org/2000/svg">
<path d="M16.7101 20.9927C16.7101 21.4491 16.7594 21.819 16.8457 22.0905C16.9552 22.3959 17.0872 22.6928 17.2406 22.9787C17.3023 23.0773 17.3268 23.1759 17.3268 23.2624C17.3268 23.3858 17.2528 23.5091 17.0924 23.6323L16.3153 24.1506C16.2043 24.2244 16.0933 24.2616 15.9946 24.2616C15.8713 24.2616 15.7479 24.1999 15.6245 24.0889C15.4584 23.9102 15.3097 23.7161 15.1805 23.5091C15.0426 23.2721 14.915 23.0292 14.798 22.7812C13.8359 23.9163 12.627 24.4837 11.1714 24.4836C10.1353 24.4836 9.30875 24.1875 8.70425 23.5954C8.09994 23.0033 7.7915 22.2139 7.7915 21.2271C7.7915 20.1784 8.16163 19.3273 8.91407 18.6859C9.6665 18.0444 10.6657 17.7236 11.9362 17.7236C12.3556 17.7236 12.7874 17.7608 13.2438 17.8224C13.7002 17.8841 14.1689 17.9827 14.6624 18.0938V17.1932C14.6624 16.2557 14.465 15.6019 14.0827 15.2196C13.6878 14.8371 13.0218 14.6522 12.0719 14.6522C11.6401 14.6522 11.1961 14.7015 10.7398 14.8125C10.2834 14.9235 9.83919 15.0592 9.40738 15.2319C9.26711 15.2946 9.12293 15.3482 8.97575 15.3923C8.8895 15.417 8.82763 15.4294 8.77832 15.4294C8.60582 15.4294 8.51919 15.306 8.51919 15.0469V14.4424C8.51919 14.2451 8.54394 14.097 8.60563 14.0107C8.66732 13.9245 8.77832 13.8381 8.951 13.7516C9.38275 13.5296 9.90088 13.3446 10.5054 13.1966C11.1097 13.0361 11.7511 12.9623 12.4297 12.9623C13.8976 12.9623 14.9707 13.2952 15.6616 13.9612C16.34 14.6274 16.6854 15.639 16.6854 16.9959V20.9927H16.7101ZM11.702 22.8677C12.1089 22.8677 12.5283 22.7936 12.9725 22.6455C13.4165 22.4976 13.8112 22.2261 14.1444 21.8561C14.3416 21.6217 14.4898 21.3626 14.5636 21.0666C14.6375 20.7705 14.687 20.4128 14.687 19.9935V19.4752C14.313 19.3842 13.9341 19.3143 13.5523 19.2656C13.1676 19.217 12.7803 19.1922 12.3926 19.1916C11.5661 19.1916 10.9618 19.3521 10.5547 19.6851C10.1476 20.0181 9.95019 20.4868 9.95019 21.1037C9.95019 21.6834 10.0983 22.1151 10.4066 22.4111C10.7028 22.7196 11.1346 22.8677 11.702 22.8677ZM21.6071 24.1999C21.3851 24.1999 21.2369 24.1628 21.1383 24.0765C21.0397 24.0024 20.9533 23.8298 20.8794 23.5954L17.9806 14.0601C17.9064 13.8133 17.8694 13.653 17.8694 13.5666C17.8694 13.3693 17.9681 13.2581 18.1655 13.2581H19.3743C19.6087 13.2581 19.7692 13.2952 19.8554 13.3815C19.9541 13.4556 20.0281 13.6282 20.1022 13.8626L22.1744 22.0288L24.0989 13.8626C24.1606 13.6159 24.2345 13.4557 24.3333 13.3815C24.4319 13.3076 24.6046 13.2583 24.8266 13.2583H25.8134C26.0478 13.2583 26.2083 13.2952 26.3069 13.3815C26.4056 13.4556 26.492 13.6282 26.5413 13.8626L28.4904 22.1274L30.6243 13.8626C30.6984 13.6159 30.7848 13.4557 30.8711 13.3815C30.9697 13.3076 31.1302 13.2583 31.3522 13.2583H32.4993C32.6968 13.2583 32.8078 13.3569 32.8078 13.5666C32.8078 13.6284 32.7954 13.6899 32.783 13.764C32.7708 13.8381 32.7461 13.9365 32.6968 14.0724L29.7239 23.6077C29.6498 23.8545 29.5634 24.0149 29.4648 24.0889C29.3662 24.1628 29.2057 24.2123 28.9961 24.2123H27.9352C27.7008 24.2123 27.5405 24.1751 27.4419 24.0889C27.3431 24.0024 27.2568 23.8421 27.2075 23.5954L25.2954 15.639L23.3958 23.583C23.3341 23.8298 23.2601 23.9901 23.1614 24.0765C23.0626 24.1628 22.8899 24.1999 22.6679 24.1999H21.6071ZM37.4583 24.5329C36.8169 24.5329 36.1754 24.4588 35.5586 24.3109C34.9419 24.1628 34.4608 24.0024 34.1399 23.8174C33.9427 23.7064 33.8069 23.583 33.7576 23.472C33.7096 23.3631 33.6844 23.2456 33.6836 23.1266V22.4976C33.6836 22.2384 33.7822 22.1151 33.9673 22.1151C34.0414 22.1151 34.1154 22.1274 34.1893 22.1522C34.2633 22.1767 34.3743 22.2261 34.4977 22.2756C34.9334 22.4671 35.3883 22.6118 35.8546 22.7072C36.3378 22.8053 36.8295 22.8549 37.3226 22.8553C38.0998 22.8553 38.7041 22.7196 39.1235 22.4482C39.5429 22.1768 39.7649 21.7821 39.7649 21.2764C39.7649 20.931 39.6539 20.6471 39.4319 20.4127C39.2099 20.1784 38.7905 19.9687 38.186 19.7713L36.3974 19.2163C35.4969 18.9326 34.8307 18.5132 34.4236 17.9582C34.0166 17.4154 33.8069 16.8107 33.8069 16.1694C33.8069 15.6514 33.9179 15.195 34.1399 14.8001C34.3619 14.4054 34.658 14.0601 35.0281 13.7888C35.3983 13.5049 35.8177 13.2952 36.311 13.1471C36.8045 12.999 37.3226 12.9375 37.8654 12.9375C38.1367 12.9375 38.4204 12.9499 38.6919 12.9868C38.9756 13.0238 39.2345 13.0731 39.4936 13.1226C39.7404 13.1842 39.9748 13.2459 40.1968 13.32C40.4188 13.3939 40.5914 13.4679 40.7148 13.542C40.8875 13.6406 41.0109 13.7392 41.0849 13.8502C41.1589 13.949 41.1959 14.0848 41.1959 14.2575V14.8373C41.1959 15.0962 41.0973 15.2319 40.9123 15.2319C40.8134 15.2319 40.6531 15.1826 40.4435 15.0838C39.7404 14.7632 38.9509 14.6029 38.075 14.6029C37.3719 14.6029 36.8169 14.7139 36.4344 14.9482C36.0519 15.1826 35.8546 15.5404 35.8546 16.0461C35.8546 16.3914 35.978 16.6875 36.2248 16.9219C36.4715 17.1562 36.9279 17.3906 37.5817 17.6002L39.3333 18.1553C40.2213 18.4391 40.8629 18.8338 41.2453 19.3397C41.6276 19.8456 41.8126 20.4251 41.8126 21.0666C41.8126 21.597 41.7016 22.0781 41.492 22.4976C41.27 22.917 40.9739 23.2869 40.5914 23.583C40.2091 23.8914 39.7526 24.1134 39.2223 24.2739C38.6671 24.4466 38.0874 24.5329 37.4583 24.5329Z" fill="white"/>
<path fill-rule="evenodd" clip-rule="evenodd" d="M39.7898 30.528C35.7314 33.5255 29.8351 35.1169 24.7651 35.1169C17.66 35.1169 11.2576 32.4892 6.42215 28.1225C6.03965 27.7772 6.38522 27.3084 6.84159 27.5797C12.0719 30.6142 18.5234 32.4523 25.1969 32.4523C29.6993 32.4523 34.646 31.5148 39.1977 29.5905C39.8761 29.282 40.4558 30.0345 39.7898 30.528Z" fill="#FF9900"/>
<path fill-rule="evenodd" clip-rule="evenodd" d="M41.4799 28.6037C40.9618 27.9375 38.0507 28.2829 36.7307 28.4432C36.336 28.4927 36.2743 28.1471 36.632 27.8882C38.951 26.2599 42.7627 26.7287 43.2069 27.2713C43.6509 27.8265 43.0835 31.6382 40.9125 33.4639C40.5793 33.7476 40.2587 33.5994 40.4066 33.2295C40.9001 32.0083 41.9979 29.2573 41.4799 28.6037Z" fill="#FF9900"/>
</svg>
