<svg width="49" height="48" viewBox="0 0 49 48" fill="none" xmlns="http://www.w3.org/2000/svg">
<path d="M42.8972 9.79838L27.7453 0.80325C26.8606 0.278275 25.851 0.000840989 24.8222 0C23.8142 0 22.8024 0.268875 21.8987 0.807L6.74344 9.8025C4.93631 10.8746 3.82031 12.8584 3.82031 15.0068V32.9974C3.82031 35.1457 4.93294 37.1295 6.74381 38.2016L21.8953 47.1968C22.7793 47.7234 23.7894 48.001 24.8184 48C25.8473 47.9992 26.8571 47.7218 27.7419 47.1968L42.8972 38.2016C44.7043 37.1291 45.8207 35.1416 45.8207 32.9974V15.0026C45.8207 12.8584 44.7081 10.8705 42.8972 9.79838ZM31.1634 37.8885L31.1871 39.1815C31.1871 39.3382 31.0869 39.5149 30.9666 39.579L30.1993 40.0208C30.0789 40.0807 29.9743 40.0088 29.9743 39.852L29.9623 38.5793C29.3079 38.8522 28.6412 38.9168 28.2197 38.748C28.1394 38.7158 28.1034 38.5991 28.1353 38.463L28.4124 37.2941C28.4364 37.2019 28.4848 37.1092 28.5489 37.053C28.5699 37.0316 28.5944 37.014 28.6213 37.0009C28.6652 36.9769 28.7094 36.9728 28.7458 36.9889C29.2033 37.1415 29.7857 37.0691 30.3478 36.7882C31.0629 36.4268 31.5403 35.6959 31.5328 34.9733C31.5246 34.3144 31.1713 34.0455 30.3077 34.0373C29.2074 34.041 28.1796 33.8246 28.1634 32.202C28.1514 30.8689 28.8422 29.4795 29.9424 28.6039L29.9304 27.2989C29.9304 27.1384 30.0268 26.9614 30.1513 26.8976L30.8938 26.4236C31.0146 26.3632 31.1188 26.4394 31.1188 26.5961L31.1312 27.9011C31.6772 27.6844 32.1512 27.6244 32.5806 27.7249C32.6732 27.7485 32.7171 27.8771 32.6769 28.0256L32.3882 29.1821C32.3649 29.2701 32.3192 29.3504 32.2554 29.4154C32.2332 29.438 32.2075 29.457 32.1793 29.4716C32.1388 29.4915 32.1028 29.4956 32.0668 29.4915C31.8699 29.4472 31.4042 29.3471 30.6692 29.7165C29.8982 30.1058 29.6293 30.7766 29.6331 31.2746C29.6413 31.869 29.9424 32.0494 30.9943 32.0659C32.3961 32.0895 32.9983 32.7 33.0144 34.1096C33.0343 35.4911 32.2959 36.981 31.1634 37.8885ZM41.7407 13.5934L27.4041 22.4475C25.6172 23.4915 24.2998 24.6641 24.2961 26.8208V44.4859C24.2961 45.7747 24.8181 46.6102 25.6172 46.8551C25.3547 46.9023 25.0888 46.9279 24.8222 46.9316C23.9826 46.9316 23.1553 46.7029 22.4286 46.2728L7.27744 37.278C5.79581 36.3986 4.87631 34.7561 4.87631 32.9933V15.0026C4.87631 13.2401 5.79581 11.5976 7.27744 10.7179L22.4331 1.72275C23.1576 1.29321 23.984 1.06581 24.8263 1.06425C25.6656 1.06425 26.4928 1.293 27.2196 1.72275L42.3752 10.7179C43.6239 11.4607 44.4673 12.7418 44.7039 14.1836C44.1939 13.1111 43.0614 12.8224 41.7407 13.5934Z" fill="white"/>
<path d="M38.9258 34.7321L35.151 36.9889C35.0505 37.0489 34.9785 37.1134 34.9785 37.2338V38.2219C34.9785 38.3419 35.0588 38.3944 35.1589 38.3344L38.9899 36.0049C39.0904 35.9449 39.1061 35.8361 39.1061 35.7161V34.8446C39.1061 34.7239 39.0263 34.6759 38.9258 34.7321Z" fill="black"/>
</svg>
