<svg width="48" height="48" viewBox="0 0 48 48" fill="none" xmlns="http://www.w3.org/2000/svg">
<path d="M42.5374 48C41.0352 48 39.7454 47.4585 38.6681 46.3754C37.6059 45.2769 37.0748 43.9617 37.0748 42.43C37.0748 40.9137 37.6059 39.614 38.6681 38.531C39.7454 37.4479 41.0352 36.9064 42.5374 36.9064C43.9941 36.9064 45.2687 37.4479 46.3612 38.531C47.4537 39.614 48 40.9137 48 42.43C48 43.4511 47.7421 44.3872 47.2262 45.2382C46.7254 46.0737 46.0653 46.7468 45.2459 47.2573C44.4265 47.7525 43.5237 48 42.5374 48Z" fill="#4EACFF"/>
<path d="M0 47.5309V0H18.664C22.0933 0 24.9536 0.518322 27.2448 1.55497C29.5361 2.59161 31.2583 4.03054 32.4116 5.87174C33.5648 7.69747 34.1414 9.80171 34.1414 12.1844C34.1414 14.0411 33.7772 15.6734 33.0489 17.0814C32.3205 18.4739 31.319 19.6189 30.0444 20.5163C28.785 21.3982 27.3435 22.0248 25.7199 22.3962V22.8603C27.4952 22.9377 29.1568 23.4483 30.7045 24.3921C32.2674 25.3359 33.5344 26.6588 34.5056 28.3607C35.4767 30.0472 35.9623 32.0586 35.9623 34.3949C35.9623 36.9169 35.3477 39.1682 34.1186 41.1486C32.9047 43.1136 31.1066 44.6686 28.7243 45.8135C26.342 46.9585 23.4058 47.5309 19.9158 47.5309H0ZM9.85548 39.3151H17.8901C20.6366 39.3151 22.6395 38.7813 23.899 37.7137C25.1584 36.6307 25.7881 35.1918 25.7881 33.397C25.7881 32.0818 25.4771 30.9214 24.8549 29.9157C24.2328 28.91 23.3451 28.1209 22.1919 27.5484C21.0539 26.976 19.6958 26.6897 18.1177 26.6897H9.85548V39.3151ZM9.85548 19.8897H17.1617C18.5122 19.8897 19.711 19.6498 20.758 19.1702C21.8201 18.6751 22.6547 17.9788 23.2617 17.0814C23.8838 16.184 24.1949 15.1087 24.1949 13.8555C24.1949 12.138 23.5955 10.7533 22.3968 9.70114C21.2132 8.64902 19.5289 8.12296 17.3438 8.12296H9.85548V19.8897Z" fill="#EEF7FF"/>
</svg>
