<svg width="49" height="48" viewBox="0 0 49 48" fill="none" xmlns="http://www.w3.org/2000/svg">
<path d="M0.97998 2.5C0.97998 1.11929 2.09927 0 3.47998 0H46.48C47.8607 0 48.98 1.11929 48.98 2.5V45.5C48.98 46.8807 47.8607 48 46.48 48H3.47998C2.09927 48 0.97998 46.8807 0.97998 45.5V2.5Z" fill="#FFD53E"/>
<path d="M19.2433 8.43243L19.7687 8.76065V17.891C21.588 16.6739 23.7316 16.0329 25.9205 16.0515C29.162 16.0515 31.8478 17.1827 33.978 19.4452C36.0805 21.7085 37.1317 24.4969 37.1317 27.8102C37.1317 31.1382 36.0731 33.9261 33.9559 36.1738C31.8257 38.4363 29.1473 39.5676 25.9205 39.5676C23.1036 39.5676 20.6954 38.5604 18.6958 36.5462V39.0201H12.8281V9.15503L19.2433 8.43243ZM24.8048 21.9853C23.2567 21.9853 21.9646 22.5107 20.9284 23.5615C19.8923 24.6426 19.3743 26.0588 19.3743 27.8102C19.3743 29.5615 19.8923 30.9699 20.9284 32.0355C21.9507 33.101 23.2428 33.6337 24.8048 33.6337C26.4541 33.6337 27.7894 33.0794 28.8108 31.9706C29.8184 30.8757 30.3222 29.4889 30.3222 27.8102C30.3222 26.1315 29.811 24.7373 28.7888 23.6277C27.7682 22.5328 26.4402 21.9853 24.8048 21.9853Z" fill="#212121"/>
</svg>
