<svg width="49" height="48" viewBox="0 0 49 48" fill="none" xmlns="http://www.w3.org/2000/svg">
<path d="M24.9801 48C38.2349 48 48.9801 37.2548 48.9801 24C48.9801 10.7452 38.2349 0 24.9801 0C11.7253 0 0.980103 10.7452 0.980103 24C0.980103 37.2548 11.7253 48 24.9801 48Z" fill="url(#paint0_linear_19_707)"/>
<path d="M36.0651 21.7087C36.1111 21.66 36.1419 21.5988 36.1534 21.5327C36.165 21.4666 36.1569 21.3985 36.1301 21.337C36.1034 21.2755 36.0591 21.2232 36.0029 21.1866C35.9466 21.15 35.8809 21.1308 35.8138 21.1312H25.3063C24.6651 21.1312 24.7701 20.7862 24.9988 20.3662C25.2276 19.9425 31.0401 9.34125 31.0401 9.34125C31.0663 9.285 31.0813 9.22875 31.0813 9.165C31.0811 9.08513 31.0574 9.00709 31.0131 8.94065C30.9688 8.87421 30.9059 8.82232 30.8322 8.79149C30.7585 8.76066 30.6774 8.75226 30.599 8.76734C30.5205 8.78241 30.4483 8.8203 30.3913 8.87625L13.9176 25.2937C13.8463 25.3612 13.8051 25.4513 13.8051 25.5562C13.8051 25.755 13.9663 25.9162 14.1651 25.9162H25.4038C26.1088 25.9162 25.8576 26.3212 25.6851 26.5575C25.5126 26.7937 17.0038 38.5575 17.0038 38.5575C16.9563 38.6203 16.9273 38.6951 16.9199 38.7735C16.9126 38.852 16.9273 38.9309 16.9624 39.0014C16.9975 39.0719 17.0515 39.1312 17.1184 39.1727C17.1854 39.2142 17.2625 39.2362 17.3413 39.2362C17.4576 39.2362 17.5626 39.1912 17.6376 39.1162C17.7126 39.0412 36.0613 21.7237 36.0613 21.7237L36.0651 21.72L36.0726 21.7125L36.0651 21.7087Z" fill="white"/>
<defs>
<linearGradient id="paint0_linear_19_707" x1="24.9801" y1="0" x2="24.9801" y2="48" gradientUnits="userSpaceOnUse">
<stop stop-color="#7ACBD4"/>
<stop offset="1" stop-color="#29C6B7"/>
</linearGradient>
</defs>
</svg>
