<svg width="49" height="48" viewBox="0 0 49 48" fill="none" xmlns="http://www.w3.org/2000/svg">
<path d="M32.1937 26.4133C31.4537 26.415 30.7159 26.3345 29.9937 26.1733C30.4144 27.0829 30.7363 28.035 30.9537 29.0133H32.1937C33.5534 29.0117 34.9041 28.7911 36.1937 28.36L34.9537 25.9467C34.0593 26.2275 33.1307 26.3845 32.1937 26.4133ZM25.3004 23.8267L24.8204 23.32C23.7793 22.3022 22.9765 21.0667 22.4693 19.702C21.9622 18.3373 21.7633 16.8773 21.887 15.4267C22.0224 13.4835 22.7377 11.6256 23.9404 10.0933L23.8337 12C23.8323 12.3338 23.9562 12.6559 24.1809 12.9028C24.4055 13.1497 24.7146 13.3033 25.047 13.3333H25.167C25.5008 13.3347 25.8229 13.2108 26.0698 12.9862C26.3167 12.7615 26.4703 12.4524 26.5004 12.12L26.9537 6.66667C26.9697 6.47355 26.9433 6.27926 26.8765 6.09735C26.8098 5.91544 26.7041 5.75026 26.567 5.61334C26.4211 5.49511 26.2518 5.40905 26.0703 5.36079C25.8887 5.31254 25.6991 5.30318 25.5137 5.33334L20.0604 5.8C19.7067 5.83006 19.3795 5.99936 19.1507 6.27067C18.9219 6.54197 18.8103 6.89305 18.8404 7.24667C18.8704 7.60029 19.0397 7.92749 19.311 8.15629C19.5823 8.38508 19.9334 8.49673 20.287 8.46667L22.007 8.32C20.3874 10.3467 19.4328 12.8239 19.2737 15.4133C19.1359 17.1879 19.3826 18.9714 19.997 20.642C20.6114 22.3125 21.579 23.8308 22.8337 25.0933L23.247 25.5867C24.9508 27.3475 25.9311 29.684 25.9937 32.1333C26.0645 33.2428 25.9473 34.3563 25.647 35.4267L28.047 36.64C28.5619 35.1367 28.766 33.5445 28.647 31.96C28.5651 28.9305 27.3743 26.0365 25.3004 23.8267ZM44.0204 23.88L42.407 24C43.8792 22.0946 44.7872 19.8144 45.0277 17.4186C45.2682 15.0228 44.8316 12.6075 43.7676 10.4475C42.7036 8.28754 41.0548 6.46945 39.0088 5.20002C36.9627 3.93058 34.6015 3.26074 32.1937 3.26667C30.8335 3.2636 29.4822 3.48432 28.1937 3.92L29.407 6.32C30.9292 5.88891 32.5306 5.81685 34.0854 6.10949C35.6401 6.40213 37.1058 7.05149 38.3671 8.0065C39.6283 8.9615 40.6509 10.1961 41.3542 11.6132C42.0575 13.0303 42.4225 14.5913 42.4204 16.1733C42.4199 18.4596 41.6444 20.6781 40.2204 22.4667L40.3537 20.4133C40.3651 20.2382 40.3419 20.0626 40.2854 19.8965C40.2289 19.7304 40.1402 19.577 40.0244 19.4451C39.9087 19.3133 39.7681 19.2055 39.6107 19.128C39.4533 19.0505 39.2821 19.0047 39.107 18.9933C38.9319 18.982 38.7563 19.0052 38.5902 19.0617C38.4241 19.1182 38.2707 19.2068 38.1388 19.3226C38.007 19.4383 37.8992 19.5789 37.8217 19.7364C37.7442 19.8938 37.6984 20.0649 37.687 20.24L37.3137 25.68C37.3031 25.873 37.3346 26.0659 37.406 26.2455C37.4773 26.425 37.5869 26.587 37.727 26.72C37.8469 26.8416 37.9903 26.9375 38.1485 27.0017C38.3067 27.0659 38.4763 27.0971 38.647 27.0933H38.7803L44.2204 26.5333C44.3958 26.5167 44.5662 26.4654 44.7217 26.3825C44.8772 26.2996 45.0147 26.1867 45.1263 26.0503C45.2378 25.9139 45.3213 25.7568 45.3718 25.5879C45.4223 25.4191 45.4388 25.2419 45.4204 25.0667C45.3833 24.7272 45.2175 24.4149 44.957 24.1941C44.6965 23.9734 44.3613 23.8609 44.0204 23.88ZM6.24702 27.2533H6.35369L11.807 26.7867C11.9821 26.7718 12.1526 26.7226 12.3086 26.6418C12.4647 26.5611 12.6033 26.4503 12.7166 26.316C12.8299 26.1817 12.9156 26.0263 12.9689 25.8589C13.0222 25.6914 13.0419 25.5151 13.027 25.34C13.0121 25.1649 12.9629 24.9945 12.8822 24.8384C12.8014 24.6823 12.6907 24.5437 12.5564 24.4304C12.422 24.3171 12.2667 24.2314 12.0992 24.1781C11.9318 24.1249 11.7554 24.1051 11.5804 24.12L9.72702 24.28C11.4727 22.9922 13.5844 22.2961 15.7537 22.2933C16.4844 22.2987 17.2127 22.3791 17.927 22.5333C17.5079 21.6244 17.1904 20.672 16.9804 19.6933H15.7537C12.9089 19.6891 10.1428 20.6268 7.88702 22.36L8.04702 20.6133C8.0616 20.4381 8.04139 20.2618 7.98754 20.0944C7.93369 19.927 7.84728 19.772 7.73327 19.6381C7.61926 19.5043 7.47991 19.3943 7.32323 19.3146C7.16656 19.2348 6.99565 19.1868 6.82035 19.1733C6.4686 19.1438 6.11949 19.2549 5.84955 19.4823C5.57961 19.7098 5.41088 20.035 5.38035 20.3867L4.91368 25.8267C4.89893 26.0105 4.92248 26.1954 4.98285 26.3697C5.04321 26.544 5.13908 26.7039 5.2644 26.8392C5.38971 26.9746 5.54174 27.0824 5.71088 27.156C5.88001 27.2296 6.06257 27.2673 6.24702 27.2667V27.2533ZM25.3804 37.64L19.927 38C19.5734 38.023 19.2434 38.1855 19.0096 38.4518C18.7758 38.7181 18.6574 39.0664 18.6804 39.42C18.7033 39.7736 18.8659 40.1036 19.1322 40.3374C19.3985 40.5712 19.7467 40.6897 20.1004 40.6667L22.1537 40.52C20.6437 41.7336 18.8214 42.4959 16.897 42.7189C14.9726 42.9419 13.0243 42.6166 11.2767 41.7804C9.52918 40.9443 8.05346 39.6313 7.01967 37.9929C5.98588 36.3545 5.43609 34.4573 5.43369 32.52C5.44329 31.6179 5.57333 30.7211 5.82035 29.8533L3.48702 28.6133C3.07417 29.8837 2.86272 31.2109 2.86035 32.5467C2.876 34.9614 3.56734 37.3235 4.85611 39.3655C6.14489 41.4076 7.97961 43.0481 10.1526 44.1013C12.3256 45.1545 14.75 45.5783 17.1514 45.3247C19.5528 45.0712 21.8352 44.1504 23.7404 42.6667L23.5804 44.24C23.5619 44.4142 23.5779 44.5904 23.6276 44.7584C23.6772 44.9265 23.7595 45.0831 23.8697 45.2193C23.9799 45.3555 24.1159 45.4687 24.2699 45.5523C24.4238 45.6359 24.5928 45.6884 24.767 45.7067H24.9137C25.2454 45.7083 25.5658 45.5863 25.8123 45.3644C26.0589 45.1425 26.2139 44.8367 26.247 44.5067L26.807 39.0933C26.8268 38.9004 26.8043 38.7055 26.7411 38.5222C26.6778 38.3389 26.5753 38.1716 26.4408 38.032C26.3062 37.8923 26.1428 37.7837 25.962 37.7137C25.7811 37.6437 25.5872 37.614 25.3937 37.6267L25.3804 37.64Z" fill="white"/>
</svg>
