<svg width="35" height="48" viewBox="0 0 35 48" fill="none" xmlns="http://www.w3.org/2000/svg">
<path d="M17.1591 47.8787L3.30669 44.0332L0.219666 9.40933H34.1401L31.0499 44.0278L17.1591 47.8787Z" fill="#264DE4"/>
<path d="M28.4044 41.8234L31.045 12.2403H17.1799V44.9352L28.4044 41.8234Z" fill="#2965F1"/>
<path d="M7.29655 25.0818L7.67709 29.3283H17.1799V25.0818H7.29655ZM6.53174 16.4869L6.91773 20.7333H17.1799V16.4869H6.53174ZM17.1799 36.1104L17.1613 36.1153L12.432 34.8383L12.1297 31.4516H7.86683L8.46171 38.1192L17.1603 40.5338L17.1799 40.5285V36.1104Z" fill="#EBEBEB"/>
<path d="M8.2027 0H13.3457V2.15083H10.3535V4.30165H13.346V6.45234H8.2027V0ZM14.3745 0H19.5177V1.87027H16.5253V2.2443H19.5177V6.54595H14.3746V4.58194H17.367V4.20791H14.3744L14.3745 0ZM20.5464 0H25.6896V1.87027H22.6972V2.2443H25.6896V6.54595H20.5464V4.58194H23.5388V4.20791H20.5465L20.5464 0Z" fill="white"/>
<path d="M27.0361 25.0818L27.8027 16.4869H17.1653V20.7333H23.1489L22.7625 25.0818H17.1653V29.3283H22.3944L21.9013 34.8356L17.1652 36.114V40.5318L25.8707 38.1192L25.9345 37.4017L26.9326 26.2221L27.0361 25.0818Z" fill="white"/>
</svg>
