<svg width="49" height="48" viewBox="0 0 49 48" fill="none" xmlns="http://www.w3.org/2000/svg">
<path d="M24.8736 38.61H15.5353V29.4458H24.8739L24.8736 38.61ZM15.5353 45.7991H8.46019V38.6093H15.5353V45.7991ZM8.46056 38.6093H2.51906V32.6876H8.46019L8.46056 38.6093ZM24.7333 47.9145V38.6093C34.6371 38.6093 42.2773 28.8818 38.4572 18.5888C37.0416 14.7825 34.0719 11.6813 30.1097 10.2709C19.9221 6.60639 10.1597 14.2185 10.1597 23.9464H0.820312C0.820312 8.43864 15.9591 -3.82761 32.5153 1.24764C39.7311 3.50402 45.3906 9.14327 47.6541 16.3339C52.7469 32.8283 40.4372 47.9141 24.7329 47.9141L24.7333 47.9145Z" fill="#0080FF"/>
</svg>
