<svg width="49" height="48" viewBox="0 0 49 48" fill="none" xmlns="http://www.w3.org/2000/svg">
<path d="M36.9102 0H11.4102C5.19695 0 0.160156 5.0368 0.160156 11.25V36.75C0.160156 42.9632 5.19695 48 11.4102 48H36.9102C43.1234 48 48.1602 42.9632 48.1602 36.75V11.25C48.1602 5.0368 43.1234 0 36.9102 0Z" fill="#5865F2"/>
<mask id="mask0_61_26727" style="mask-type:luminance" maskUnits="userSpaceOnUse" x="5" y="9" width="38" height="30">
<path d="M5.41016 9.5625H42.9102V38.6119H5.41016V9.5625Z" fill="white"/>
</mask>
<g mask="url(#mask0_61_26727)">
<path d="M37.1553 12.1495C34.724 11.0336 32.1583 10.2378 29.5224 9.78189C29.4984 9.77752 29.4737 9.78077 29.4517 9.7912C29.4297 9.80163 29.4115 9.81871 29.3997 9.84001C29.0701 10.4261 28.7049 11.1911 28.4493 11.7923C25.5669 11.3606 22.6994 11.3606 19.8762 11.7923C19.6205 11.1776 19.2421 10.4261 18.911 9.84001C18.8988 9.81905 18.8805 9.80227 18.8586 9.7919C18.8367 9.78152 18.8121 9.77803 18.7882 9.78189C16.1519 10.2367 13.5861 11.0326 11.1552 12.1495C11.1345 12.1585 11.117 12.1735 11.105 12.1926C6.24348 19.4556 4.91185 26.5401 5.5651 33.5368C5.56909 33.5714 5.58662 33.6029 5.61385 33.6246C8.82123 35.9801 11.9283 37.4102 14.9776 38.358C15.0013 38.365 15.0266 38.3647 15.0501 38.357C15.0736 38.3493 15.0943 38.3346 15.1092 38.3149C15.8305 37.3298 16.4735 36.2912 17.0249 35.199C17.0325 35.1841 17.0368 35.1677 17.0376 35.1509C17.0384 35.1341 17.0357 35.1174 17.0295 35.1018C17.0234 35.0862 17.014 35.0721 17.002 35.0603C16.99 35.0486 16.9756 35.0396 16.9599 35.0338C15.9399 34.6468 14.9688 34.1753 14.0347 33.6396C14.0177 33.6296 14.0034 33.6155 13.9931 33.5987C13.9828 33.5818 13.9768 33.5627 13.9756 33.543C13.9744 33.5233 13.9781 33.5036 13.9864 33.4856C13.9946 33.4677 14.0071 33.452 14.0229 33.4401C14.2199 33.2928 14.4136 33.141 14.6037 32.9848C14.6204 32.9711 14.6406 32.9623 14.6619 32.9594C14.6833 32.9565 14.7051 32.9596 14.7249 32.9683C20.8621 35.7703 27.5062 35.7703 33.5709 32.9683C33.5907 32.959 33.6127 32.9555 33.6344 32.9581C33.6561 32.9608 33.6767 32.9695 33.6937 32.9833C33.884 33.1403 34.0782 33.2926 34.276 33.4401C34.2918 33.4519 34.3045 33.4675 34.3128 33.4853C34.3212 33.5032 34.325 33.5229 34.324 33.5426C34.323 33.5623 34.3171 33.5814 34.307 33.5984C34.2968 33.6153 34.2826 33.6294 34.2657 33.6396C33.3311 34.1853 32.352 34.6512 31.339 35.0323C31.3233 35.0384 31.3091 35.0477 31.2972 35.0596C31.2854 35.0715 31.2761 35.0858 31.2701 35.1015C31.2641 35.1172 31.2615 35.134 31.2624 35.1508C31.2634 35.1676 31.2678 35.184 31.2755 35.199C31.8364 36.2826 32.4761 37.3235 33.1895 38.3134C33.2041 38.3336 33.2246 38.3487 33.2482 38.3567C33.2718 38.3647 33.2972 38.3652 33.3211 38.358C36.3852 37.4102 39.4923 35.9801 42.6999 33.6246C42.7136 33.6144 42.725 33.6015 42.7334 33.5866C42.7418 33.5718 42.747 33.5553 42.7486 33.5383C43.5305 25.4494 41.4389 18.4228 37.204 12.1941C37.1937 12.1738 37.1764 12.1579 37.1553 12.1495ZM17.9414 29.2766C16.0936 29.2766 14.5711 27.5803 14.5711 25.497C14.5711 23.4137 16.0642 21.7174 17.9414 21.7174C19.8333 21.7174 21.341 23.4287 21.3114 25.497C21.3114 27.5803 19.8185 29.2766 17.9414 29.2766ZM30.4019 29.2766C28.5541 29.2766 27.0318 27.5803 27.0318 25.497C27.0318 23.4137 28.5247 21.7174 30.4019 21.7174C32.2938 21.7174 33.8015 23.4287 33.772 25.497C33.772 27.5803 32.2938 29.2766 30.4019 29.2766Z" fill="white"/>
</g>
</svg>
