<svg width="49" height="48" viewBox="0 0 49 48" fill="none" xmlns="http://www.w3.org/2000/svg">
<path d="M37.5303 0H12.0303C5.81707 0 0.780273 5.0368 0.780273 11.25V36.75C0.780273 42.9632 5.81707 48 12.0303 48H37.5303C43.7435 48 48.7803 42.9632 48.7803 36.75V11.25C48.7803 5.0368 43.7435 0 37.5303 0Z" fill="#2396ED"/>
<path d="M27.2528 22.8981H31.1373V19.3836H27.2528V22.8981ZM22.6287 22.8981H26.513V19.3836H22.6287V22.8981ZM18.0968 22.8981H21.9813V19.3836H18.0968V22.8981ZM13.565 22.8981H17.3571V19.3836H13.5651L13.565 22.8981ZM8.94083 22.8981H12.8253V19.3836H8.94083V22.8981ZM13.5651 18.6437H17.357V15.1294H13.5651V18.6437ZM18.097 18.6437H21.9813V15.1294H18.0968L18.097 18.6437ZM22.6287 18.6437H26.513V15.1294H22.6287V18.6437ZM22.6287 14.3893H26.513V10.875H22.6287V14.3893ZM43.5303 21.3261C43.5303 21.3261 41.8655 19.7537 38.4436 20.3087C38.0736 17.6265 35.2066 16.0543 35.2066 16.0543C35.2066 16.0543 32.5246 19.2913 34.4667 22.8983C33.9119 23.1757 32.987 23.5457 31.5996 23.5457H6.1664C5.70383 25.3029 5.70384 36.9559 18.4668 36.9559C27.6228 36.9559 34.4667 32.7017 37.7037 24.9328C42.5129 25.3028 43.5303 21.3261 43.5303 21.3261Z" fill="white"/>
</svg>
