<svg width="49" height="48" viewBox="0 0 49 48" fill="none" xmlns="http://www.w3.org/2000/svg">
<path d="M44.4403 20.5C44.3203 20.42 43.3203 19.64 41.1603 19.64C40.6003 19.64 40.0403 19.7 39.4803 19.8C39.0603 17 36.7203 15.58 36.6203 15.52L36.0403 15.18L35.6803 15.72C35.2003 16.44 34.8203 17.26 34.6603 18.1C34.2603 19.7 34.5003 21.22 35.3203 22.52C34.3403 23.08 32.7403 23.22 32.4003 23.22H6.06031C5.38031 23.22 4.82031 23.78 4.82031 24.48C4.82031 26.78 5.18031 29.08 5.98031 31.24C6.88031 33.62 8.24031 35.38 9.98031 36.46C11.9403 37.66 15.1603 38.34 18.8203 38.34C20.4003 38.34 22.0403 38.2 23.6603 37.9C25.9003 37.5 28.0603 36.72 30.0403 35.58C31.6801 34.6423 33.1479 33.4316 34.3803 32C36.4803 29.66 37.7203 27 38.6203 24.7H39.0003C41.2803 24.7 42.7003 23.78 43.4803 23C44.0003 22.52 44.3803 21.94 44.6603 21.26L44.8203 20.78L44.4403 20.5ZM8.52031 22.48H12.0403C12.2003 22.48 12.3603 22.34 12.3603 22.16V19C12.3603 18.84 12.2203 18.68 12.0403 18.68H8.52031C8.34031 18.68 8.20031 18.82 8.20031 19V22.16C8.22031 22.34 8.34031 22.48 8.52031 22.48ZM13.3803 22.48H16.9003C17.0603 22.48 17.2203 22.34 17.2203 22.16V19C17.2203 18.84 17.0803 18.68 16.9003 18.68H13.3803C13.2003 18.68 13.0603 18.82 13.0603 19V22.16C13.0803 22.34 13.2003 22.48 13.3803 22.48ZM18.3203 22.48H21.8203C22.0203 22.48 22.1603 22.34 22.1603 22.16V19C22.1603 18.84 22.0403 18.68 21.8203 18.68H18.3203C18.1603 18.68 18.0203 18.82 18.0203 19V22.16C18.0203 22.34 18.1403 22.48 18.3203 22.48ZM23.2003 22.48H26.7403C26.9003 22.48 27.0403 22.34 27.0403 22.16V19C27.0403 18.84 26.9203 18.68 26.7403 18.68H23.2003C23.0403 18.68 22.9003 18.82 22.9003 19V22.16C22.9003 22.34 23.0403 22.48 23.2003 22.48ZM13.3803 18H16.9003C17.0603 18 17.2203 17.82 17.2203 17.64V14.5C17.2203 14.32 17.0803 14.18 16.9003 14.18H13.3803C13.2003 14.18 13.0603 14.3 13.0603 14.5V17.64C13.0803 17.82 13.2003 18 13.3803 18ZM18.3203 18H21.8203C22.0203 18 22.1603 17.82 22.1603 17.64V14.5C22.1603 14.32 22.0403 14.18 21.8203 14.18H18.3203C18.1603 14.18 18.0203 14.3 18.0203 14.5V17.64C18.0203 17.82 18.1403 18 18.3203 18ZM23.2003 18H26.7403C26.9003 18 27.0403 17.82 27.0403 17.64V14.5C27.0403 14.32 26.9003 14.18 26.7403 14.18H23.2003C23.0403 14.18 22.9003 14.3 22.9003 14.5V17.64C22.9003 17.82 23.0403 18 23.2003 18ZM23.2003 13.44H26.7403C26.9003 13.44 27.0403 13.3 27.0403 13.12V10C27.0403 9.8 26.9003 9.66 26.7403 9.66H23.2003C23.0403 9.66 22.9003 9.78 22.9003 10V13.12C22.9003 13.28 23.0403 13.44 23.2003 13.44ZM28.1203 22.48H31.6403C31.8203 22.48 31.9603 22.34 31.9603 22.16V19C31.9603 18.84 31.8203 18.68 31.6403 18.68H28.1203C27.9603 18.68 27.8203 18.82 27.8203 19V22.16C27.8203 22.34 27.9603 22.48 28.1203 22.48Z" fill="#0288D1"/>
<path d="M37.5703 0H12.0703C5.85711 0 0.820312 5.0368 0.820312 11.25V36.75C0.820312 42.9632 5.85711 48 12.0703 48H37.5703C43.7835 48 48.8203 42.9632 48.8203 36.75V11.25C48.8203 5.0368 43.7835 0 37.5703 0Z" fill="#2396ED"/>
<path d="M27.2929 22.8981H31.1773V19.3836H27.2929V22.8981ZM22.6687 22.8981H26.553V19.3836H22.6687V22.8981ZM18.1369 22.8981H22.0213V19.3836H18.1369V22.8981ZM13.605 22.8981H17.3972V19.3836H13.6052L13.605 22.8981ZM8.98087 22.8981H12.8653V19.3836H8.98087V22.8981ZM13.6052 18.6437H17.397V15.1294H13.6052V18.6437ZM18.1371 18.6437H22.0213V15.1294H18.1369L18.1371 18.6437ZM22.6687 18.6437H26.553V15.1294H22.6687V18.6437ZM22.6687 14.3893H26.553V10.875H22.6687V14.3893ZM43.5703 21.3261C43.5703 21.3261 41.9055 19.7537 38.4836 20.3087C38.1137 17.6265 35.2466 16.0543 35.2466 16.0543C35.2466 16.0543 32.5646 19.2913 34.5067 22.8983C33.9519 23.1757 33.027 23.5457 31.6397 23.5457H6.20644C5.74387 25.3029 5.74387 36.9559 18.5068 36.9559C27.6628 36.9559 34.5067 32.7017 37.7437 24.9328C42.5529 25.3028 43.5703 21.3261 43.5703 21.3261Z" fill="white"/>
</svg>
