<svg width="49" height="48" viewBox="0 0 49 48" fill="none" xmlns="http://www.w3.org/2000/svg">
<path d="M37.73 0H12.23C6.01678 0 0.97998 5.0368 0.97998 11.25V36.75C0.97998 42.9632 6.01678 48 12.23 48H37.73C43.9432 48 48.98 42.9632 48.98 36.75V11.25C48.98 5.0368 43.9432 0 37.73 0Z" fill="#2B2E3A"/>
<path d="M19.8739 13.2698C14.998 12.3818 11.1426 13.3112 9.60604 15.9726C8.45948 17.9586 8.78723 20.5916 10.401 23.4062C10.441 23.4793 10.4987 23.5413 10.5687 23.5865C10.6387 23.6317 10.7189 23.6587 10.802 23.6651C10.8851 23.6714 10.9684 23.6569 11.0445 23.6229C11.1206 23.5889 11.187 23.5365 11.2377 23.4703C11.278 23.4174 11.3074 23.3569 11.3241 23.2924C11.3409 23.228 11.3445 23.1608 11.335 23.0949C11.3252 23.0291 11.3026 22.9658 11.2684 22.9087C9.81491 20.3734 9.53198 18.1011 10.4721 16.4726C11.7486 14.2618 15.1874 13.4327 19.6947 14.2536C19.8242 14.2751 19.957 14.2449 20.0644 14.1694C20.1718 14.0938 20.2452 13.9791 20.2688 13.8499C20.2923 13.7207 20.2641 13.5875 20.1902 13.4789C20.1163 13.3704 20.0027 13.2953 19.8739 13.2698ZM12.9366 26.8273C14.9082 28.9939 17.4696 31.0262 20.3909 32.7126C27.4639 36.7963 34.9939 37.8877 38.7049 35.3574C38.7605 35.321 38.8082 35.2739 38.8453 35.2188C38.8824 35.1637 38.9081 35.1018 38.9209 35.0366C38.9405 34.9385 38.9302 34.8368 38.8912 34.7446C38.8523 34.6525 38.7865 34.5742 38.7025 34.5199C38.6186 34.4654 38.5202 34.4374 38.4202 34.4394C38.3202 34.4415 38.2231 34.4735 38.1415 34.5313C34.8201 36.7959 27.6674 35.7591 20.8909 31.8467C18.057 30.2106 15.5766 28.2426 13.6763 26.1542C13.6321 26.1054 13.5788 26.0657 13.5193 26.0375C13.4598 26.0094 13.3953 25.9932 13.3296 25.9899C13.2638 25.9866 13.1981 25.9964 13.1361 26.0186C13.0741 26.0408 13.0171 26.075 12.9684 26.1193C12.9197 26.1637 12.8802 26.2172 12.8523 26.2768C12.8243 26.3364 12.8084 26.401 12.8055 26.4668C12.8026 26.5325 12.8127 26.5982 12.8352 26.6601C12.8577 26.722 12.8921 26.7788 12.9366 26.8273Z" fill="#9FEAF9"/>
<path d="M37.5211 26.2191C40.7138 22.4473 41.8285 18.6538 40.2951 15.9981C39.167 14.0438 36.7818 13.012 33.6117 12.9707C33.5137 12.9708 33.4179 12.9996 33.3361 13.0537C33.2544 13.1078 33.1904 13.1847 33.152 13.2749C33.1136 13.3651 33.1026 13.4646 33.1204 13.561C33.1381 13.6574 33.1838 13.7464 33.2517 13.8171C33.3428 13.9118 33.4674 13.967 33.5988 13.9706C36.4497 14.0078 38.5047 14.8967 39.4293 16.4981C40.7028 18.7041 39.7086 22.087 36.7578 25.573C36.7144 25.6229 36.6814 25.681 36.6607 25.7438C36.64 25.8067 36.632 25.873 36.6372 25.939C36.6423 26.005 36.6605 26.0691 36.6906 26.128C36.7206 26.1869 36.762 26.2393 36.8125 26.2821C36.863 26.3249 36.9215 26.3571 36.9846 26.377C37.0478 26.397 37.1142 26.4043 37.18 26.3983C37.2459 26.3923 37.3099 26.3735 37.3685 26.3428C37.4271 26.3121 37.4789 26.2701 37.5211 26.2191ZM29.3159 13.4363C26.4291 14.0548 23.3564 15.2642 20.4055 16.9678C13.1039 21.1834 8.34083 27.3996 9.00233 31.9069C9.01107 31.9725 9.03277 32.0357 9.06619 32.0929C9.0996 32.15 9.14406 32.1999 9.19696 32.2397C9.27651 32.2999 9.37227 32.3348 9.47187 32.34C9.57148 32.3451 9.67034 32.3203 9.75571 32.2688C9.81245 32.2347 9.86185 32.1897 9.90103 32.1364C9.94021 32.083 9.96838 32.0224 9.9839 31.9581C9.99934 31.8937 10.002 31.827 9.99177 31.7616C9.40433 27.7596 13.9193 21.8674 20.9056 17.8339C23.7681 16.1811 26.7434 15.0101 29.5253 14.4141C29.6068 14.3979 29.683 14.3617 29.747 14.3087C29.811 14.2558 29.8608 14.1877 29.8919 14.1107C29.923 14.0337 29.9345 13.9502 29.9253 13.8676C29.9161 13.7851 29.8865 13.7061 29.8392 13.6378C29.8012 13.5834 29.7528 13.5371 29.6968 13.5015C29.6408 13.4659 29.5783 13.4418 29.513 13.4305C29.4475 13.4195 29.3806 13.4214 29.3159 13.4363Z" fill="#9FEAF9"/>
<path d="M17.4867 35.0316C19.1562 39.6928 21.8872 42.5629 24.958 42.5629C27.1977 42.5629 29.2698 41.0361 30.8857 38.3483C30.9206 38.2919 30.944 38.2292 30.9545 38.1638C30.9651 38.0984 30.9625 38.0315 30.947 37.9671C30.9316 37.9026 30.9035 37.8418 30.8643 37.7882C30.8251 37.7347 30.7756 37.6896 30.7188 37.6554C30.6619 37.6212 30.5988 37.5987 30.5332 37.5892C30.4676 37.5798 30.4007 37.5835 30.3365 37.6001C30.2723 37.6167 30.2121 37.6459 30.1593 37.6858C30.1064 37.7258 30.062 37.7758 30.0286 37.833C28.5764 40.2486 26.7927 41.5628 24.958 41.5628C22.4071 41.5628 19.9713 39.003 18.4284 34.6946C18.4073 34.6315 18.3738 34.5733 18.3299 34.5233C18.286 34.4733 18.2325 34.4326 18.1726 34.4036C18.0825 34.3597 17.9813 34.3439 17.882 34.3583C17.7828 34.3728 17.6903 34.4168 17.6165 34.4846C17.5675 34.5297 17.528 34.5839 17.5002 34.6444C17.4724 34.7048 17.4568 34.7701 17.4545 34.8366C17.4522 34.9031 17.4631 34.9695 17.4867 35.0316ZM32.7346 34.1198C33.599 31.3583 34.063 28.1726 34.063 24.8529C34.063 16.5694 31.1637 9.42863 27.0342 7.59507C26.9136 7.54454 26.778 7.54329 26.6564 7.59157C26.5349 7.63986 26.4371 7.73385 26.384 7.85339C26.3309 7.97292 26.3268 8.1085 26.3725 8.23104C26.4182 8.35359 26.5101 8.45335 26.6285 8.50894C30.3115 10.1445 33.0629 16.9213 33.0629 24.8529C33.0629 28.0736 32.6135 31.1586 31.7804 33.8211C31.7493 33.9159 31.7472 34.0179 31.7745 34.1139C31.8018 34.2099 31.8571 34.2956 31.9334 34.3599C32.0099 34.424 32.1038 34.4638 32.203 34.4743C32.3022 34.4848 32.4023 34.4654 32.4905 34.4186C32.549 34.3875 32.6007 34.345 32.6426 34.2937C32.6845 34.2424 32.7157 34.1833 32.7346 34.1198ZM42.1516 33.63C42.1516 32.3083 41.0802 31.2369 39.7585 31.2369C38.4369 31.2369 37.3655 32.3083 37.3655 33.63C37.3655 34.9517 38.4369 36.0231 39.7585 36.0231C41.0802 36.0231 42.1516 34.9517 42.1516 33.63ZM41.1517 33.63C41.1517 33.813 41.1157 33.9941 41.0455 34.1631C40.9756 34.3322 40.8731 34.4858 40.7437 34.6152C40.6143 34.7446 40.4607 34.8473 40.2916 34.9172C40.0799 35.0048 39.8499 35.0388 39.622 35.0163C39.394 34.9938 39.1751 34.9154 38.9847 34.7881C38.7942 34.6609 38.6381 34.4886 38.5301 34.2866C38.422 34.0846 38.3655 33.8591 38.3654 33.63C38.3656 33.3545 38.4474 33.0853 38.6005 32.8563C38.7536 32.6273 38.9711 32.4488 39.2256 32.3434C39.4801 32.238 39.7602 32.2104 40.0303 32.264C40.3005 32.3177 40.5488 32.4502 40.7437 32.6449C40.873 32.7743 40.9756 32.9278 41.0456 33.0969C41.1156 33.2659 41.1517 33.4471 41.1517 33.63ZM10.123 36.0231C11.4449 36.0231 12.5163 34.9517 12.5163 33.63C12.5163 32.3083 11.4447 31.2369 10.123 31.2369C8.80136 31.2369 7.72998 32.3083 7.72998 33.63C7.72998 34.9517 8.80154 36.0231 10.123 36.0231ZM10.123 35.0231C9.84754 35.0231 9.57824 34.9413 9.34919 34.7882C9.12013 34.6351 8.94161 34.4176 8.83617 34.163C8.73074 33.9085 8.70313 33.6284 8.75684 33.3582C8.81055 33.088 8.94316 32.8397 9.13792 32.6449C9.33278 32.4501 9.58102 32.3175 9.85123 32.2638C10.1215 32.2101 10.4015 32.2377 10.6561 32.3431C10.9106 32.4486 11.1282 32.6271 11.2812 32.8561C11.4343 33.0852 11.5161 33.3545 11.5162 33.63C11.5162 33.9995 11.3694 34.3538 11.1081 34.6151C10.8469 34.8764 10.4925 35.0231 10.123 35.0231Z" fill="#9FEAF9"/>
<path d="M24.958 10.0361C26.2797 10.0361 27.3511 8.96475 27.3511 7.64306C27.3511 6.32138 26.2797 5.25 24.958 5.25C23.6363 5.25 22.5649 6.32138 22.5649 7.64306C22.5649 8.96475 23.6363 10.0361 24.958 10.0361ZM24.958 9.03619C24.5885 9.03619 24.2341 8.8894 23.9728 8.62812C23.7116 8.36684 23.5648 8.01247 23.5648 7.64297C23.5648 7.27346 23.7116 6.91909 23.9728 6.65781C24.2341 6.39654 24.5885 6.24975 24.958 6.24975C25.3275 6.24975 25.6819 6.39654 25.9432 6.65781C26.2044 6.91909 26.3512 7.27346 26.3512 7.64297C26.3512 8.01247 26.2044 8.36684 25.9432 8.62812C25.6819 8.8894 25.3275 9.03619 24.958 9.03619ZM25.3234 26.5453C24.3888 26.7472 23.4679 26.1532 23.2656 25.2186C23.2176 24.9963 23.2138 24.7668 23.2545 24.5431C23.2951 24.3194 23.3795 24.1058 23.5027 23.9147C23.6259 23.7236 23.7855 23.5587 23.9725 23.4293C24.1595 23.2998 24.3701 23.2085 24.5924 23.1606C25.5271 22.9586 26.4479 23.5526 26.6504 24.4873C26.8523 25.422 26.2583 26.343 25.3234 26.5453Z" fill="#9FEAF9"/>
</svg>
