<svg width="49" height="48" viewBox="0 0 49 48" fill="none" xmlns="http://www.w3.org/2000/svg">
<rect x="0.5" width="48" height="48" rx="10" fill="#0C0C0C"/>
<path d="M41 32.4886C40.5342 32.6685 40.0203 32.668 39.5549 32.487C39.0895 32.3061 38.7048 31.9573 38.4733 31.5063L33.8733 24.997L33.2067 24.087L27.8693 31.5144C27.652 31.9467 27.2882 32.2832 26.846 32.461C26.4038 32.6388 25.9135 32.6457 25.4667 32.4804L32.344 23.0392L25.9467 14.5108C26.4067 14.3412 26.9097 14.3389 27.3712 14.5044C27.8326 14.6699 28.2242 14.9931 28.48 15.4195L33.248 22.0092L38.0427 15.4467C38.2617 15.0221 38.6256 14.6947 39.0651 14.5267C39.5047 14.3586 39.9892 14.3617 40.4267 14.5354L37.944 17.9066L34.5813 22.3857C34.488 22.471 34.4132 22.5754 34.3621 22.6923C34.3109 22.8091 34.2845 22.9357 34.2845 23.0638C34.2845 23.1918 34.3109 23.3184 34.3621 23.4353C34.4132 23.5522 34.488 23.6566 34.5813 23.7419L40.9867 32.4899L41 32.4886ZM9.00268 22.9219L9.56268 20.0909C11.1013 14.4931 17.3733 12.1642 21.688 15.6296C24.2147 17.661 24.8453 20.5371 24.7213 23.7787H10.488C10.2574 29.5675 14.34 33.063 19.56 31.2771C20.4061 30.9652 21.1634 30.4435 21.7642 29.7587C22.365 29.074 22.7905 28.2475 23.0027 27.3532C23.2787 26.4446 23.7333 26.2891 24.568 26.551C24.4286 27.6593 24.0456 28.7208 23.4477 29.6559C22.8498 30.5909 22.0526 31.3752 21.116 31.9497C19.5687 32.8162 17.7931 33.1597 16.0434 32.9311C14.2937 32.7024 12.6595 31.9134 11.3747 30.6767C10.1045 29.2131 9.3366 27.3647 9.18802 25.4132C9.18802 25.0925 9.08135 24.7924 9.00935 24.5045C9.00285 23.9775 8.99974 23.4504 9.00002 22.9233L9.00268 22.9219ZM10.5053 22.5317H23.3773C23.2973 18.335 20.7093 15.3581 17.2573 15.3308C13.4147 15.2762 10.6653 18.1877 10.496 22.5126L10.5053 22.5317Z" fill="white"/>
</svg>
