<svg width="49" height="48" viewBox="0 0 49 48" fill="none" xmlns="http://www.w3.org/2000/svg">
<path d="M18.5 6H24.5V18H18.5C16.9087 18 15.3826 17.3679 14.2574 16.2426C13.1321 15.1174 12.5 13.5913 12.5 12C12.5 10.4087 13.1321 8.88258 14.2574 7.75736C15.3826 6.63214 16.9087 6 18.5 6Z" fill="#F4511E"/>
<path d="M30.5 18H24.5V6H30.5C32.0913 6 33.6174 6.63214 34.7426 7.75736C35.8679 8.88258 36.5 10.4087 36.5 12C36.5 13.5913 35.8679 15.1174 34.7426 16.2426C33.6174 17.3679 32.0913 18 30.5 18Z" fill="#FF8A65"/>
<path d="M24.5 24C24.5 27.3137 27.1863 30 30.5 30C33.8137 30 36.5 27.3137 36.5 24C36.5 20.6863 33.8137 18 30.5 18C27.1863 18 24.5 20.6863 24.5 24Z" fill="#29B6F6"/>
<path d="M18.5 18H24.5V30H18.5C16.9087 30 15.3826 29.3679 14.2574 28.2426C13.1321 27.1174 12.5 25.5913 12.5 24C12.5 22.4087 13.1321 20.8826 14.2574 19.7574C15.3826 18.6321 16.9087 18 18.5 18Z" fill="#7C4DFF"/>
<path d="M18.5 30H24.5V36C24.5 37.5913 23.8679 39.1174 22.7426 40.2426C21.6174 41.3679 20.0913 42 18.5 42C16.9087 42 15.3826 41.3679 14.2574 40.2426C13.1321 39.1174 12.5 37.5913 12.5 36C12.5 34.4087 13.1321 32.8826 14.2574 31.7574C15.3826 30.6321 16.9087 30 18.5 30Z" fill="#00E676"/>
</svg>
