<svg width="49" height="48" viewBox="0 0 49 48" fill="none" xmlns="http://www.w3.org/2000/svg">
<path fill-rule="evenodd" clip-rule="evenodd" d="M28.9442 11.24C24.2134 10.7459 19.446 10.7091 14.7082 11.13L11.5442 11.412C10.2746 11.5259 9.08036 12.0643 8.15431 12.9402C7.22826 13.8162 6.6244 14.9787 6.44019 16.24C5.68725 21.386 5.68725 26.6141 6.44019 31.76C6.62482 33.0215 7.22907 34.184 8.15546 35.06C9.08185 35.9359 10.2763 36.4742 11.5462 36.588L14.7102 36.868C19.448 37.2896 24.2154 37.2535 28.9462 36.76L30.1622 36.632C31.3692 36.5054 32.5042 35.9961 33.4012 35.1786C34.2982 34.3611 34.9104 33.2782 35.1482 32.088L41.2422 35.324C41.461 35.4402 41.7051 35.5005 41.9529 35.4993C42.2006 35.4982 42.4442 35.4357 42.6619 35.3174C42.8796 35.1991 43.0646 35.0288 43.2004 34.8216C43.3362 34.6144 43.4186 34.3768 43.4402 34.13L43.4902 33.562C44.0455 27.1988 44.0455 20.7993 43.4902 14.436L43.4402 13.868C43.4184 13.6211 43.3359 13.3834 43.1998 13.1762C43.0638 12.9691 42.8785 12.7988 42.6606 12.6807C42.4426 12.5627 42.1988 12.5004 41.951 12.4996C41.7031 12.4988 41.4589 12.5594 41.2402 12.676L35.1482 15.912C34.9104 14.7219 34.2982 13.6389 33.4012 12.8214C32.5042 12.0039 31.3692 11.4946 30.1622 11.368L28.9442 11.24ZM14.9762 14.118C19.5203 13.7121 24.093 13.7476 28.6302 14.224L29.8462 14.352C30.4403 14.4149 30.9967 14.6737 31.4276 15.0876C31.8584 15.5014 32.1394 16.0469 32.2262 16.638C32.9422 21.52 32.9422 26.478 32.2262 31.362C32.1394 31.9531 31.8584 32.4986 31.4276 32.9125C30.9967 33.3263 30.4403 33.5851 29.8462 33.648L28.6302 33.776C24.093 34.2524 19.5203 34.2879 14.9762 33.882L11.8122 33.598C11.2142 33.5447 10.6516 33.2915 10.2151 32.8793C9.77866 32.4671 9.49369 31.92 9.40619 31.326C8.69533 26.4679 8.69533 21.5321 9.40619 16.674C9.49294 16.0796 9.77762 15.5317 10.2142 15.1191C10.6508 14.7065 11.2138 14.4531 11.8122 14.4L14.9762 14.118ZM35.5402 19.1C35.8382 22.36 35.8382 25.64 35.5402 28.9L40.6342 31.606C40.9985 26.5419 40.9985 21.4581 40.6342 16.394L35.5402 19.1Z" fill="white"/>
</svg>
