<svg width="49" height="48" viewBox="0 0 49 48" fill="none" xmlns="http://www.w3.org/2000/svg">
<path d="M42.0699 20.59L36.5639 17.424L36.5659 10.824L42.0719 13.988L42.0699 20.59ZM42.0679 27.77L36.5639 24.604V18.3L42.0699 21.464L42.0679 27.77ZM42.1199 35.03L36.5479 31.83L36.5499 25.524L42.1219 28.726L42.1199 35.03ZM27.8159 22.018L35.8119 17.422V11.12L27.8179 15.716L27.8159 22.018ZM22.8659 31.984L35.7799 24.562V18.256L22.8659 25.68V31.984ZM14.1799 44.27L35.8259 31.828V25.524L14.1819 37.964L14.1799 44.27ZM20.1599 48L14.6199 44.814L36.1879 32.412L41.7279 35.598L20.1599 48ZM7.88989 27.556L13.3959 30.72L13.3939 37.44L7.88789 34.276L7.88989 27.556ZM7.89189 20.376L13.3959 23.54V29.846L7.88789 26.68L7.89189 20.376ZM7.83989 13.152L13.4119 16.356L13.4099 22.662L7.83789 19.458L7.83989 13.152ZM22.1419 26.124L14.1479 30.72V37.024L22.1419 32.428V26.124ZM27.0939 16.158L14.1779 23.58V29.886L27.0919 22.462L27.0939 16.158ZM35.8099 3.854L14.1339 16.314V22.618L35.8099 10.158V3.854ZM30.0479 0L35.5879 3.186L13.7719 15.73L8.23189 12.544L30.0479 0Z" fill="#1D4ED8"/>
</svg>
