<svg width="49" height="48" viewBox="0 0 49 48" fill="none" xmlns="http://www.w3.org/2000/svg">
<g clip-path="url(#clip0_455_5)">
<path d="M19.7443 15L10.4486 33H1.9801L9.23907 18.9455C10.3643 16.7656 13.1714 15 15.51 15H19.7443ZM40.5116 19.5C40.5116 17.0138 42.4072 15 44.7459 15C47.0845 15 48.9801 17.0138 48.9801 19.5C48.9801 21.9862 47.0845 24 44.7459 24C42.4072 24 40.5116 21.9862 40.5116 19.5ZM21.3321 15H29.8006L20.5049 33H12.0364L21.3321 15ZM31.3335 15H39.802L32.545 29.0545C31.4198 31.2344 28.6107 33 26.2721 33H22.0378L31.3335 15Z" fill="#FFF42B"/>
</g>
<defs>
<clipPath id="clip0_455_5">
<rect width="48" height="48" fill="white" transform="translate(0.980103)"/>
</clipPath>
</defs>
</svg>
