<svg width="49" height="48" viewBox="0 0 49 48" fill="none" xmlns="http://www.w3.org/2000/svg">
<path d="M20.5781 4.24201L18.4901 6.33001L21.3551 9.19501L24.3551 12.195C25.0384 11.857 25.7966 11.699 26.558 11.7359C27.3195 11.7728 28.0589 12.0035 28.7062 12.406C29.3536 12.8085 29.8875 13.3697 30.2574 14.0362C30.6273 14.7028 30.821 15.4527 30.8201 16.215C30.8039 16.8953 30.6455 17.5646 30.3551 18.18L33.4451 21.18C34.2555 20.7118 35.2038 20.541 36.1266 20.6971C37.0494 20.8532 37.8888 21.3263 38.5001 22.035C38.9272 22.4446 39.265 22.9382 39.4922 23.4847C39.7194 24.0312 39.831 24.6188 39.8201 25.2105C39.821 26.3921 39.3603 27.5273 38.5361 28.374C38.1214 28.8071 37.6217 29.1498 37.0682 29.3806C36.5148 29.6113 35.9196 29.7252 35.3201 29.715C34.727 29.7243 34.1382 29.6135 33.5891 29.3892C33.04 29.165 32.542 28.8319 32.1251 28.41C31.4187 27.7936 30.9486 26.9507 30.7953 26.0257C30.6421 25.1008 30.8152 24.1513 31.2851 23.34L28.2851 20.25C28.1335 20.3186 27.9783 20.3786 27.8201 20.43V30C28.6909 30.3102 29.4451 30.8811 29.9801 31.635C30.5261 32.3844 30.8202 33.2878 30.8201 34.215C30.8319 34.809 30.721 35.3991 30.4944 35.9483C30.2678 36.4975 29.9303 36.9941 29.5031 37.407C28.6862 38.2229 27.5854 38.6911 26.4311 38.7135C25.597 38.7396 24.7722 38.5317 24.0501 38.1134C23.328 37.6951 22.7374 37.0831 22.345 36.3466C21.9526 35.6101 21.7742 34.7785 21.8299 33.9458C21.8856 33.1132 22.1731 32.3127 22.6601 31.635C23.1951 30.8811 23.9492 30.3102 24.8201 30V20.43C23.9473 20.1233 23.1922 19.5517 22.6601 18.795C22.1122 18.0466 21.8179 17.1426 21.8201 16.215C21.8188 15.5326 21.9781 14.8595 22.2851 14.25L16.4351 8.40001L5.06659 19.758C4.50908 20.3151 4.06679 20.9766 3.76498 21.7046C3.46317 22.4327 3.30776 23.2131 3.30762 24.0012C3.30748 24.7893 3.46262 25.5698 3.76417 26.2979C4.06572 27.0261 4.50778 27.6877 5.06509 28.245L20.5781 43.758C21.7033 44.8828 23.2291 45.5147 24.8201 45.5147C26.4111 45.5147 27.9369 44.8828 29.0621 43.758L44.5781 28.242C45.7029 27.1168 46.3348 25.591 46.3348 24C46.3348 22.409 45.7029 20.8832 44.5781 19.758L29.0621 4.24201C27.9369 3.11718 26.4111 2.48529 24.8201 2.48529C23.2291 2.48529 21.7033 3.11718 20.5781 4.24201Z" fill="#E64A19"/>
</svg>
