<svg width="49" height="48" viewBox="0 0 49 48" fill="none" xmlns="http://www.w3.org/2000/svg">
<path d="M24.8203 4C22.1939 4 19.5932 4.51732 17.1666 5.52241C14.7401 6.5275 12.5353 8.00069 10.6782 9.85786C6.92745 13.6086 4.82031 18.6957 4.82031 24C4.82031 32.84 10.5603 40.34 18.5003 43C19.5003 43.16 19.8203 42.54 19.8203 42V38.62C14.2803 39.82 13.1003 35.94 13.1003 35.94C12.1803 33.62 10.8803 33 10.8803 33C9.06031 31.76 11.0203 31.8 11.0203 31.8C13.0203 31.94 14.0803 33.86 14.0803 33.86C15.8203 36.9 18.7603 36 19.9003 35.52C20.0803 34.22 20.6003 33.34 21.1603 32.84C16.7203 32.34 12.0603 30.62 12.0603 23C12.0603 20.78 12.8203 19 14.1203 17.58C13.9203 17.08 13.2203 15 14.3203 12.3C14.3203 12.3 16.0003 11.76 19.8203 14.34C21.4003 13.9 23.1203 13.68 24.8203 13.68C26.5203 13.68 28.2403 13.9 29.8203 14.34C33.6403 11.76 35.3203 12.3 35.3203 12.3C36.4203 15 35.7203 17.08 35.5203 17.58C36.8203 19 37.5803 20.78 37.5803 23C37.5803 30.64 32.9003 32.32 28.4403 32.82C29.1603 33.44 29.8203 34.66 29.8203 36.52V42C29.8203 42.54 30.1403 43.18 31.1603 43C39.1003 40.32 44.8203 32.84 44.8203 24C44.8203 21.3736 44.303 18.7728 43.2979 16.3463C42.2928 13.9198 40.8196 11.715 38.9624 9.85786C37.1053 8.00069 34.9005 6.5275 32.474 5.52241C30.0475 4.51732 27.4468 4 24.8203 4Z" fill="white"/>
</svg>
