<svg width="49" height="48" viewBox="0 0 49 48" fill="none" xmlns="http://www.w3.org/2000/svg">
<path d="M47.6034 19.2683L47.537 19.0988L41.1215 2.35576C40.9909 2.02755 40.7598 1.74912 40.4612 1.56039C40.1624 1.37483 39.814 1.28543 39.4628 1.30428C39.1117 1.32312 38.7748 1.4493 38.4977 1.66576C38.224 1.88873 38.0253 2.1903 37.9284 2.52976L33.5968 15.783H16.0562L11.7242 2.52976C11.63 2.18844 11.4308 1.88539 11.1549 1.66351C10.8778 1.44705 10.5409 1.32087 10.1897 1.30203C9.83858 1.28318 9.49012 1.37258 9.19141 1.55814C8.89349 1.74765 8.66253 2.02583 8.53103 2.35351L2.10353 19.089L2.03978 19.2585C0.142656 24.2156 1.75366 29.8305 5.99116 33.027L6.01328 33.0443L6.07216 33.0859L15.845 40.4044L20.6799 44.0636L23.6252 46.2874C23.9696 46.5491 24.3903 46.6908 24.8229 46.6908C25.2555 46.6908 25.6762 46.5491 26.0207 46.2874L28.9659 44.0636L33.8008 40.4044L43.6325 33.0416L43.6569 33.0221C47.8843 29.8249 49.4927 24.2201 47.6034 19.2683Z" fill="#E24329"/>
<path d="M47.6034 19.2683L47.5371 19.0988C44.411 19.7405 41.4653 21.0647 38.9102 22.9766L24.8203 33.6308C29.6184 37.2608 33.7956 40.4145 33.7956 40.4145L43.6273 33.0518L43.6517 33.0323C47.8858 29.8346 49.4964 24.2243 47.6034 19.2683Z" fill="#FC6D26"/>
<path d="M15.8452 40.4141L20.6801 44.0734L23.6253 46.2971C23.9698 46.5588 24.3905 46.7005 24.8231 46.7005C25.2557 46.7005 25.6764 46.5588 26.0208 46.2971L28.9661 44.0734L33.801 40.4141C33.801 40.4141 29.619 37.2506 24.8208 33.6304C21.8271 35.8892 18.8352 38.1504 15.8452 40.4141Z" fill="#FCA326"/>
<path d="M10.7278 22.9766C8.17497 21.0605 5.22984 19.7329 2.10353 19.089L2.03978 19.2585C0.142656 24.2156 1.75366 29.8305 5.99116 33.027L6.01328 33.0442L6.07216 33.0859L15.845 40.4044L24.8203 33.6206L10.7278 22.9766Z" fill="#FC6D26"/>
</svg>
