<svg width="49" height="48" viewBox="0 0 49 48" fill="none" xmlns="http://www.w3.org/2000/svg">
<path d="M41.7313 13.626C41.7313 13.046 41.5301 12.4868 41.1659 12.042L40.9998 11.8584L36.7596 7.61429C36.5275 7.38209 36.2514 7.19798 35.9481 7.0723C35.6448 6.94668 35.3193 6.88187 34.9911 6.88187C34.6629 6.88193 34.3381 6.94675 34.035 7.0723C33.7317 7.19797 33.4556 7.38209 33.2235 7.61429L28.6268 12.211L36.4032 19.9912L40.9998 15.3936C41.4685 14.9248 41.7313 14.2889 41.7313 13.626ZM15.6893 18.2852L9.42855 37.0655L18.201 28.293C18.1671 28.2219 18.1346 28.1501 18.1043 28.0772C17.8781 27.5314 17.7618 26.9463 17.7616 26.3555C17.7614 25.7645 17.8773 25.1789 18.1034 24.6328C18.3294 24.0868 18.6612 23.5909 19.0789 23.1729C19.4967 22.755 19.9921 22.4226 20.5379 22.1963C21.0839 21.97 21.6696 21.8537 22.2606 21.8535C22.8514 21.8534 23.4363 21.9704 23.9823 22.1963C24.5283 22.4224 25.0252 22.7531 25.4432 23.1709C26.2872 24.0146 26.7612 25.1592 26.7616 26.3526C26.7618 27.5461 26.2879 28.691 25.4442 29.5352C24.6004 30.3793 23.4561 30.8542 22.2625 30.8545C21.5848 30.8547 20.9233 30.7006 20.3231 30.4141L11.2459 39.4912L30.9832 33.625L34.6864 22.5176L26.1522 13.9785L15.6893 18.2852ZM22.2616 24.8535C22.0647 24.8536 21.8692 24.8925 21.6873 24.9678C21.5053 25.0432 21.3393 25.1537 21.2 25.293C21.0608 25.4323 20.9512 25.5983 20.8758 25.7803C20.8005 25.9623 20.7615 26.1575 20.7616 26.3545C20.7616 26.5515 20.8004 26.7468 20.8758 26.9287C20.9513 27.1106 21.0618 27.2759 21.201 27.4151C21.4824 27.6963 21.8638 27.8545 22.2616 27.8545C22.6595 27.8544 23.0418 27.6965 23.3231 27.4151C23.6044 27.1337 23.7617 26.7514 23.7616 26.3535C23.7614 25.9557 23.6035 25.5743 23.3221 25.293C23.1829 25.1538 23.0177 25.0431 22.8358 24.9678C22.6539 24.8925 22.4584 24.8536 22.2616 24.8535ZM44.7313 13.626C44.7313 15.0844 44.152 16.4833 43.1209 17.5147L37.6776 22.96C37.6556 23.0713 37.6277 23.1817 37.5916 23.2901L33.7811 34.7178L33.7821 34.7188C33.6452 35.1309 33.4112 35.5044 33.0994 35.8067C32.7877 36.109 32.4072 36.331 31.9911 36.4551L31.9901 36.4561L8.63363 43.3975C8.16018 43.5381 7.65723 43.5463 7.17953 43.4209C6.70186 43.2956 6.26801 43.0415 5.92465 42.6866C5.58135 42.3317 5.34173 41.8897 5.23226 41.4082C5.12283 40.9266 5.1473 40.4236 5.30355 39.9551L12.8875 17.208L12.9364 17.0723C13.0602 16.7576 13.2424 16.4688 13.4735 16.2207L13.575 16.1172C13.8184 15.8826 14.1037 15.695 14.4168 15.5655H14.4198L25.1932 11.1289C25.3248 11.0747 25.4601 11.0317 25.5975 10.9991L31.1014 5.49319C31.6121 4.98227 32.2192 4.57734 32.8866 4.30081C33.5538 4.0244 34.2688 3.88193 34.9911 3.88187C35.7134 3.88187 36.4291 4.02433 37.0965 4.30081C37.7639 4.57734 38.3709 4.98226 38.8817 5.49319V5.49417L43.1209 9.73734C44.152 10.7687 44.7313 12.1676 44.7313 13.626Z" fill="white"/>
</svg>
