<svg width="49" height="48" viewBox="0 0 49 48" fill="none" xmlns="http://www.w3.org/2000/svg">
<path d="M7.67139 34.119L24.8479 4.371L26.3899 5.2605L9.21489 35.01L7.67139 34.119Z" fill="#E10098"/>
<path d="M7.31738 31.743H41.6704V33.5235H7.31738V31.743Z" fill="#E10098"/>
<path d="M7.99854 32.742L8.88804 31.2L26.0705 41.121L25.1795 42.663L7.99854 32.742ZM22.925 6.88501L23.816 5.34451L40.9985 15.2655L40.1075 16.8075L22.925 6.88501Z" fill="#E10098"/>
<path d="M8.00293 15.261L25.1839 5.34L26.0749 6.882L8.89243 16.803L8.00293 15.261Z" fill="#E10098"/>
<path d="M22.6144 5.262L24.1564 4.371L41.3314 34.1205L39.7909 35.01L22.6144 5.262ZM8.68091 14.079H10.4614V33.921H8.68091V14.079Z" fill="#E10098"/>
<path d="M38.54 14.079H40.3205V33.921H38.54V14.079Z" fill="#E10098"/>
<path d="M24.1011 40.563L39.0441 31.935L39.8226 33.282L24.8781 41.91L24.1011 40.563Z" fill="#E10098"/>
<path d="M42.68 34.5C42.3099 35.1432 41.7573 35.662 41.0921 35.991C40.427 36.3199 39.6792 36.4441 38.9434 36.3479C38.2077 36.2516 37.517 35.9393 36.9588 35.4503C36.4007 34.9614 36.0001 34.3178 35.8079 33.6011C35.6156 32.8844 35.6403 32.1268 35.8788 31.4242C36.1173 30.7215 36.5589 30.1054 37.1478 29.6538C37.7366 29.2023 38.4461 28.9356 39.1866 28.8874C39.9271 28.8393 40.6652 29.012 41.3075 29.3835C42.1672 29.8808 42.7944 30.6988 43.0518 31.658C43.3091 32.6172 43.1754 33.6393 42.68 34.5ZM12.8 17.25C12.4299 17.8932 11.8773 18.412 11.2121 18.741C10.547 19.0699 9.79921 19.1941 9.06345 19.0979C8.32768 19.0016 7.637 18.6893 7.07883 18.2003C6.52067 17.7114 6.12011 17.0678 5.92786 16.3511C5.7356 15.6344 5.7603 14.8768 5.99881 14.1742C6.23733 13.4715 6.67895 12.8554 7.26777 12.4038C7.85659 11.9523 8.56615 11.6856 9.30662 11.6374C10.0471 11.5893 10.7852 11.762 11.4275 12.1335C12.2872 12.6308 12.9144 13.4488 13.1718 14.408C13.4291 15.3672 13.2954 16.3893 12.8 17.25ZM6.32001 34.5C5.94846 33.8577 5.77582 33.1196 5.82394 32.3791C5.87206 31.6386 6.13878 30.9291 6.59034 30.3403C7.0419 29.7515 7.658 29.3098 8.36065 29.0713C9.06331 28.8328 9.82093 28.8081 10.5376 29.0004C11.2543 29.1926 11.8979 29.5932 12.3868 30.1513C12.8758 30.7095 13.1881 31.4002 13.2844 32.1359C13.3806 32.8717 13.2564 33.6195 12.9275 34.2846C12.5985 34.9498 12.0796 35.5024 11.4365 35.8725C10.5758 36.3679 9.55366 36.5016 8.59446 36.2443C7.63525 35.9869 6.81729 35.3597 6.32001 34.5ZM36.2 17.25C35.8285 16.6077 35.6558 15.8696 35.7039 15.1291C35.7521 14.3886 36.0188 13.6791 36.4703 13.0903C36.9219 12.5015 37.538 12.0598 38.2407 11.8213C38.9433 11.5828 39.7009 11.5581 40.4176 11.7504C41.1343 11.9426 41.7779 12.3432 42.2668 12.9013C42.7558 13.4595 43.0681 14.1502 43.1644 14.8859C43.2606 15.6217 43.1364 16.3695 42.8075 17.0346C42.4785 17.6998 41.9596 18.2524 41.3165 18.6225C40.4558 19.1179 39.4337 19.2516 38.4745 18.9943C37.5152 18.7369 36.6973 18.1097 36.2 17.25ZM24.5 45C23.7583 45 23.0333 44.7801 22.4166 44.368C21.7999 43.956 21.3193 43.3703 21.0355 42.6851C20.7516 41.9999 20.6774 41.2459 20.8221 40.5184C20.9668 39.791 21.3239 39.1228 21.8484 38.5984C22.3728 38.0739 23.041 37.7168 23.7684 37.5721C24.4958 37.4274 25.2499 37.5016 25.9351 37.7855C26.6203 38.0693 27.206 38.5499 27.618 39.1666C28.0301 39.7833 28.25 40.5083 28.25 41.25C28.2514 41.7429 28.1553 42.2311 27.9674 42.6867C27.7794 43.1423 27.5032 43.5563 27.1548 43.9048C26.8063 44.2533 26.3923 44.5294 25.9367 44.7174C25.4811 44.9053 24.9929 45.0014 24.5 45ZM24.5 10.4865C23.7583 10.4865 23.0333 10.2666 22.4166 9.85452C21.7999 9.44247 21.3193 8.8568 21.0355 8.17158C20.7516 7.48635 20.6774 6.73235 20.8221 6.00492C20.9668 5.2775 21.3239 4.60931 21.8484 4.08486C22.3728 3.56042 23.041 3.20326 23.7684 3.05857C24.4958 2.91387 25.2499 2.98814 25.9351 3.27196C26.6203 3.55579 27.206 4.03644 27.618 4.65312C28.0301 5.26981 28.25 5.99483 28.25 6.73651C28.2514 7.22936 28.1553 7.71762 27.9674 8.17321C27.7794 8.62881 27.5032 9.04276 27.1548 9.39125C26.8063 9.73975 26.3923 10.0159 25.9367 10.2039C25.4811 10.3918 24.9929 10.4879 24.5 10.4865Z" fill="#E10098"/>
</svg>
