<svg width="35" height="48" viewBox="0 0 35 48" fill="none" xmlns="http://www.w3.org/2000/svg">
<path d="M34.0002 9.40933L30.9099 44.0278L17.0192 47.8787L3.16674 44.0332L0.0797119 9.40933H34.0002Z" fill="#E44D26"/>
<path d="M17.04 44.9352L28.2645 41.8234L30.9051 12.2403H17.04V44.9352Z" fill="#F16529"/>
<path d="M11.0326 20.7333H17.0399V16.4869H6.39178L6.49337 17.6261L7.53714 29.3283H17.0399V25.0818H11.4207L11.0326 20.7333ZM11.9897 31.4516H7.72688L8.32176 38.1192L17.0204 40.5338L17.0399 40.5285V36.1104L17.0213 36.1153L12.2921 34.8383L11.9897 31.4516Z" fill="#EBEBEB"/>
<path d="M3.23566 0H5.39366V2.13208H7.36778V0H9.52592V6.45647H7.36791V4.29447H5.3938V6.45647H3.23579L3.23566 0ZM12.3636 2.14112H10.4641V0H16.4228V2.14112H14.522V6.45647H12.364V2.14112H12.3636ZM17.3684 0H19.6185L21.0027 2.26863L22.3855 0H24.6366V6.45647H22.4874V3.25629L21.0027 5.55191H20.9655L19.4799 3.25629V6.45647H17.3684V0ZM25.7106 0H27.8692V4.32239H30.904V6.45647H25.7104L25.7106 0Z" fill="white"/>
<path d="M17.0253 29.3283H22.2544L21.7613 34.8356L17.0251 36.114V40.5318L25.7307 38.1192L25.7945 37.4017L26.7925 26.2221L26.8961 25.0818H17.0253V29.3283ZM17.0253 20.723V20.7333H27.2825L27.3676 19.7789L27.5612 17.6261L27.6627 16.4869H17.0253V20.723Z" fill="white"/>
</svg>
