<svg width="49" height="48" viewBox="0 0 49 48" fill="none" xmlns="http://www.w3.org/2000/svg">
<path d="M17.8682 3.62401C18.448 2.643 19.2466 1.80916 20.2016 1.18749C21.1567 0.565826 22.2424 0.173127 23.3742 0.0400114C25.2777 -0.156767 27.183 0.395609 28.6862 1.58001C29.3858 2.14191 29.9774 2.82638 30.4322 3.60001C34.7602 11.04 39.0602 18.5 43.3722 25.952C44.0505 27.1459 44.3803 28.5061 44.3242 29.878C44.2851 31.0415 43.9675 32.1786 43.3982 33.194C41.2642 36.918 39.1142 40.634 36.9722 44.354C36.3261 45.4465 35.4106 46.3549 34.3132 46.9926C33.2158 47.6302 31.9732 47.9757 30.7042 47.996C26.3642 48.004 22.0262 47.996 17.6882 47.996C16.4221 47.9811 15.181 47.6424 14.0828 47.0123C12.9846 46.3822 12.0659 45.4815 11.4142 44.396C9.25016 40.676 7.10216 36.95 4.94616 33.226C4.32281 32.1189 3.99416 30.8703 3.99171 29.5998C3.98926 28.3293 4.31308 27.0795 4.93216 25.97C9.22816 18.512 13.5562 11.072 17.8682 3.62401ZM9.41016 28.3C9.20349 28.6604 9.09475 29.0686 9.09475 29.484C9.09475 29.8994 9.20349 30.3076 9.41016 30.668C11.5582 34.394 13.5802 37.922 15.7582 41.632C15.9677 41.987 16.2659 42.2815 16.6236 42.4866C16.9812 42.6917 17.3859 42.8004 17.7982 42.802C22.1362 42.81 26.2362 42.828 30.5742 42.802C30.9869 42.7984 31.3916 42.6876 31.7485 42.4804C32.1055 42.2732 32.4024 41.9767 32.6102 41.62C34.7602 37.904 36.8002 34.396 38.9182 30.662C39.1207 30.3029 39.2264 29.8973 39.225 29.485C39.2236 29.0726 39.1151 28.6678 38.9102 28.31C34.6102 20.85 30.5662 13.79 26.2062 6.36601C25.9776 5.98444 25.6474 5.67391 25.2526 5.46908C24.8577 5.26425 24.4137 5.17317 23.9702 5.20601C23.5881 5.23606 23.2189 5.35795 22.894 5.5613C22.5691 5.76465 22.2982 6.04346 22.1042 6.37401C17.8573 13.6737 13.6259 20.9823 9.41016 28.3ZM26.3422 36.428C26.1209 36.8109 25.8028 37.1289 25.4198 37.3499C25.0368 37.571 24.6024 37.6873 24.1602 37.6873C23.7179 37.6873 23.2835 37.571 22.9005 37.3499C22.5175 37.1289 22.1994 36.8109 21.9782 36.428L17.6502 28.932C17.429 28.549 17.3126 28.1144 17.3125 27.6721C17.3125 27.2298 17.4289 26.7953 17.6501 26.4122C17.8712 26.0291 18.1893 25.711 18.5723 25.4898C18.9553 25.2686 19.3898 25.1521 19.8322 25.152H28.4882C28.9305 25.1521 29.365 25.2686 29.748 25.4898C30.1311 25.711 30.4491 26.0291 30.6703 26.4122C30.8914 26.7953 31.0078 27.2298 31.0078 27.6721C31.0078 28.1144 30.8913 28.549 30.6702 28.932L26.3422 36.428Z" fill="url(#paint0_linear_63_26934)"/>
<defs>
<linearGradient id="paint0_linear_63_26934" x1="24.161" y1="0.000976562" x2="24.161" y2="47.9996" gradientUnits="userSpaceOnUse">
<stop stop-color="#7298D8"/>
<stop offset="1" stop-color="#7871D9"/>
</linearGradient>
</defs>
</svg>
