<svg width="49" height="48" viewBox="0 0 49 48" fill="none" xmlns="http://www.w3.org/2000/svg">
<path d="M36.8301 0H11.3301C5.11687 0 0.0800781 5.0368 0.0800781 11.25V36.75C0.0800781 42.9632 5.11687 48 11.3301 48H36.8301C43.0433 48 48.0801 42.9632 48.0801 36.75V11.25C48.0801 5.0368 43.0433 0 36.8301 0Z" fill="#F0DB4F"/>
<path d="M12.7011 40.1123L16.3742 37.8892C17.083 39.1457 17.7276 40.2088 19.2739 40.2088C20.7561 40.2088 21.6906 39.6291 21.6906 37.3738V22.0367H26.2015V37.4376C26.2015 42.1095 23.4629 44.2361 19.4672 44.2361C15.8588 44.2361 13.7642 42.3673 12.7009 40.1119M28.6516 39.6289L32.3243 37.5024C33.2912 39.0814 34.5479 40.2412 36.7709 40.2412C38.6401 40.2412 39.8318 39.3067 39.8318 38.0179C39.8318 36.4714 38.6074 35.9235 36.5453 35.0216L35.4179 34.5381C32.1634 33.1528 30.0046 31.4128 30.0046 27.7397C30.0046 24.3564 32.5823 21.7787 36.61 21.7787C39.4776 21.7787 41.5397 22.7777 43.0217 25.3875L39.5097 27.6429C38.7362 26.2575 37.8989 25.7098 36.61 25.7098C35.2889 25.7098 34.4511 26.5476 34.4511 27.6429C34.4511 28.9961 35.2889 29.544 37.222 30.3819L38.3496 30.8651C42.1838 32.5086 44.3427 34.1837 44.3427 37.9534C44.3427 42.0135 41.1529 44.2365 36.8676 44.2365C32.6791 44.2365 29.9725 42.2389 28.6516 39.6289Z" fill="#323330"/>
</svg>
