<svg width="49" height="48" viewBox="0 0 49 48" fill="none" xmlns="http://www.w3.org/2000/svg">
<path d="M10.4894 7.65786C7.73238 11.6197 8.07551 16.7749 10.1819 20.9854L10.336 21.2846L10.4346 21.4744L10.4961 21.5835L10.606 21.78C10.6713 21.895 10.7383 22.0099 10.807 22.1246L10.9218 22.3136C10.9978 22.4359 11.0755 22.5575 11.155 22.6785L11.2544 22.8319C11.3641 22.9959 11.4768 23.1585 11.5923 23.3197L11.602 23.3321L11.659 23.409C11.7593 23.547 11.8619 23.6836 11.9669 23.8189L12.0828 23.9662C12.1763 24.0835 12.2711 24.2002 12.3674 24.3165L12.4761 24.4462C12.6055 24.5985 12.7379 24.7507 12.8725 24.8992L12.8804 24.9075L12.8958 24.9244C13.0274 25.068 13.162 25.2086 13.2989 25.3492L13.4279 25.4794C13.5339 25.5856 13.6411 25.6907 13.7496 25.7947L13.8813 25.92C14.026 26.0567 14.173 26.1905 14.3223 26.3212L14.329 26.3272L14.4059 26.3925C14.5376 26.5067 14.6711 26.6195 14.8064 26.7307L14.9721 26.8631C15.0824 26.9514 15.1936 27.0384 15.3059 27.1241L15.4848 27.2595C15.6085 27.3505 15.7334 27.4401 15.8594 27.5284L15.9955 27.6251L16.0334 27.6521C16.1526 27.7346 16.2753 27.8137 16.3971 27.8929L16.5546 27.9979C16.7421 28.116 16.9323 28.2334 17.1243 28.3466L17.2818 28.4355C17.423 28.517 17.5655 28.5969 17.7093 28.6751L17.9459 28.7974L18.2519 28.9564L18.3224 28.9905L18.4476 29.0509C18.6076 29.1276 18.7693 29.2025 18.9325 29.2755L19.0349 29.3212C19.2216 29.403 19.4101 29.4815 19.6004 29.5567L19.7384 29.6107C19.9146 29.6792 20.0925 29.7451 20.272 29.8084L20.3391 29.8316C20.5356 29.9006 20.7344 29.964 20.9343 30.0266L21.0779 30.0694C21.2811 30.1309 21.4825 30.2036 21.6921 30.2426C35.0245 32.6737 38.8971 22.2311 38.8971 22.2311C35.6444 26.4686 29.8713 27.5861 24.4011 26.3419C24.1938 26.295 23.9928 26.2301 23.7906 26.1709L23.6384 26.1244C23.4412 26.0642 23.2452 26.0004 23.0504 25.9331L22.9698 25.9042C22.7961 25.8427 22.6233 25.7785 22.4515 25.7119L22.306 25.6549C22.1178 25.5806 21.9313 25.5031 21.7465 25.4224L21.6348 25.3725C21.4765 25.3013 21.3191 25.2282 21.1626 25.1531L21.0261 25.0875C20.9035 25.0279 20.7824 24.9645 20.6609 24.9019L20.4175 24.774C20.2698 24.695 20.1239 24.6132 19.9799 24.5287L19.8321 24.4466C19.6404 24.333 19.4503 24.2165 19.2621 24.0971L19.1084 23.9947C18.9718 23.907 18.8367 23.8171 18.703 23.7251L18.5721 23.6332C18.4433 23.5425 18.3155 23.4502 18.1889 23.3565L18.019 23.2279C17.9025 23.1391 17.7873 23.049 17.6733 22.9575L17.5191 22.8337C17.3736 22.7147 17.23 22.5936 17.0883 22.4704L17.041 22.431C16.888 22.296 16.737 22.1587 16.588 22.0192L16.4605 21.8962C16.3501 21.7919 16.2415 21.6855 16.135 21.5771L16.0075 21.4496C15.8718 21.3109 15.7386 21.1701 15.6081 21.0274L15.5883 21.006C15.4503 20.855 15.3153 20.7013 15.1833 20.5451L15.0771 20.4191C14.9784 20.3003 14.8812 20.1802 14.7858 20.0587L14.6789 19.9256C14.5645 19.7778 14.4523 19.6284 14.3421 19.4775C11.3054 15.3349 10.2141 9.62136 12.6415 4.92936M19.0469 4.31961C17.0534 7.18836 17.1614 11.0295 18.7169 14.0632C18.9774 14.5731 19.2719 15.0648 19.5985 15.5351C19.897 15.9637 20.2285 16.473 20.6249 16.8169C20.7685 16.9751 20.9189 17.1296 21.0723 17.2811L21.19 17.3977C21.3385 17.5425 21.4908 17.684 21.6468 17.8222L21.6655 17.8384L21.67 17.8429C21.8433 17.9947 22.0221 18.1406 22.2036 18.2846L22.3248 18.3791C22.507 18.5186 22.6926 18.6559 22.8831 18.7867L22.8993 18.7991L23.1543 18.9667L23.275 19.0466C23.411 19.1341 23.549 19.2186 23.689 19.3001L23.7475 19.3346C23.8685 19.4041 23.9904 19.4722 24.1131 19.539L24.2433 19.6065L24.499 19.7392L24.5376 19.7569C24.7129 19.8436 24.8909 19.9265 25.0716 20.0055L25.1894 20.0542C25.3341 20.1157 25.48 20.1749 25.627 20.2316L25.8145 20.3006C25.948 20.3501 26.0815 20.3955 26.2165 20.4405L26.398 20.4986C26.5896 20.5579 26.7794 20.6332 26.9789 20.6666C37.2726 22.3717 39.649 14.4461 39.649 14.4461C37.507 17.5316 33.3584 19.0035 28.9315 17.8545C28.7359 17.8029 28.5414 17.7467 28.3484 17.6861L28.1733 17.6295C28.0365 17.5854 27.9006 17.5387 27.7656 17.4892L27.5815 17.4206C27.4342 17.3639 27.2878 17.3047 27.1424 17.2432L27.0243 17.1934C26.8433 17.1144 26.6642 17.0311 26.4873 16.9436L26.218 16.8067L26.0628 16.7269C25.9478 16.6644 25.8341 16.6001 25.7219 16.5341L25.6405 16.488C25.5013 16.4068 25.3637 16.3228 25.228 16.236L25.1035 16.1531L24.8365 15.9761C24.6477 15.8451 24.4621 15.7094 24.28 15.5692L24.1548 15.4702C22.2171 13.9406 20.6811 11.8496 19.951 9.47886C19.1856 7.01998 19.3506 4.25998 20.6766 2.01973M26.2443 1.82548C25.069 3.55498 24.9535 5.70336 25.7691 7.61361C26.629 9.64123 28.3911 11.2316 30.448 11.9861L30.7038 12.0742L30.8163 12.1102C30.9374 12.1485 31.0578 12.1927 31.183 12.216C36.8669 13.3144 38.4085 9.29961 38.8188 8.70823C37.4684 10.6526 35.1989 11.1195 32.4141 10.4434C32.1863 10.3851 31.9616 10.3157 31.7406 10.2352C31.4682 10.1386 31.2011 10.0277 30.9404 9.90298C30.4454 9.66513 29.9755 9.37846 29.5375 9.04723C27.0456 7.15648 25.498 3.55011 27.124 0.612732" fill="#0868AC"/>
<path d="M24.9647 36.1106H23.3799C23.3352 36.1126 23.2922 36.1288 23.2573 36.157C23.2224 36.1851 23.1975 36.2237 23.1861 36.267L22.6236 38.8695L22.0611 41.472C22.05 41.5155 22.0252 41.5542 21.9903 41.5824C21.9554 41.6106 21.9124 41.6267 21.8675 41.6284H20.7459C19.6363 41.6284 19.7646 40.8608 19.9918 39.8093L19.9986 39.7774L20.0233 39.6446L20.0278 39.6199L20.0784 39.3499L20.1328 39.0608L20.1905 38.7664L20.4463 37.5169L20.7024 36.2674C20.7073 36.2483 20.7077 36.2283 20.7034 36.2091C20.6992 36.1899 20.6905 36.1719 20.6781 36.1566C20.6657 36.1413 20.6498 36.1292 20.6318 36.1211C20.6138 36.1131 20.5942 36.1094 20.5746 36.1103H18.9482C18.9034 36.1119 18.8603 36.1281 18.8256 36.1564C18.7908 36.1846 18.7662 36.2235 18.7554 36.267L18.4056 37.926L18.0561 39.5854L18.0553 39.5876L18.0231 39.7421C17.6203 41.5808 17.7268 43.3346 19.916 43.3898L19.9798 43.3909H23.4159C23.4607 43.3892 23.5038 43.3731 23.5387 43.3449C23.5735 43.3167 23.5984 43.278 23.6094 43.2345L24.3504 39.7511L25.0914 36.2674C25.1098 36.1811 25.0528 36.111 24.9647 36.1106ZM7.99368 36.0923H6.25367C6.20869 36.0939 6.16542 36.1099 6.13024 36.138C6.09507 36.1661 6.06985 36.2048 6.0583 36.2483L5.8933 36.9765L5.7283 37.7048C5.70918 37.7906 5.76505 37.8608 5.85318 37.8608H7.60668C7.65151 37.8589 7.69457 37.8427 7.72952 37.8145C7.76448 37.7864 7.78951 37.7478 7.80093 37.7044L7.9603 36.9765L8.11967 36.2486C8.13805 36.1628 8.0818 36.0923 7.99368 36.0923ZM7.48892 38.3588H5.73505C5.69007 38.3604 5.64679 38.3764 5.61162 38.4045C5.57644 38.4326 5.55122 38.4713 5.53968 38.5148L5.2933 39.606L5.0473 40.6969L4.97868 41.0096L4.74205 42.1234L4.5058 43.2375C4.48743 43.3234 4.44955 43.4621 4.42143 43.5454C4.42143 43.5454 4.09368 44.5204 3.5428 44.5091L3.4738 44.5076L2.99718 44.499C2.95243 44.5002 2.90886 44.5156 2.87351 44.5431C2.83816 44.5705 2.81251 44.6086 2.8003 44.6516L2.61843 45.4163L2.43693 46.1805C2.4163 46.266 2.4718 46.3365 2.55918 46.338C2.87155 46.3418 3.5713 46.3496 3.99468 46.3496C5.37055 46.3496 6.09618 45.5873 6.5608 43.3935L7.10493 40.8758L7.6153 38.5144C7.63368 38.4293 7.57668 38.3588 7.48892 38.3588ZM39.7828 37.7685L39.71 37.4681L39.6384 37.1606L39.6021 37.0054C39.4595 36.4515 39.0414 36.1324 38.1332 36.1324L36.7194 36.1309L35.4174 36.129H33.9523C33.9075 36.1305 33.8644 36.1466 33.8295 36.1749C33.7947 36.2031 33.77 36.2419 33.7592 36.2854L33.6943 36.5914L33.6178 36.9529L33.5964 37.0545L32.9368 40.1445L32.3105 43.0778C32.2918 43.164 32.2858 43.2698 32.2963 43.3125C32.3068 43.3556 32.4759 43.3909 32.5637 43.3909H33.8852C33.9733 43.3909 34.0847 43.3751 34.1327 43.3556C34.1807 43.3361 34.2515 43.1633 34.2692 43.0774L34.5039 41.9153L34.7391 40.7528L34.7394 40.7509L34.7709 40.596L35.0559 39.261L35.3075 38.082C35.3186 38.0386 35.3434 38 35.3782 37.9718C35.413 37.9437 35.4559 37.9275 35.5007 37.9256L39.659 37.9238C39.7472 37.9245 39.8027 37.8544 39.7828 37.7685ZM45.1359 35.0535L44.8157 35.0546H43.4848C43.436 35.0573 43.3884 35.0705 43.3452 35.0933C43.302 35.1162 43.2643 35.1482 43.2347 35.187L40.2913 39.4988C40.2418 39.5715 40.1852 39.561 40.1657 39.4755L39.9489 38.5256C39.9374 38.4821 39.9121 38.4434 39.8768 38.4153C39.8416 38.3872 39.7982 38.3712 39.7532 38.3696H37.8613C37.7732 38.3696 37.7211 38.4386 37.745 38.523L38.5929 41.4934C38.6169 41.5781 38.6188 41.7169 38.597 41.8024L38.2277 43.2398C38.2055 43.3253 38.2595 43.3946 38.3477 43.3946H40.2178C40.263 43.3928 40.3066 43.3769 40.3423 43.3491C40.3781 43.3214 40.4043 43.2831 40.4173 43.2398L40.787 41.8024C40.8162 41.701 40.8622 41.6053 40.9232 41.5193L45.7014 35.1776C45.7547 35.1071 45.7258 35.0498 45.6381 35.0505L45.1359 35.0535ZM30.1037 38.7731V38.7716C30.0972 38.8169 30.0748 38.8584 30.0405 38.8887C30.0062 38.919 29.9623 38.9361 29.9165 38.937H27.5177C27.4344 38.937 27.3924 38.8808 27.4048 38.811L27.4071 38.8054L27.4055 38.8061L27.4067 38.7983L27.4175 38.7574C27.6467 38.1484 28.1132 37.7486 28.9903 37.7486C29.9781 37.7483 30.1708 38.2305 30.1037 38.7731ZM29.3998 36.0041C26.3207 36.0041 25.5909 37.8731 25.1814 39.7598C24.7723 41.6828 24.8072 43.4801 27.9939 43.4801H28.3802L28.4762 43.4798H28.4987L28.8812 43.4786H28.8879C29.7294 43.4753 30.5735 43.4689 30.9152 43.4663C30.9597 43.4642 31.0024 43.4477 31.0369 43.4193C31.0713 43.3909 31.0956 43.3521 31.106 43.3088L31.2351 42.6784L31.2602 42.5558L31.4139 41.8035C31.4188 41.7844 31.4192 41.7645 31.415 41.7453C31.4107 41.726 31.402 41.7081 31.3896 41.6928C31.3772 41.6776 31.3613 41.6655 31.3433 41.6575C31.3253 41.6495 31.3057 41.6458 31.2861 41.6468H28.4214C27.2818 41.6468 26.9436 41.3441 27.0684 40.4539H31.6475L31.6472 40.4543L31.6502 40.4539C31.6864 40.4525 31.7215 40.4405 31.7511 40.4196C31.7808 40.3986 31.8037 40.3695 31.8171 40.3358L31.8279 40.296L31.8276 40.2964C32.5074 37.7318 32.3124 36.0045 29.3998 36.0041ZM14.8461 38.7634L14.8026 38.9168L14.4568 40.1426L14.1111 41.3678C14.0967 41.4111 14.0696 41.449 14.0332 41.4765C13.9969 41.504 13.953 41.5199 13.9074 41.5219H12.0774C10.6892 41.5219 10.3509 40.4359 10.6892 38.8346C11.0271 37.1966 11.6897 36.1785 13.0562 36.0754C14.9237 35.9344 15.2972 37.2476 14.8461 38.7634ZM16.1016 41.4278C16.1016 41.4278 16.9644 39.3323 17.1602 38.1225C17.4276 36.5029 16.6164 34.1531 13.4837 34.1531C10.3689 34.1531 9.01592 36.396 8.49992 38.8346C7.98392 41.2909 8.66005 43.4445 11.7572 43.4269L14.2007 43.4179L16.4841 43.4096C16.5293 43.4074 16.5728 43.3913 16.6086 43.3635C16.6444 43.3358 16.6708 43.2977 16.6843 43.2544L17.0822 41.7371C17.1043 41.6516 17.0507 41.5819 16.9626 41.5811L16.5812 41.5789L16.1998 41.5766C16.1252 41.5763 16.0824 41.5275 16.0914 41.4634L16.1016 41.4278ZM31.5215 40.0249C31.5216 40.0387 31.5189 40.0523 31.5136 40.0651C31.5084 40.0778 31.5007 40.0894 31.4909 40.0992C31.4812 40.109 31.4696 40.1167 31.4569 40.122C31.4442 40.1273 31.4305 40.13 31.4167 40.1301C31.4029 40.1301 31.3893 40.1274 31.3765 40.1222C31.3638 40.1169 31.3522 40.1092 31.3424 40.0995C31.3327 40.0897 31.3249 40.0782 31.3196 40.0654C31.3143 40.0527 31.3116 40.0391 31.3115 40.0253C31.3115 39.9974 31.3225 39.9707 31.3422 39.951C31.3618 39.9312 31.3885 39.9201 31.4164 39.9201C31.4442 39.92 31.4709 39.931 31.4907 39.9507C31.5104 39.9704 31.5215 39.997 31.5215 40.0249Z" fill="#131B28"/>
</svg>
