<svg width="49" height="48" viewBox="0 0 49 48" fill="none" xmlns="http://www.w3.org/2000/svg">
<path d="M48.9245 13.68C48.9125 13.635 48.89 13.596 48.8735 13.5525C48.8452 13.4717 48.8101 13.3934 48.7685 13.3185C48.6943 13.2108 48.6131 13.1081 48.5255 13.011C48.4836 12.9725 48.4395 12.9365 48.3935 12.903C48.3538 12.8668 48.3123 12.8328 48.269 12.801L48.203 12.771L48.1505 12.735L39.1505 8.23501C38.9423 8.13097 38.7127 8.07681 38.48 8.07681C38.2472 8.07681 38.0177 8.13097 37.8095 8.23501L28.8095 12.735L28.757 12.771L28.691 12.801C28.6477 12.8328 28.6061 12.8668 28.5665 12.903C28.4554 12.9796 28.3602 13.0769 28.286 13.1895C28.2517 13.2308 28.2197 13.2738 28.19 13.3185C28.1489 13.3934 28.1143 13.4717 28.0865 13.5525C28.0715 13.596 28.0475 13.635 28.0355 13.68C27.9993 13.8094 27.9806 13.9431 27.98 14.0775V22.1505L21.98 25.1505V8.07751C21.9794 7.94312 21.9607 7.80943 21.9245 7.68001C21.9125 7.63501 21.89 7.59601 21.8735 7.55251C21.8452 7.47166 21.8101 7.39337 21.7685 7.31851C21.7393 7.27386 21.7078 7.2308 21.674 7.18951C21.5998 7.07688 21.5045 6.97961 21.3935 6.90301C21.3538 6.86681 21.3123 6.83276 21.269 6.80101L21.203 6.77101L21.1505 6.73501L12.1505 2.23501C11.9423 2.13097 11.7127 2.07681 11.48 2.07681C11.2472 2.07681 11.0177 2.13097 10.8095 2.23501L1.80948 6.73501L1.75698 6.77101L1.69098 6.80101C1.64768 6.83276 1.60613 6.86681 1.56648 6.90301C1.52047 6.93648 1.4764 6.97254 1.43448 7.01101C1.37992 7.06653 1.32977 7.12621 1.28448 7.18951C1.25071 7.2308 1.21916 7.27386 1.18998 7.31851C1.14888 7.39342 1.11425 7.47171 1.08648 7.55251C1.07148 7.59601 1.04748 7.63501 1.03548 7.68001C0.999257 7.80943 0.98059 7.94312 0.97998 8.07751L0.97998 36.5775C0.980129 36.856 1.05781 37.129 1.20431 37.3658C1.35081 37.6026 1.56036 37.794 1.80948 37.9185L10.8095 42.4185L19.8095 46.9185C19.8305 46.929 19.8545 46.926 19.8785 46.935C20.0654 47.028 20.2712 47.0764 20.48 47.0764C20.6887 47.0764 20.8946 47.028 21.0815 46.935C21.104 46.926 21.1295 46.929 21.1505 46.92L39.1505 37.92C39.3998 37.7954 39.6095 37.6038 39.756 37.3667C39.9026 37.1295 39.9801 36.8563 39.98 36.5775V28.5045L48.1505 24.4185C48.3996 24.294 48.6091 24.1026 48.7557 23.8658C48.9022 23.629 48.9798 23.356 48.98 23.0775V14.0775C48.9794 13.9431 48.9607 13.8094 48.9245 13.68ZM14.834 32.0775L21.1505 28.9185H21.152L29.48 24.7545L35.126 27.5775L20.48 34.9005L14.834 32.0775ZM36.98 19.5045V25.1505L30.98 22.1505V16.5045L36.98 19.5045ZM38.48 11.2545L44.126 14.0775L38.48 16.9005L32.834 14.0775L38.48 11.2545ZM12.98 29.6505V13.5045L18.98 10.5045V26.6505L12.98 29.6505ZM11.48 5.25451L17.126 8.07751L11.48 10.9005L5.83398 8.07751L11.48 5.25451ZM3.97998 10.5045L9.97998 13.5045V38.6505L3.97998 35.6505V10.5045ZM12.98 34.5045L18.98 37.5045V43.1505L12.98 40.1505V34.5045ZM36.98 35.6505L21.98 43.1505V37.5045L36.98 30.0045V35.6505ZM45.98 22.1505L39.98 25.1505V19.5045L45.98 16.5045V22.1505Z" fill="#FF5252"/>
</svg>
