<svg width="48" height="48" viewBox="0 0 48 48" fill="none" xmlns="http://www.w3.org/2000/svg">
<path d="M40 6C41.0609 6 42.0783 6.42143 42.8284 7.17157C43.5786 7.92172 44 8.93913 44 10V38C44 39.0609 43.5786 40.0783 42.8284 40.8284C42.0783 41.5786 41.0609 42 40 42H12C10.9391 42 9.92172 41.5786 9.17157 40.8284C8.42143 40.0783 8 39.0609 8 38V10C8 8.93913 8.42143 7.92172 9.17157 7.17157C9.92172 6.42143 10.9391 6 12 6H40ZM39 37V26.4C39 24.6708 38.3131 23.0124 37.0903 21.7897C35.8676 20.5669 34.2092 19.88 32.48 19.88C30.78 19.88 28.8 20.92 27.84 22.48V20.26H22.26V37H27.84V27.14C27.84 25.6 29.08 24.34 30.62 24.34C31.3626 24.34 32.0748 24.635 32.5999 25.1601C33.125 25.6852 33.42 26.3974 33.42 27.14V37H39ZM15.76 17.12C16.6511 17.12 17.5058 16.766 18.1359 16.1359C18.766 15.5058 19.12 14.6511 19.12 13.76C19.12 11.9 17.62 10.38 15.76 10.38C14.8636 10.38 14.0039 10.7361 13.37 11.37C12.7361 12.0039 12.38 12.8636 12.38 13.76C12.38 15.62 13.9 17.12 15.76 17.12ZM18.54 37V20.26H13V37H18.54Z" fill="#4EACFF"/>
</svg>
