<svg width="48" height="48" viewBox="0 0 48 48" fill="none" xmlns="http://www.w3.org/2000/svg">
<path d="M39 6C40.0609 6 41.0783 6.42143 41.8284 7.17157C42.5786 7.92172 43 8.93913 43 10V38C43 39.0609 42.5786 40.0783 41.8284 40.8284C41.0783 41.5786 40.0609 42 39 42H11C9.93913 42 8.92172 41.5786 8.17157 40.8284C7.42143 40.0783 7 39.0609 7 38V10C7 8.93913 7.42143 7.92172 8.17157 7.17157C8.92172 6.42143 9.93913 6 11 6H39ZM38 37V26.4C38 24.6708 37.3131 23.0124 36.0903 21.7897C34.8676 20.5669 33.2092 19.88 31.48 19.88C29.78 19.88 27.8 20.92 26.84 22.48V20.26H21.26V37H26.84V27.14C26.84 25.6 28.08 24.34 29.62 24.34C30.3626 24.34 31.0748 24.635 31.5999 25.1601C32.125 25.6852 32.42 26.3974 32.42 27.14V37H38ZM14.76 17.12C15.6511 17.12 16.5058 16.766 17.1359 16.1359C17.766 15.5058 18.12 14.6511 18.12 13.76C18.12 11.9 16.62 10.38 14.76 10.38C13.8636 10.38 13.0039 10.7361 12.37 11.37C11.7361 12.0039 11.38 12.8636 11.38 13.76C11.38 15.62 12.9 17.12 14.76 17.12ZM17.54 37V20.26H12V37H17.54Z" fill="#4EACFF"/>
</svg>
