<svg width="48" height="48" viewBox="0 0 48 48" fill="none" xmlns="http://www.w3.org/2000/svg">
<path d="M14 34C11.2333 34 8.87533 33.0247 6.926 31.074C4.97667 29.1233 4.00133 26.7653 4 24C3.99867 21.2347 4.974 18.8767 6.926 16.926C8.878 14.9753 11.236 14 14 14H20C20.5667 14 21.042 14.192 21.426 14.576C21.81 14.96 22.0013 15.4347 22 16C21.9987 16.5653 21.8067 17.0407 21.424 17.426C21.0413 17.8113 20.5667 18.0027 20 18H14C12.3333 18 10.9167 18.5833 9.75 19.75C8.58333 20.9167 8 22.3333 8 24C8 25.6667 8.58333 27.0833 9.75 28.25C10.9167 29.4167 12.3333 30 14 30H20C20.5667 30 21.042 30.192 21.426 30.576C21.81 30.96 22.0013 31.4347 22 32C21.9987 32.5653 21.8067 33.0407 21.424 33.426C21.0413 33.8113 20.5667 34.0027 20 34H14ZM18 26C17.4333 26 16.9587 25.808 16.576 25.424C16.1933 25.04 16.0013 24.5653 16 24C15.9987 23.4347 16.1907 22.96 16.576 22.576C16.9613 22.192 17.436 22 18 22H30C30.5667 22 31.042 22.192 31.426 22.576C31.81 22.96 32.0013 23.4347 32 24C31.9987 24.5653 31.8067 25.0407 31.424 25.426C31.0413 25.8113 30.5667 26.0027 30 26H18ZM28 34C27.4333 34 26.9587 33.808 26.576 33.424C26.1933 33.04 26.0013 32.5653 26 32C25.9987 31.4347 26.1907 30.96 26.576 30.576C26.9613 30.192 27.436 30 28 30H34C35.6667 30 37.0833 29.4167 38.25 28.25C39.4167 27.0833 40 25.6667 40 24C40 22.3333 39.4167 20.9167 38.25 19.75C37.0833 18.5833 35.6667 18 34 18H28C27.4333 18 26.9587 17.808 26.576 17.424C26.1933 17.04 26.0013 16.5653 26 16C25.9987 15.4347 26.1907 14.96 26.576 14.576C26.9613 14.192 27.436 14 28 14H34C36.7667 14 39.1253 14.9753 41.076 16.926C43.0267 18.8767 44.0013 21.2347 44 24C43.9987 26.7653 43.0233 29.124 41.074 31.076C39.1247 33.028 36.7667 34.0027 34 34H28Z" fill="#4EACFF"/>
</svg>
