<svg width="49" height="48" viewBox="0 0 49 48" fill="none" xmlns="http://www.w3.org/2000/svg">
<path d="M20.9204 16.2L21.0204 18.5L19.4204 21.5L16.9204 26.4L16.4204 30.5L18.2204 36.3L22.3204 38.6H28.5204L34.3204 34.2L36.9204 27.3L30.9204 20L29.2204 15.9L20.9204 16.2Z" fill="#ECEFF1"/>
<path d="M35.1204 21.9C33.5204 19.6 32.2204 18.2 31.5204 15.3C30.8204 12.4 31.7204 13.2 31.1204 10.7C30.8204 9.39999 30.3204 8.49999 29.8204 7.79999C29.2204 7.09999 28.5204 6.69999 28.1204 6.59999C27.2204 6.09999 25.1204 5.29999 22.5204 6.69999C19.8204 8.09999 20.1204 11.1 20.6204 17.2C20.6204 17.6 20.5204 18.1 20.3204 18.5C19.9204 19.4 19.2204 20.2 18.6204 20.9C17.9204 21.9 17.2204 22.9 16.7204 24C15.5204 26.3 14.4204 29.2 14.7204 30.3C15.2204 30.2 21.5204 39.8 21.5204 40C21.9204 39.9 23.6204 39.9 25.1204 39.9C27.2204 39.8 28.4204 39.7 30.1204 40.1C30.1204 39.8 30.0204 39.5 30.0204 39.2C30.0204 38.6 30.1204 38.1 30.2204 37.4C30.3204 36.9 30.4204 36.4 30.5204 35.8C29.5204 36.7 27.7204 37.7 26.0204 38C24.5204 38.3 22.0204 37.8 20.8204 36.3C20.9204 36.3 21.1204 36.3 21.2204 36.2C21.5204 36.1 21.8204 36 21.9204 35.8C22.2204 35.3 22.0204 34.8 21.8204 34.5C21.6204 34.2 20.1204 33.1 19.4204 32.5C18.7204 31.9 18.3204 31.6 17.9204 31.2L17.1204 30.4C16.9204 30.2 16.8204 30 16.7204 29.9C16.5204 29.4 16.4204 28.8 16.5204 28C16.6204 26.9 17.0204 26 17.5204 25C17.7204 24.6 18.2204 23.8 18.2204 23.8C18.2204 23.8 16.5204 28 17.4204 29.3C17.4204 29.3 17.5204 28 17.9204 26.7C18.2204 25.8 18.7204 24.5 19.3204 23.8C19.9204 23.1 21.4204 20.5 21.5204 18.9C21.5204 18.2 21.6204 17.5 21.6204 17C21.2204 16.6 28.2204 15.6 28.6204 16.7C28.7204 17.1 30.1204 20.7 30.9204 22.6C31.3204 23.5 31.8204 24.3 32.1204 25.3C32.4204 26.4 32.6204 27.9 32.6204 29.4C32.6204 29.7 32.6204 30.2 32.5204 30.7C32.7204 30.7 36.6204 26.5 32.0204 23C32.0204 23 34.8204 24.3 34.9204 26.9C35.0204 29 34.1204 30.7 33.9204 31C34.0204 31 36.0204 31.9 36.1204 31.9C36.5204 31.9 37.3204 31.6 37.3204 31.6C37.4204 31.3 37.7204 30.5 37.7204 30.2C38.4204 27.9 36.7204 24.2 35.1204 21.9Z" fill="#263238"/>
<path d="M22.4201 15.3C23.1381 15.3 23.7201 14.4046 23.7201 13.3C23.7201 12.1954 23.1381 11.3 22.4201 11.3C21.7021 11.3 21.1201 12.1954 21.1201 13.3C21.1201 14.4046 21.7021 15.3 22.4201 15.3Z" fill="#ECEFF1"/>
<path d="M26.9202 15.5C27.8591 15.5 28.6202 14.4702 28.6202 13.2C28.6202 11.9297 27.8591 10.9 26.9202 10.9C25.9813 10.9 25.2202 11.9297 25.2202 13.2C25.2202 14.4702 25.9813 15.5 26.9202 15.5Z" fill="#ECEFF1"/>
<path d="M23.1472 13.4367C23.064 12.7792 22.6857 12.2854 22.3022 12.3339C21.9187 12.3824 21.6751 12.9547 21.7582 13.6122C21.8413 14.2697 22.2196 14.7635 22.6032 14.715C22.9867 14.6665 23.2303 14.0942 23.1472 13.4367Z" fill="#212121"/>
<path d="M26.8203 14.9C27.3726 14.9 27.8203 14.318 27.8203 13.6C27.8203 12.882 27.3726 12.3 26.8203 12.3C26.268 12.3 25.8203 12.882 25.8203 13.6C25.8203 14.318 26.268 14.9 26.8203 14.9Z" fill="#212121"/>
<path d="M40.1205 35.6C39.7205 35.4 39.0205 35.1 38.4205 34.2C38.1205 33.7 38.2206 32.3 37.7206 31.7C37.4206 31.3 37.0205 31.5 36.9205 31.5C36.0205 31.7 33.9205 33.1 32.5205 31.5C32.3205 31.3 32.0205 31 31.5205 31C31.0205 31 30.8205 31.2 30.6205 31.6C30.4205 32 30.4205 32.3 30.4205 33.3C30.4205 34.1 30.4205 35 30.3205 35.7C30.1205 37.4 29.8205 38.4 29.8205 39.4C29.8205 40.5 30.1206 41.2 30.5205 41.5C30.8205 41.8 31.3205 42 32.4205 42C33.5205 42 34.2205 41.6 34.9205 40.9C35.4205 40.4 35.8206 40.2 37.2206 39.2C38.3206 38.5 40.0205 37.6 40.3205 37.3C40.5205 37.1 40.8205 37 40.8205 36.4C40.8205 35.9 40.4205 35.7 40.1205 35.6ZM20.0205 35.9C19.0205 34.3 18.9205 34 18.2205 33C17.6205 32 16.3205 30.1 15.5205 30.1C14.9205 30.1 14.6205 30.4 14.2205 30.8C13.8205 31.2 13.4205 32.1 12.7205 32.6C12.1205 33.1 10.4205 33 10.0205 33.6C9.62055 34.2 10.4205 35.1 10.4205 36.6C10.4205 37.2 9.92055 37.6 9.82055 38C9.72055 38.5 9.62055 38.8 9.82055 39.2C10.2205 39.8 10.7205 40 14.1205 40.7C15.9205 41.1 17.6205 42.1 18.7205 42.2C19.8205 42.3 21.7205 42.2 21.7205 39.5C21.8205 37.9 20.9205 37.5 20.0205 35.9ZM21.9205 17.8C21.3205 17.4 20.8205 17 20.8205 16.4C20.8205 15.8 21.2205 15.6 21.8205 15.1C21.9205 15 23.0205 14 24.1205 14C25.2205 14 26.5205 14.7 27.0205 14.9C27.9205 15.1 28.8205 15.3 28.7205 16C28.6205 17 28.5205 17.2 27.5205 17.7C26.8205 17.9 25.5205 19 24.6205 19C24.2205 19 23.6205 19 23.2205 18.9C22.9205 18.8 22.4205 18.3 21.9205 17.8Z" fill="#FFC107"/>
<path d="M21.7203 17C21.9203 17.2 22.2203 17.4 22.5203 17.5C22.7203 17.6 23.0203 17.7 23.0203 17.7H23.9203C24.4203 17.7 25.1203 17.5 25.8203 17.1C26.5203 16.8 26.6203 16.6 27.1203 16.4C27.6203 16.1 28.1203 15.8 27.9203 15.7C27.7203 15.6 27.5203 15.7 26.8203 16.1C26.2203 16.5 25.7203 16.7 25.1203 17C24.8203 17.1 24.4203 17.3 24.1203 17.3H23.2203C22.9203 17.3 22.7203 17.2 22.4203 17.1C22.2203 17 22.1203 16.9 22.0203 16.9C21.8203 16.8 21.4203 16.4 21.2203 16.3C21.2203 16.3 21.0203 16.3 21.1203 16.4L21.7203 17ZM24.7203 14.8C24.8203 15 25.0203 15 25.1203 15.1C25.2203 15.2 25.3203 15.2 25.3203 15.2C25.4203 15.1 25.3203 14.9 25.2203 14.9C25.2203 14.7 24.7203 14.7 24.7203 14.8ZM23.1203 15C23.1203 15.1 23.3203 15.2 23.3203 15.1C23.4203 15 23.5203 14.9 23.6203 14.9C23.8203 14.8 23.7203 14.7 23.4203 14.7C23.2203 14.8 23.2203 14.9 23.1203 15Z" fill="#634703"/>
<path d="M32.8204 32.7V33C33.0204 33.4 33.5204 33.5 33.9204 33.5C34.5204 33.5 35.1204 33.1 35.4204 32.7C35.4204 32.6 35.5204 32.5 35.6204 32.4C35.8204 32.1 35.9204 31.9 36.0204 31.8C36.0204 31.8 35.9204 31.7 35.9204 31.6C35.8204 31.4 35.5204 31.2 35.1204 31.1C34.8204 31 34.3204 30.9 34.1204 30.9C33.2204 30.8 32.7204 31.1 32.4204 31.4C32.4204 31.4 32.5204 31.4 32.5204 31.5C32.7204 31.7 32.8204 31.9 32.8204 32.2C32.9204 32.4 32.8204 32.5 32.8204 32.7Z" fill="#455A64"/>
</svg>
