<svg width="49" height="48" viewBox="0 0 49 48" fill="none" xmlns="http://www.w3.org/2000/svg">
<path d="M5 6H8.7283V30.745H23.4741V33.7973H5V6ZM35.1015 12.7121C31.2877 12.6608 27.4749 15.0848 26.2867 18.7618C24.5925 22.9998 25.3711 28.3222 28.6935 31.5592C31.9145 34.2364 36.7613 34.4404 40.3882 32.5434C42.8807 31.2206 44.4563 28.5939 44.7962 25.83C45.2361 22.9501 45.0174 19.7963 43.6105 17.1865C41.9481 14.4067 38.6952 12.611 35.4742 12.7284L35.1015 12.6783V12.7121ZM35.4401 15.6606C38.2371 15.6606 40.7452 17.7961 41.2024 20.543C42.0508 23.6429 41.5423 27.4398 38.9997 29.6265C36.627 31.5592 32.812 31.2892 30.8634 28.8993C28.4907 26.3554 28.4907 22.4572 29.7118 19.4074C30.5589 17.2034 32.8117 15.6277 35.1856 15.6778H35.4901L35.4401 15.6606Z" fill="white"/>
<path d="M5 37.7456H44.998V41.9824H5V37.7456Z" fill="#3492FF"/>
</svg>
