<svg width="49" height="48" viewBox="0 0 49 48" fill="none" xmlns="http://www.w3.org/2000/svg">
<path d="M44.6857 34.9791C43.5817 37.4234 43.0537 38.5163 41.6359 40.6763C39.655 43.693 36.858 47.4573 33.4002 47.4831C30.3245 47.509 29.5307 45.4763 25.3565 45.5096C21.1824 45.5299 20.3128 47.52 17.2334 47.4886C13.7756 47.4573 11.1282 44.0659 9.14544 41.0548C3.60144 32.6086 3.01621 22.7096 6.44267 17.4425C8.86667 13.7077 12.703 11.5145 16.3048 11.5145C19.9731 11.5145 22.279 13.5305 25.3122 13.5305C28.255 13.5305 30.0476 11.509 34.2901 11.509C37.4987 11.509 40.8919 13.2573 43.3159 16.2739C35.3848 20.6197 36.6734 31.9477 44.6857 34.9791ZM31.0704 8.13788C32.6137 6.15695 33.7842 3.36188 33.3596 0.511414C30.8414 0.683106 27.8968 2.29111 26.1762 4.37357C24.6181 6.26957 23.3257 9.0868 23.8297 11.8117C26.5768 11.9003 29.4199 10.2628 31.0704 8.13788Z" fill="#959595"/>
</svg>
