<svg width="49" height="48" viewBox="0 0 49 48" fill="none" xmlns="http://www.w3.org/2000/svg">
<path d="M47.4418 8.00065C46.7 8.02456 46.9345 8.23915 45.3318 8.63501C43.7134 9.03501 41.7363 8.91246 39.9934 9.64621C34.7909 11.8371 33.7468 19.3247 29.017 22.0069C25.4815 24.0119 21.9147 24.1718 18.7079 25.1807C16.6004 25.8442 14.295 27.205 12.3855 28.8569C10.9035 30.1399 10.8648 31.2679 9.31626 32.8767C7.65968 34.5977 2.73289 32.9059 0.5 35.5399C1.21936 36.27 1.5347 36.4746 2.95224 36.2853C2.65865 36.8436 0.928767 37.3142 1.26736 38.1358C1.62357 39.0004 5.80625 39.5863 9.60816 37.2816C11.3787 36.2083 12.7891 34.6614 15.5468 34.292C19.1153 33.8145 23.226 34.5983 27.3573 35.1965C26.7446 37.0303 25.5149 38.2497 24.5297 39.7102C24.2247 40.0402 25.1424 40.0771 26.1895 39.8777C28.0731 39.4102 29.4304 39.0335 30.8521 38.2028C32.5983 37.182 32.863 34.5652 35.0057 33.999C36.1996 35.8412 39.4466 36.2766 41.4614 34.8027C39.6935 34.3003 39.2049 30.5221 39.8017 28.8571C40.3669 27.281 40.9254 24.76 41.4948 22.6768C42.106 20.4394 42.3315 17.6195 43.0711 16.4797C44.1842 14.7651 45.4139 14.1763 46.4814 13.2093C47.5489 12.2423 48.5262 11.3014 48.4942 9.08884C48.4837 8.37637 48.1168 7.97901 47.4418 8.00065Z" fill="#002B64"/>
<path d="M46.07 9.31152C46.2479 9.9199 46.526 10.1992 47.7283 10.3109C47.5526 11.8412 46.5359 12.6785 45.3959 13.4815C44.3925 14.1879 43.2934 14.8682 42.5872 15.9719C41.8635 17.1022 41.4042 20.9712 40.2823 24.792C39.3125 28.0935 37.8481 31.3576 35.2907 32.788C35.0235 32.1128 35.3248 30.8665 34.7933 30.4569C34.4494 31.4416 34.0608 32.3811 33.6054 33.2541C32.1048 36.1341 29.883 38.2902 26.1699 38.9486C27.9317 36.555 29.6162 34.0833 29.6528 29.9579C28.413 30.2271 28.4392 33.1677 27.1653 33.9538C26.3486 34.043 25.5211 34.0424 24.6887 33.9922C21.269 33.7864 17.7609 32.7545 14.5619 33.7851C12.3838 34.4871 10.6023 36.1428 8.75792 36.946C6.59008 37.89 4.94832 38.2781 2.24898 37.89C1.90608 37.4263 4.22465 36.8283 4.08591 35.8216C3.02946 35.7044 2.41602 35.9613 1.49756 35.5425C1.59899 35.3548 1.74803 35.1986 1.9357 35.0685C3.6189 33.8986 8.40002 34.7922 9.67938 33.5306C10.4692 32.7527 10.9874 31.9382 11.524 31.1466C12.0443 30.3784 12.5819 29.6317 13.4014 28.9586C13.7177 28.7 14.0448 28.4552 14.3819 28.2248C15.7783 27.2654 17.5057 26.3952 19.2058 25.7953C21.5214 24.978 23.8681 24.9106 26.3364 23.9638C27.8612 23.3785 29.5195 22.6559 30.871 21.6447C31.1894 21.4078 31.4918 21.1501 31.7764 20.8731C35.6358 17.0956 36.4009 10.4321 42.4224 9.8111C43.1506 9.73618 43.7466 9.76028 44.2893 9.7439C44.9146 9.72508 45.4682 9.65223 46.07 9.31152ZM38.7294 30.6386C38.8012 31.7932 39.469 34.0844 40.0585 34.6412C38.904 34.923 36.9154 34.4573 36.4052 33.6398C36.6673 32.4594 38.0314 31.3804 38.7294 30.6386Z" fill="#C49A6C"/>
<path d="M46.2863 10.6045C46.0542 11.0934 45.6099 11.7234 45.6099 12.9676C45.608 13.1813 45.4483 13.3275 45.4456 12.9983C45.4576 11.7823 45.7782 11.2566 46.1187 10.5657C46.2769 10.2826 46.3723 10.3993 46.2863 10.6045ZM46.0525 10.4204C45.7788 10.8869 45.1196 11.7373 45.0105 12.9768C44.9904 13.1896 44.8183 13.3209 44.8444 12.9925C44.9632 11.7825 45.4901 11.0252 45.89 10.3668C46.0713 10.0991 46.1566 10.2237 46.0525 10.4204ZM45.8395 10.1765C45.5276 10.6179 44.5129 11.6394 44.3007 12.8656C44.2624 13.0753 44.08 13.1924 44.1338 12.8673C44.3532 11.6712 45.228 10.7312 45.6815 10.1096C45.8847 9.85741 45.959 9.98918 45.8395 10.1765ZM45.6494 9.90428L45.5467 10.014C45.093 10.5023 44.039 11.6935 43.6878 12.7839C43.6203 12.9863 43.4233 13.0764 43.5221 12.7619C43.9068 11.6088 44.9662 10.3668 45.5023 9.81543C45.739 9.59482 45.794 9.73562 45.6494 9.90428ZM40.2031 12.373C40.4382 11.3592 41.2236 10.8972 42.5792 11.0098C42.9064 12.5232 41.0757 13.1336 40.2031 12.373Z" fill="#002B64"/>
</svg>
