<svg width="49" height="48" viewBox="0 0 49 48" fill="none" xmlns="http://www.w3.org/2000/svg">
<path d="M48.2878 4.56824C48.1642 4.46662 48.0074 4.41427 47.8475 4.42124C47.4095 4.42124 46.8425 4.71861 46.5369 4.87799L46.4161 4.93986C45.9044 5.18772 45.3473 5.3281 44.7793 5.35236C44.1965 5.37074 43.6948 5.40486 43.0411 5.47311C39.1685 5.87061 37.4412 8.83874 35.7774 11.7094C34.8714 13.2709 33.9361 14.8927 32.6536 16.1317C32.3881 16.3891 32.106 16.6288 31.8091 16.8491C30.4816 17.8357 28.8147 18.5404 27.518 19.0391C26.2696 19.5165 24.9065 19.9455 23.5903 20.3606C22.3831 20.7401 21.2446 21.0994 20.1973 21.4886C19.7905 21.6384 19.381 21.7809 18.9691 21.9161C18.0147 22.2255 17.3274 22.4629 16.3216 23.1551C15.9613 23.3997 15.6105 23.6581 15.2701 23.9299C14.4722 24.5666 13.7659 25.3104 13.1713 26.1401C12.6599 26.9056 12.069 27.6148 11.4084 28.2559C11.1961 28.4636 10.8196 28.5656 10.2556 28.5656C9.59562 28.5656 8.795 28.4295 7.94788 28.2855C7.07413 28.1306 6.17112 27.9836 5.39675 27.9836C4.76787 27.9836 4.286 28.086 3.92675 28.2934C3.92675 28.2934 3.32037 28.6466 3.065 29.1034L3.31625 29.2166C3.7055 29.4275 4.06586 29.6877 4.38838 29.991C4.72461 30.3019 5.09928 30.5684 5.50325 30.7841C5.63235 30.8313 5.74977 30.9057 5.8475 31.0024C5.74213 31.1572 5.58725 31.3571 5.42412 31.5709C4.53012 32.7405 4.00888 33.4796 4.30775 33.882C4.451 33.9564 4.61104 33.9926 4.77238 33.987C6.72087 33.987 7.76825 33.4807 9.09237 32.8395C9.47637 32.6539 9.86713 32.463 10.3317 32.2665C11.1061 31.9305 11.9398 31.3946 12.8244 30.8272C13.9809 30.0735 15.1906 29.2987 16.3651 28.9252C17.33 28.6308 18.3351 28.4897 19.3438 28.5071C20.5831 28.5071 21.8874 28.6725 23.1455 28.8341C24.0826 28.9549 25.0539 29.0786 26.0067 29.136C26.3765 29.1574 26.7192 29.1682 27.0519 29.1682C27.4974 29.1699 27.9428 29.1467 28.3857 29.0989L28.4923 29.0614C29.1601 28.6511 29.4736 27.7699 29.7766 26.9175C29.9716 26.3692 30.1366 25.8769 30.3961 25.5637C30.4114 25.5486 30.428 25.5348 30.4456 25.5225C30.4578 25.5157 30.4718 25.5133 30.4856 25.5154C30.4993 25.5176 30.5119 25.5243 30.5214 25.5345V25.5592C30.3669 28.8911 29.0251 31.0069 27.6684 32.8879L26.7624 33.8591C26.7624 33.8591 28.031 33.8591 28.7525 33.5801C31.3865 32.793 33.374 31.0582 34.8204 28.2915C35.1773 27.5814 35.4964 26.8529 35.7762 26.109C35.8006 26.0471 36.0286 25.9327 36.0072 26.253C35.9994 26.3475 35.993 26.4529 35.9851 26.5631C35.9851 26.628 35.9851 26.6944 35.9728 26.7611C35.9352 27.2261 35.8258 28.2082 35.8258 28.2082L36.6391 27.7725C38.6 26.5335 40.1116 24.0337 41.2584 20.1439C41.7354 18.5235 42.0853 16.914 42.3935 15.4969C42.7621 13.7925 43.0798 12.3319 43.4439 11.7649C44.0154 10.8761 44.8876 10.275 45.7318 9.69111C45.8465 9.61199 45.9627 9.53586 46.0756 9.45224C47.1369 8.70749 48.1917 7.84761 48.4242 6.24411V6.20849C48.593 5.01261 48.4505 4.70736 48.2878 4.56824ZM45.5566 43.4659H41.684V36.72H45.1771C46.5121 36.72 47.7841 36.9712 47.7654 38.4675C47.7654 39.5224 47.1103 39.8137 46.4195 39.9247C47.4001 40.0087 47.99 40.6342 47.99 41.6445C47.9964 43.1576 46.6689 43.4662 45.5566 43.4662V43.4659ZM45.2671 39.6634C46.604 39.6634 46.9029 39.1489 46.9029 38.4952C46.9029 37.5131 46.3047 37.29 45.2671 37.29H42.4914V39.663L45.2671 39.6634ZM45.3042 40.2334H42.4914V42.8959H45.425C46.2477 42.8959 47.1166 42.6247 47.1166 41.5886C47.1166 40.3924 46.1172 40.2334 45.3042 40.2334ZM33.4929 36.7196H36.5397C39.1003 36.7196 40.3797 38.1311 40.361 40.0924C40.3797 42.1309 38.9675 43.4662 36.7644 43.4662H33.4925L33.4929 36.7196ZM34.3336 37.3181V42.8775H36.6575C38.6945 42.8775 39.4704 41.5031 39.4704 40.0736C39.4704 38.4577 38.4991 37.3181 36.6579 37.3181H34.3336ZM30.2694 39.327V38.5414H31.5459V43.4659H30.2739V42.6731C29.9379 43.2431 29.2467 43.5697 28.4056 43.5697C26.6491 43.5697 25.667 42.3304 25.667 40.9054C25.667 39.5314 26.5966 38.427 28.2185 38.427C29.1388 38.4379 29.9053 38.7476 30.2694 39.327ZM27.0163 40.9721C27.0163 41.8781 27.5862 42.654 28.6895 42.654C29.7549 42.654 30.3342 41.8965 30.3342 40.9999C30.3342 40.1029 29.7346 39.3364 28.6302 39.3364C27.5697 39.3364 27.0177 40.1014 27.0177 40.9721H27.0163ZM23.2614 37.242C23.2587 37.1526 23.2747 37.0636 23.3083 36.9808C23.3419 36.8979 23.3923 36.8229 23.4564 36.7605C23.5205 36.6982 23.5969 36.6498 23.6807 36.6186C23.7645 36.5873 23.8538 36.5739 23.9431 36.579C24.034 36.5761 24.1246 36.5917 24.2093 36.6248C24.294 36.658 24.3711 36.708 24.4359 36.7719C24.5007 36.8358 24.5518 36.9121 24.5861 36.9964C24.6205 37.0806 24.6374 37.1709 24.6357 37.2619C24.6376 37.3516 24.6206 37.4407 24.586 37.5234C24.5513 37.6062 24.4997 37.6808 24.4344 37.7424C24.3692 37.804 24.2917 37.8513 24.2071 37.8811C24.1225 37.911 24.0326 37.9228 23.9431 37.9159C23.8532 37.9198 23.7635 37.9051 23.6795 37.8727C23.5956 37.8403 23.5192 37.791 23.4552 37.7277C23.3912 37.6645 23.3409 37.5887 23.3076 37.5051C23.2742 37.4215 23.2585 37.3319 23.2614 37.242ZM23.3176 38.5414H24.5889V42.1399C24.5889 42.363 24.6358 42.5224 24.8214 42.5224C24.903 42.5204 24.9843 42.5112 25.0644 42.495L25.2612 43.4242C24.9938 43.5302 24.7082 43.5829 24.4205 43.5795C23.8876 43.5795 23.3172 43.4242 23.3172 42.2145L23.3176 38.5414ZM20.0563 43.4662H18.7865V38.5417H20.0563V39.645C20.2017 39.2922 20.4474 38.9898 20.763 38.7753C21.0787 38.5607 21.4503 38.4436 21.8319 38.4382C22.1024 38.4343 22.3714 38.4783 22.6265 38.5684L22.3554 39.498C22.1359 39.4395 21.9101 39.4081 21.683 39.4046C20.7661 39.4046 20.0563 40.0957 20.0563 41.109V43.4662ZM15.9174 39.3274V38.5417H17.1894V43.4662H15.9174V42.6735C15.5814 43.2435 14.8906 43.5701 14.0491 43.5701C12.2911 43.5701 11.3105 42.3307 11.3105 40.9057C11.3105 39.5317 12.2401 38.4274 13.862 38.4274C14.7867 38.4382 15.5532 38.748 15.9174 39.3274ZM12.6642 40.9725C12.6642 41.8785 13.2343 42.6544 14.3375 42.6544C15.4018 42.6544 15.9811 41.8969 15.9811 41.0002C15.9811 40.1036 15.383 39.3367 14.2771 39.3367C13.2174 39.3367 12.6661 40.1017 12.6661 40.9725H12.6642ZM9.19925 36.72L10.9434 43.4662H9.62712L8.465 38.6062L6.275 43.4662H5.16313L2.98513 38.6351L1.78887 43.4662H0.5L2.22875 36.72H3.36875L5.72375 41.9437L8.06863 36.72H9.19925Z" fill="#003545"/>
</svg>
