<svg width="48" height="48" viewBox="0 0 48 48" fill="none" xmlns="http://www.w3.org/2000/svg">
<path d="M16.9 31.82H12.134V20.808H12.078L8.412 25.716L4.82 20.808H4.78V31.822H0V13.616H4.526L8.412 18.958L12.372 13.616H16.9V31.82ZM33.898 31.82H29.13V26.054H23.92C23.936 28.076 24.666 30.032 25.748 31.822L21.864 34.39C20.824 32.804 19.034 29.474 19.034 25.336C19.034 23.306 19.456 19.452 22.31 16.596C23.7868 15.1098 25.7092 14.1475 27.784 13.856C29.704 13.556 31.656 13.616 33.594 13.616L34.704 17.718H30.96C29.408 17.718 28.182 17.9427 27.282 18.392C26.008 19.032 25.264 19.636 24.388 21.952H29.132V18.272H33.9L33.898 31.82ZM41.742 27.72H48L46.89 31.82H36.966V13.618H41.742V27.72Z" fill="#4EACFF"/>
</svg>
