<svg width="49" height="48" viewBox="0 0 49 48" fill="none" xmlns="http://www.w3.org/2000/svg">
<path d="M0.5 34.2424H2.09075V27.9622L4.553 33.4365C4.84288 34.1002 5.24 34.3331 6.02075 34.3331C6.8015 34.3331 7.1825 34.1002 7.47237 33.4365L9.93463 27.9622V34.242H11.5254V27.9727C11.5254 27.3604 11.2809 27.0645 10.7754 26.9122C9.56675 26.5357 8.75675 26.8609 8.38925 27.6769L5.97388 33.0806L3.63462 27.6769C3.28325 26.8609 2.45713 26.5357 1.25 26.9122C0.7445 27.0645 0.5 27.3604 0.5 27.9727L0.5 34.2424ZM12.8488 29.13H14.438V32.5901C14.4234 32.7776 14.498 33.2186 15.3695 33.2332H18.8281V29.1124H20.4219C20.4294 29.1124 20.4189 34.7314 20.4189 34.755C20.4275 36.1406 18.7006 36.441 17.9037 36.4646H12.8825V35.3951L17.9128 35.3936C18.9365 35.2867 18.815 34.7767 18.815 34.6069V34.1895H15.4355C13.8624 34.1749 12.8619 33.4879 12.8488 32.6981C12.8472 32.6265 12.8825 29.1652 12.8488 29.13Z" fill="#00618A"/>
<path d="M21.6467 34.2424H26.2199C26.7546 34.2424 27.2747 34.1295 27.6876 33.9364C28.3761 33.6214 28.7114 33.1924 28.7114 32.6314V31.4696C28.7114 31.011 28.3304 30.582 27.5804 30.2977C27.1832 30.144 26.6927 30.0634 26.2195 30.0634H24.2916C23.65 30.0634 23.344 29.8699 23.2679 29.4424C23.2532 29.391 23.2532 29.3501 23.2532 29.2987V28.575C23.2532 28.5341 23.2532 28.4929 23.2679 28.4419C23.344 28.1167 23.5124 28.0245 24.0779 27.9731L24.2316 27.963H28.7725V26.904H24.3081C23.6665 26.904 23.3297 26.9449 23.0234 27.036C22.0757 27.3319 21.6625 27.8006 21.6625 28.6166V29.544C21.6625 30.2572 22.4725 30.8696 23.8334 31.0117L24.292 31.0324H25.9442C26.0057 31.0324 26.0657 31.0324 26.1126 31.0425C26.6166 31.0834 26.8304 31.1756 26.9841 31.359C27.0632 31.4321 27.1086 31.5364 27.1056 31.6432V32.5721C27.1056 32.6835 27.0295 32.8271 26.8772 32.9486C26.7396 33.0716 26.5097 33.1522 26.2049 33.1729L26.0365 33.183H21.6467V34.2424ZM38.6331 32.3966C38.6331 33.4879 39.4446 34.0987 41.0792 34.2217L41.5394 34.2424H45.6835V33.1819H41.5086C40.5756 33.1819 40.2239 32.9475 40.2239 32.3865V26.9017H38.6346V32.3962L38.6331 32.3966ZM29.7269 32.4521V28.6714C29.7269 27.7117 30.4022 27.129 31.735 26.9456C31.8772 26.9251 32.0207 26.9148 32.1644 26.9149H35.182C35.3357 26.9149 35.4734 26.925 35.6275 26.9456C36.9606 27.1286 37.6345 27.7117 37.6345 28.6714V32.4521C37.6345 33.2314 37.3487 33.6476 36.6884 33.9199L38.2559 35.3336H36.4086L35.1415 34.1895L33.8657 34.2701H32.1651C31.849 34.2691 31.5346 34.2247 31.2306 34.1381C30.2185 33.8629 29.7276 33.3311 29.7276 32.4521H29.7269ZM31.4436 32.3599C31.4436 32.4112 31.4582 32.4622 31.4744 32.5241C31.5666 32.9636 31.9799 33.2081 32.608 33.2081H34.0525L32.7254 32.01H34.5726L35.7299 33.0559C35.9436 32.9415 36.0827 32.7686 36.1326 32.5447C36.1472 32.4934 36.1472 32.4424 36.1472 32.391V28.7655C36.1472 28.7246 36.1472 28.6732 36.1326 28.6219C36.0404 28.2131 35.6271 27.9787 35.0136 27.9787H32.6084C31.9037 27.9787 31.444 28.2847 31.444 28.7655L31.4436 32.3599Z" fill="#E48E00"/>
<path d="M47.0821 25.1426C46.1052 25.1164 45.3579 25.2071 44.7192 25.4768C44.5377 25.5529 44.2475 25.5544 44.2182 25.7816C44.318 25.887 44.3341 26.0438 44.4132 26.1713C44.5655 26.4188 44.8235 26.7484 45.0534 26.9213L45.8311 27.4778C46.3085 27.7691 46.8432 27.9364 47.3049 28.2278C47.576 28.4006 47.8452 28.6174 48.1104 28.8124C48.2409 28.9076 48.3286 29.0584 48.5 29.1184V29.0906C48.4107 28.9763 48.3871 28.8195 48.305 28.701L47.9431 28.3391C47.5902 27.8704 47.1417 27.4586 46.6644 27.1159C46.2834 26.8433 45.434 26.4743 45.2742 26.0318L45.2465 26.004C45.5161 25.9748 45.8326 25.8765 46.0801 25.8105C46.499 25.6976 46.8725 25.7269 47.3034 25.6155L47.888 25.4471V25.3373C47.6697 25.113 47.5145 24.8171 47.2756 24.6135C46.6546 24.0848 45.9747 23.5545 45.2746 23.112C44.8865 22.8675 44.4076 22.7093 43.9959 22.5011C43.8582 22.431 43.6149 22.3958 43.5226 22.2784C43.3074 22.0031 43.19 21.6544 43.0231 21.3334L42.0226 19.221C41.8119 18.7391 41.6739 18.2629 41.4102 17.8309C40.1491 15.7553 38.7897 14.5028 36.6845 13.2724C36.2379 13.0103 35.6971 12.9075 35.129 12.7729L34.2106 12.7174C34.0246 12.6383 33.8311 12.4099 33.6556 12.3C32.9585 11.859 31.1697 10.9013 30.6526 12.1609C30.3275 12.9563 31.1405 13.7325 31.4319 14.1356C31.6355 14.4184 31.8976 14.7349 32.0427 15.0525C32.1395 15.2606 32.1556 15.4699 32.2377 15.6911C32.4399 16.236 32.6157 16.8278 32.8779 17.3318C33.0099 17.5868 33.1546 17.8549 33.3219 18.0818C33.4242 18.2209 33.6001 18.2839 33.6279 18.4991C33.4565 18.7395 33.4464 19.1115 33.3496 19.416C32.9146 20.7855 33.0785 22.4876 33.7115 23.5028C33.905 23.8133 34.3617 24.4811 34.9902 24.225C35.5396 24.0008 35.4166 23.3081 35.5734 22.6958C35.6101 22.5581 35.588 22.4554 35.657 22.3631V22.3909L36.158 23.3914C36.5285 23.9876 37.1847 24.6101 37.7416 25.0305C38.0315 25.2488 38.2587 25.6268 38.6322 25.7543V25.725H38.6045C38.5314 25.6136 38.4185 25.5668 38.3262 25.476C38.108 25.2623 37.8661 24.9971 37.6876 24.7523C37.1806 24.0653 36.7325 23.3123 36.3252 22.5285C36.1302 22.155 35.9604 21.7418 35.7965 21.3611C35.7335 21.2145 35.735 20.9921 35.603 20.9171C35.423 21.1954 35.1579 21.4211 35.0184 21.7508C34.7956 22.2765 34.7679 22.9196 34.6842 23.5849L34.6287 23.6126C34.2421 23.5189 34.1056 23.1206 33.9624 22.779C33.5975 21.9146 33.5304 20.5215 33.851 19.527C33.9331 19.2694 34.3081 18.4575 34.1559 18.2205C34.0842 17.9831 33.8454 17.8455 33.7119 17.664C33.5373 17.4206 33.3882 17.16 33.2667 16.8863C32.9694 16.2109 32.8302 15.4553 32.5167 14.7739C32.3675 14.4473 32.114 14.1176 31.9059 13.8278C31.6745 13.5071 31.4165 13.2713 31.238 12.8828C31.175 12.7451 31.0887 12.5239 31.1825 12.3818C31.2117 12.2865 31.2556 12.2471 31.3494 12.2164C31.5106 12.0919 31.9602 12.2573 32.1271 12.3263C32.5737 12.5123 32.9461 12.6881 33.3237 12.9386C33.5037 13.0586 33.6871 13.2915 33.9069 13.356H34.1574C34.5485 13.4453 34.9865 13.3823 35.3529 13.4936C35.999 13.6898 36.5791 13.9961 37.1034 14.3288C38.7057 15.3394 40.0156 16.7794 40.9119 18.4976C41.057 18.7744 41.1185 19.038 41.246 19.3313C41.5025 19.923 41.8246 20.5324 42.0796 21.111C42.3346 21.6896 42.5821 22.2713 42.941 22.7516C43.13 23.0036 43.8609 23.1383 44.192 23.2789C44.4249 23.3771 44.8059 23.4795 45.0256 23.613C45.4475 23.8665 45.8547 24.168 46.2504 24.4466C46.4465 24.5873 47.0532 24.8921 47.084 25.1423L47.0821 25.1426ZM34.6557 14.5519C34.4876 14.5492 34.3197 14.5678 34.1562 14.6074V14.6351H34.184C34.2807 14.8358 34.4521 14.9648 34.5721 15.1361L34.8504 15.7193L34.8781 15.693C35.051 15.5715 35.1286 15.3765 35.1286 15.0806C35.0585 15.0075 35.0495 14.9168 34.9895 14.8301C34.9104 14.7143 34.757 14.6501 34.6557 14.5519Z" fill="#00618A"/>
</svg>
