<svg width="49" height="48" viewBox="0 0 49 48" fill="none" xmlns="http://www.w3.org/2000/svg">
<mask id="mask0_6_631" style="mask-type:luminance" maskUnits="userSpaceOnUse" x="0" y="0" width="49" height="48">
<path d="M24.98 48C38.2348 48 48.98 37.2548 48.98 24C48.98 10.7452 38.2348 0 24.98 0C11.7251 0 0.97998 10.7452 0.97998 24C0.97998 37.2548 11.7251 48 24.98 48Z" fill="white"/>
</mask>
<g mask="url(#mask0_6_631)">
<path d="M24.98 48C38.2348 48 48.98 37.2548 48.98 24C48.98 10.7452 38.2348 0 24.98 0C11.7251 0 0.97998 10.7452 0.97998 24C0.97998 37.2548 11.7251 48 24.98 48Z" fill="black"/>
<path d="M40.8488 42.0052L19.4177 14.4H15.3799V33.5919H18.6101V18.5025L38.313 43.9586C39.2008 43.3646 40.0479 42.7121 40.8488 42.0052Z" fill="url(#paint0_linear_6_631)"/>
<path d="M31.6467 14.4H34.8468V33.6H31.6467V14.4Z" fill="url(#paint1_linear_6_631)"/>
</g>
<defs>
<linearGradient id="paint0_linear_6_631" x1="1432.29" y1="1681.06" x2="2282.8" y2="2735.23" gradientUnits="userSpaceOnUse">
<stop stop-color="white"/>
<stop offset="1" stop-color="white" stop-opacity="0"/>
</linearGradient>
<linearGradient id="paint1_linear_6_631" x1="191.65" y1="14.4" x2="186.236" y2="1424.39" gradientUnits="userSpaceOnUse">
<stop stop-color="white"/>
<stop offset="1" stop-color="white" stop-opacity="0"/>
</linearGradient>
</defs>
</svg>
