<svg width="49" height="48" viewBox="0 0 49 48" fill="none" xmlns="http://www.w3.org/2000/svg">
<path d="M24.8203 0L3.82031 12V36L24.8203 48L45.8203 36V12L24.8203 0ZM36.8203 34.5C36.8203 34.8978 36.6623 35.2794 36.381 35.5607C36.0997 35.842 35.7181 36 35.3203 36H31.5403C31.3156 35.9999 31.0938 35.9492 30.8913 35.8519C30.6888 35.7545 30.5107 35.6129 30.3703 35.4375L18.8203 21V34.5C18.8203 34.8978 18.6623 35.2794 18.381 35.5607C18.0997 35.842 17.7181 36 17.3203 36H14.3203C13.9225 36 13.541 35.842 13.2597 35.5607C12.9783 35.2794 12.8203 34.8978 12.8203 34.5V13.5C12.8203 13.1022 12.9783 12.7206 13.2597 12.4393C13.541 12.158 13.9225 12 14.3203 12H18.1003C18.325 12.0001 18.5468 12.0508 18.7493 12.1481C18.9518 12.2455 19.1299 12.3871 19.2703 12.5625L30.8203 27V13.5C30.8203 13.1022 30.9783 12.7206 31.2597 12.4393C31.541 12.158 31.9225 12 32.3203 12H35.3203C35.7181 12 36.0997 12.158 36.381 12.4393C36.6623 12.7206 36.8203 13.1022 36.8203 13.5V34.5Z" fill="#43A047"/>
</svg>
