<svg width="44" height="48" viewBox="0 0 44 48" fill="none" xmlns="http://www.w3.org/2000/svg">
<path d="M22.24 47.911C21.5798 47.911 20.9636 47.7349 20.3914 47.4268L14.5372 43.9495C13.657 43.4654 14.0971 43.2893 14.3612 43.2013C15.5495 42.8052 15.7696 42.7172 17.002 42.0128C17.1342 41.9247 17.3103 41.9688 17.4421 42.0568L21.9319 44.7418C22.1079 44.8298 22.328 44.8298 22.4601 44.7418L40.0224 34.5743C40.1985 34.4862 40.2865 34.3102 40.2865 34.0901V13.7987C40.2865 13.5787 40.1985 13.4026 40.0224 13.3146L22.4601 3.1909C22.284 3.10287 22.0639 3.10287 21.9319 3.1909L4.36953 13.3147C4.19348 13.4028 4.10545 13.6228 4.10545 13.7989V34.0901C4.10545 34.2662 4.19348 34.4862 4.36953 34.5743L9.16738 37.3471C11.7644 38.6675 13.3927 37.1271 13.3927 35.5866V15.5593C13.3927 15.2952 13.6129 15.0311 13.921 15.0311H16.1659C16.43 15.0311 16.6941 15.2512 16.6941 15.5593V35.5864C16.6941 39.0637 14.8013 41.0883 11.5001 41.0883C10.4878 41.0883 9.69554 41.0883 7.45084 39.988L2.82905 37.3471C1.68469 36.6868 0.980469 35.4544 0.980469 34.134V13.8429C0.980469 12.5225 1.68469 11.2901 2.82905 10.6297L20.3914 0.462206C21.4917 -0.153987 22.9882 -0.153987 24.0886 0.462206L41.6509 10.6297C42.7953 11.2899 43.4995 12.5223 43.4995 13.8429V34.1341C43.4995 35.4545 42.7953 36.6869 41.6509 37.3471L24.0886 47.515C23.5164 47.7791 22.8562 47.9111 22.24 47.9111M27.6539 33.9581C19.9511 33.9581 18.3666 30.437 18.3666 27.4439C18.3666 27.1798 18.5867 26.9157 18.8948 26.9157H21.1835C21.4476 26.9157 21.6678 27.0917 21.6678 27.3558C22.0199 29.6886 23.0322 30.8331 27.6979 30.8331C31.3952 30.8331 32.9799 29.9968 32.9799 28.0162C32.9799 26.8717 32.5397 26.0354 26.7736 25.4631C21.9759 24.9789 18.9828 23.9226 18.9828 20.0934C18.9828 16.5279 21.9757 14.4153 26.9936 14.4153C32.6276 14.4153 35.4006 16.3519 35.7527 20.5774C35.7527 20.7095 35.7087 20.8415 35.6207 20.9735C35.5327 21.0615 35.4006 21.1495 35.2686 21.1495H32.9799C32.7596 21.1495 32.5397 20.9735 32.4955 20.7534C31.9674 18.3327 30.6029 17.5404 26.9936 17.5404C22.9444 17.5404 22.4601 18.9488 22.4601 20.0052C22.4601 21.2817 23.0322 21.6777 28.4901 22.3819C33.9042 23.0861 36.457 24.0986 36.457 27.884C36.4129 31.7574 33.2439 33.9581 27.6539 33.9581Z" fill="#539E43"/>
</svg>
