<svg width="49" height="48" viewBox="0 0 49 48" fill="none" xmlns="http://www.w3.org/2000/svg">
<path d="M41.8203 21.6143C41.8203 20.0658 41.819 18.9943 41.751 18.1622C41.6843 17.3476 41.5616 16.8947 41.3906 16.5596L41.3896 16.5587C41.0124 15.8176 40.4106 15.2141 39.6699 14.836V14.837C39.3345 14.6665 38.8818 14.5431 38.0674 14.4766C37.235 14.4088 36.163 14.4083 34.6143 14.4083C34.1128 14.4083 33.6444 14.1575 33.3662 13.7403L31.0801 10.3126V10.3116C30.2801 9.11164 30.0325 8.7677 29.7471 8.52937L29.5195 8.3614C29.2854 8.20529 29.0298 8.08271 28.7598 8.00007V8.00105C28.4056 7.89332 27.9899 7.878 26.5342 7.878H23.1064C21.6508 7.878 21.235 7.89332 20.8809 8.00105L20.8789 8.00203C20.5219 8.11024 20.1864 8.28937 19.8945 8.52839C19.6094 8.76244 19.37 9.09745 18.5605 10.3116V10.3126L16.2744 13.7403C15.9962 14.1575 15.5278 14.4083 15.0264 14.4083C13.4777 14.4083 12.4056 14.4088 11.5732 14.4766C10.7588 14.5431 10.3061 14.6665 9.9707 14.837C9.23019 15.2154 8.62785 15.8183 8.25098 16.5596L8.25 16.5626C8.07948 16.8962 7.9563 17.3477 7.88965 18.1622C7.82157 18.994 7.82031 20.0656 7.82031 21.6143V32.9161C7.82031 34.4648 7.82157 35.5361 7.88965 36.3682C7.95627 37.1824 8.07914 37.6348 8.25 37.9698L8.25195 37.9727C8.62702 38.7113 9.22961 39.3144 9.9707 39.6934L10.1025 39.755C10.425 39.8936 10.8608 39.9947 11.5732 40.0528C12.4056 40.1207 13.4777 40.1221 15.0264 40.1221H34.6143C36.163 40.1221 37.235 40.1207 38.0674 40.0528C38.8817 39.9864 39.3345 39.8639 39.6699 39.6934C40.4105 39.315 41.0127 38.7112 41.3896 37.9698L41.3906 37.9669C41.5611 37.6334 41.6843 37.1822 41.751 36.3682C41.8191 35.5364 41.8203 34.4648 41.8203 32.9161V21.6143ZM30.8701 26.4239C30.8701 24.8194 30.2332 23.2802 29.0986 22.1456C28.0349 21.0819 26.6155 20.456 25.1201 20.3819L24.8203 20.3741C23.2158 20.3741 21.6766 21.011 20.542 22.1456C19.4074 23.2802 18.7705 24.8194 18.7705 26.4239C18.7705 27.2184 18.9264 28.0053 19.2305 28.7393C19.5345 29.4733 19.9802 30.1404 20.542 30.7022C21.1038 31.264 21.7709 31.7097 22.5049 32.0137C23.2389 32.3178 24.0258 32.4737 24.8203 32.4737C25.6148 32.4737 26.4017 32.3178 27.1357 32.0137C27.8697 31.7097 28.5369 31.264 29.0986 30.7022C29.6604 30.1404 30.1061 29.4733 30.4102 28.7393C30.7142 28.0053 30.8701 27.2184 30.8701 26.4239ZM33.8701 26.4239C33.8701 27.6124 33.6364 28.7898 33.1816 29.8878C32.7269 30.9856 32.06 31.983 31.2197 32.8233C30.3794 33.6637 29.3812 34.3304 28.2832 34.7852C27.1853 35.2399 26.0086 35.4737 24.8203 35.4737C23.632 35.4737 22.4553 35.2399 21.3574 34.7852C20.2594 34.3304 19.2613 33.6637 18.4209 32.8233C17.5806 31.983 16.9138 30.9856 16.459 29.8878C16.0042 28.7898 15.7705 27.6124 15.7705 26.4239C15.7705 24.0237 16.7237 21.7217 18.4209 20.0245C20.1181 18.3273 22.4201 17.3741 24.8203 17.3741L25.2695 17.3848C27.5062 17.4959 29.6287 18.4335 31.2197 20.0245C32.9169 21.7217 33.8701 24.0237 33.8701 26.4239ZM44.8203 32.9161C44.8203 34.4151 44.8216 35.6298 44.7412 36.6124C44.6595 37.6112 44.4848 38.5016 44.0625 39.3292C43.3982 40.636 42.3379 41.6998 41.0322 42.3663L41.0303 42.3673C40.2018 42.7886 39.3105 42.9615 38.3105 43.043C37.328 43.1232 36.1135 43.1221 34.6143 43.1221H15.0264C13.5272 43.1221 12.3127 43.1232 11.3301 43.043C10.3301 42.9615 9.4388 42.7886 8.61035 42.3673L8.6084 42.3663C7.30713 41.7016 6.24381 40.6408 5.5791 39.3331C5.15618 38.5042 4.98126 37.6127 4.89942 36.6124C4.81904 35.6296 4.82031 34.415 4.82031 32.9161V21.6143C4.82031 20.1151 4.819 18.8997 4.89942 17.9171C4.98119 16.9182 5.15567 16.0279 5.57813 15.2003H5.57715C6.24149 13.8934 7.30269 12.8307 8.6084 12.1641L8.61035 12.1632C9.43884 11.7418 10.3301 11.5689 11.3301 11.4874C12.1308 11.4221 13.0854 11.4102 14.2227 11.4083L16.0645 8.64753C16.7659 7.5953 17.2788 6.7939 17.9932 6.20808L17.9941 6.2071C18.5861 5.72236 19.2711 5.35371 20.0098 5.12996V5.13093C20.8911 4.86324 21.839 4.878 23.1064 4.878H26.5342C27.6441 4.878 28.5091 4.8662 29.2988 5.04304L29.6328 5.13093L29.6348 5.13191C30.3686 5.35613 31.0515 5.72134 31.6455 6.2071L31.6523 6.21199C32.3598 6.7973 32.8709 7.58959 33.5762 8.64753L35.417 11.4083C36.5547 11.4102 37.5096 11.4221 38.3105 11.4874C39.1857 11.5587 39.9775 11.7001 40.7168 12.0167L41.0303 12.1632L41.0322 12.1641C42.3374 12.83 43.3988 13.8916 44.0635 15.1973H44.0625C44.4851 16.026 44.6594 16.9171 44.7412 17.9171C44.8216 18.8999 44.8203 20.1151 44.8203 21.6143V32.9161Z" fill="white"/>
</svg>
