<svg width="49" height="48" viewBox="0 0 49 48" fill="none" xmlns="http://www.w3.org/2000/svg">
<path d="M0.97998 24C0.97998 30.9724 11.7252 36.6251 24.98 36.6251C38.2347 36.6251 48.98 30.9724 48.98 24C48.98 17.0276 38.2344 11.3749 24.98 11.3749C11.7256 11.3749 0.97998 17.0276 0.97998 24Z" fill="url(#paint0_radial_7_1396)"/>
<path d="M24.98 35.6876C37.7169 35.6876 48.0425 30.4545 48.0425 24C48.0425 17.5448 37.7169 12.3124 24.98 12.3124C12.2431 12.3124 1.91748 17.5448 1.91748 24C1.91748 30.4545 12.2431 35.6876 24.98 35.6876Z" fill="#777BB3"/>
<path d="M14.0194 25.449C15.0668 25.449 15.8483 25.2559 16.3429 24.8753C16.8327 24.498 17.1706 23.8451 17.3479 22.9346C17.5129 22.0834 17.4499 21.4894 17.1604 21.1684C16.8649 20.8406 16.2256 20.6745 15.2603 20.6745H13.5863L12.6589 25.449H14.0194ZM8.54481 31.3301C8.5064 31.3301 8.46848 31.3215 8.43377 31.3051C8.39906 31.2886 8.36842 31.2647 8.34404 31.235C8.31967 31.2054 8.30216 31.1707 8.29279 31.1334C8.28341 31.0962 8.28239 31.0573 8.28981 31.0196L10.7487 18.3679C10.7603 18.3087 10.7921 18.2554 10.8386 18.2171C10.8851 18.1787 10.9434 18.1577 11.0037 18.1575H16.3039C17.9697 18.1575 19.2094 18.6098 19.9891 19.5019C20.7721 20.3981 21.0143 21.6521 20.7079 23.2275C20.5831 23.8691 20.3686 24.465 20.0704 24.999C19.7602 25.5483 19.3642 26.0446 18.8974 26.469C18.3233 27.006 17.6734 27.396 16.9673 27.6251C16.2728 27.8516 15.3803 27.9664 14.3161 27.9664H12.1696L11.5568 31.1194C11.5452 31.1787 11.5134 31.2322 11.4667 31.2706C11.4201 31.3091 11.3615 31.3301 11.3011 31.3301H8.54481Z" fill="black"/>
<path d="M13.8013 20.9348H15.2605C16.4256 20.9348 16.8302 21.1905 16.9678 21.3431C17.1955 21.5959 17.239 22.1295 17.092 22.8851C16.9273 23.7315 16.6221 24.3319 16.1845 24.6686C15.7367 25.0136 15.0077 25.1884 14.0196 25.1884H12.9748L13.8013 20.9348ZM16.3041 17.8973H11.0042C10.8833 17.8973 10.7662 17.9393 10.6729 18.0161C10.5796 18.0929 10.5159 18.1998 10.4927 18.3184L8.03383 30.9705C8.01931 31.0459 8.02161 31.1235 8.04057 31.1979C8.05952 31.2723 8.09467 31.3415 8.1435 31.4007C8.19233 31.46 8.25363 31.5077 8.32303 31.5404C8.39242 31.5732 8.4682 31.5903 8.54495 31.5904H11.3012C11.4221 31.5903 11.5391 31.5482 11.6323 31.4713C11.7256 31.3944 11.7892 31.2875 11.8123 31.1689L12.3842 28.2266H14.3158C15.4078 28.2266 16.3273 28.1074 17.0485 27.8726C17.7898 27.6319 18.472 27.2235 19.0757 26.6588C19.5619 26.2161 19.9745 25.6987 20.2978 25.1261C20.6095 24.5685 20.8337 23.946 20.9635 23.277C21.286 21.6184 21.0238 20.2905 20.185 19.3305C19.354 18.3791 18.0482 17.8969 16.3041 17.8969V17.8973ZM12.343 25.7089H14.0196C15.1308 25.7091 15.9583 25.4998 16.5021 25.0808C17.0458 24.6623 17.4131 23.9634 17.6038 22.9841C17.7858 22.0436 17.7027 21.3801 17.3545 20.9936C17.0057 20.6071 16.3077 20.4139 15.2605 20.4139H13.372L12.343 25.7089ZM16.3045 18.417C17.899 18.417 19.0618 18.8355 19.7931 19.6725C20.5243 20.5095 20.7443 21.6778 20.4531 23.1773C20.3326 23.7953 20.1295 24.36 19.8437 24.8715C19.5575 25.3835 19.1836 25.8519 18.7221 26.2766C18.1721 26.7916 17.5606 27.1585 16.8876 27.3773C16.2148 27.5963 15.3577 27.7056 14.3162 27.7054H11.9552L11.3016 31.0691H8.54533L11.0046 18.417H16.3045Z" fill="white"/>
<path d="M27.027 27.9664C26.9886 27.9664 26.9506 27.958 26.9158 27.9416C26.8811 27.9252 26.8503 27.9014 26.8259 27.8717C26.8014 27.8421 26.7839 27.8074 26.7744 27.7701C26.765 27.7329 26.7639 27.694 26.7713 27.6563L27.8588 22.0583C27.9626 21.5258 27.9371 21.144 27.7875 20.982C27.6956 20.8834 27.4204 20.718 26.6063 20.718H24.6353L23.268 27.756C23.2563 27.8153 23.2243 27.8686 23.1776 27.9069C23.1309 27.9452 23.0723 27.9661 23.0119 27.966H20.2781C20.2397 27.966 20.2018 27.9576 20.167 27.9412C20.1323 27.9249 20.1016 27.9011 20.0771 27.8715C20.0526 27.8419 20.035 27.8072 20.0255 27.77C20.016 27.7328 20.0148 27.694 20.022 27.6563L22.4813 15.0041C22.4929 14.9449 22.5248 14.8915 22.5714 14.8531C22.6181 14.8147 22.6766 14.7938 22.737 14.7938H25.4708C25.5092 14.7937 25.5471 14.8022 25.5818 14.8185C25.6166 14.8349 25.6473 14.8587 25.6718 14.8883C25.6963 14.9179 25.7139 14.9525 25.7234 14.9897C25.7329 15.0269 25.7341 15.0658 25.7269 15.1035L25.1336 18.1575H27.2535C28.8686 18.1575 29.9636 18.4418 30.6015 19.0279C31.2514 19.6253 31.4546 20.5804 31.2045 21.8678L30.0604 27.756C30.0487 27.8152 30.0168 27.8685 29.9701 27.9068C29.9235 27.9451 29.865 27.966 29.8046 27.966L27.027 27.9664Z" fill="black"/>
<path d="M25.4713 14.5331H22.7372C22.6163 14.5331 22.4991 14.5752 22.4058 14.6521C22.3125 14.729 22.2488 14.8359 22.2257 14.9546L19.7668 27.6064C19.7522 27.6818 19.7545 27.7594 19.7734 27.8339C19.7923 27.9083 19.8275 27.9776 19.8763 28.0369C19.9251 28.0961 19.9865 28.1438 20.0559 28.1767C20.1253 28.2095 20.2011 28.2265 20.2779 28.2266H23.0121C23.133 28.2266 23.2501 28.1845 23.3434 28.1076C23.4367 28.0307 23.5004 27.9238 23.5236 27.8051L24.8499 20.9782H26.6057C27.4187 20.9782 27.5897 21.1519 27.5961 21.1597C27.6456 21.2122 27.7104 21.4579 27.6032 22.0087L26.5157 27.6064C26.5011 27.6818 26.5034 27.7595 26.5223 27.8339C26.5413 27.9084 26.5764 27.9777 26.6253 28.037C26.6742 28.0963 26.7356 28.144 26.805 28.1768C26.8745 28.2096 26.9504 28.2266 27.0272 28.2266H29.8052C29.926 28.2265 30.0431 28.1844 30.1363 28.1075C30.2296 28.0306 30.2932 27.9237 30.3163 27.8051L31.4604 21.9176C31.7286 20.5354 31.4991 19.4989 30.7779 18.8362C30.0894 18.204 28.9367 17.8969 27.2537 17.8969H25.4499L25.9828 15.1537C25.9975 15.0783 25.9953 15.0005 25.9763 14.926C25.9574 14.8515 25.9222 14.7822 25.8734 14.7228C25.8245 14.6635 25.7631 14.6158 25.6936 14.583C25.6241 14.5502 25.5482 14.5331 25.4713 14.5331ZM25.4713 15.0544L24.8177 18.4174H27.2537C28.7864 18.4174 29.8436 18.6849 30.4251 19.2199C31.0071 19.7544 31.1818 20.6206 30.9493 21.8186L29.8048 27.7057H27.0272L28.1151 22.1077C28.2388 21.471 28.1932 21.0367 27.9782 20.805C27.7632 20.5735 27.3059 20.4577 26.6064 20.4577H24.4206L23.0121 27.7054H20.2776L22.7368 15.0532H25.4713V15.0544Z" fill="white"/>
<path d="M35.531 25.449C36.5784 25.449 37.3603 25.2559 37.8553 24.8753C38.3443 24.498 38.6825 23.8451 38.8599 22.9346C39.0249 22.0834 38.9623 21.4894 38.6724 21.1684C38.3769 20.8406 37.7375 20.6745 36.7723 20.6745H35.0986L34.1705 25.449H35.531ZM30.0575 31.3301C30.0191 31.3302 29.981 31.3217 29.9462 31.3053C29.9114 31.2889 29.8807 31.265 29.8562 31.2353C29.8318 31.2056 29.8142 31.1709 29.8048 31.1336C29.7954 31.0963 29.7943 31.0574 29.8018 31.0196L32.2606 18.3679C32.2723 18.3086 32.3042 18.2552 32.3508 18.2168C32.3975 18.1785 32.456 18.1575 32.5164 18.1575H37.8163C39.482 18.1575 40.7218 18.6098 41.501 19.5019C42.2844 20.3981 42.5263 21.6521 42.2199 23.2275C42.1027 23.848 41.8876 24.446 41.5828 24.999C41.2725 25.5483 40.8765 26.0446 40.4098 26.469C39.836 27.006 39.1854 27.396 38.4796 27.6251C37.7851 27.8516 36.8926 27.9664 35.828 27.9664H33.6819L33.0695 31.1194C33.0579 31.1788 33.026 31.2323 32.9793 31.2708C32.9326 31.3092 32.8739 31.3302 32.8134 31.3301H30.0575Z" fill="black"/>
<path d="M35.313 20.9348H36.7722C37.9373 20.9348 38.3419 21.1905 38.4792 21.3431C38.7079 21.5959 38.7507 22.1295 38.604 22.8851C38.439 23.7315 38.1338 24.3319 37.6962 24.6686C37.248 25.0136 36.519 25.1884 35.5313 25.1884H34.4865L35.313 20.9348ZM37.8158 17.8973H32.5159C32.3951 17.8974 32.2781 17.9394 32.1849 18.0162C32.0917 18.093 32.028 18.1998 32.0048 18.3184L29.5455 30.9705C29.531 31.0459 29.5333 31.1236 29.5523 31.198C29.5713 31.2724 29.6065 31.3417 29.6553 31.4009C29.7042 31.4601 29.7656 31.5078 29.835 31.5406C29.9044 31.5733 29.9803 31.5903 30.057 31.5904H32.8133C32.9341 31.5903 33.0512 31.5482 33.1444 31.4713C33.2377 31.3944 33.3013 31.2875 33.3244 31.1689L33.8963 28.2266H35.8275C36.9192 28.2266 37.839 28.1074 38.5598 27.8726C39.3015 27.6319 39.9837 27.2235 40.5878 26.6584C41.0739 26.2158 41.4863 25.6985 41.8095 25.1261C42.1215 24.5685 42.345 23.946 42.4752 23.277C42.7977 21.6184 42.5359 20.2905 41.6967 19.3305C40.8657 18.3791 39.5603 17.8969 37.8154 17.8969L37.8158 17.8973ZM33.8547 25.7089H35.5309C36.6422 25.7091 37.4699 25.4998 38.0142 25.0808C38.5579 24.6623 38.9249 23.9634 39.1152 22.9841C39.2979 22.0436 39.2148 21.3801 38.8658 20.9936C38.5168 20.6071 37.8189 20.4139 36.7722 20.4139H34.884L33.8547 25.7089ZM37.8158 18.417C39.4103 18.417 40.5732 18.8355 41.3044 19.6725C42.0357 20.5095 42.2555 21.6778 41.964 23.1773C41.844 23.7953 41.641 24.36 41.355 24.8715C41.069 25.3835 40.695 25.8519 40.233 26.2766C39.683 26.7916 39.0715 27.1585 38.3985 27.3773C37.726 27.5963 36.869 27.7056 35.8275 27.7054H33.4669L32.8125 31.0691H30.0563L32.5155 18.417H37.8158Z" fill="white"/>
<defs>
<radialGradient id="paint0_radial_7_1396" cx="0" cy="0" r="1" gradientUnits="userSpaceOnUse" gradientTransform="translate(15.3897 15.8134) scale(31.5155)">
<stop stop-color="#AEB2D5"/>
<stop offset="0.3" stop-color="#AEB2D5"/>
<stop offset="0.75" stop-color="#484C89"/>
<stop offset="1" stop-color="#484C89"/>
</radialGradient>
</defs>
</svg>
