<svg width="49" height="48" viewBox="0 0 49 48" fill="none" xmlns="http://www.w3.org/2000/svg">
<path d="M42.5792 9.77474C34.7233 -0.39826 20.1069 -2.27626 9.93354 5.58111C-0.238338 13.4385 -2.11446 28.0549 5.74291 38.2267C13.6018 48.3982 28.2193 50.2732 38.3897 42.4144C48.5574 34.557 50.4339 19.9451 42.5792 9.77474Z" fill="#F37036"/>
<path d="M34.3144 9.06151C33.5132 9.12559 32.7535 9.44438 32.1465 9.97126C31.4361 10.5882 30.9828 11.4489 30.8759 12.3837C30.769 13.3184 31.0163 14.2593 31.569 15.0206C32.1212 15.7821 32.9387 16.3091 33.8603 16.4976C34.7819 16.686 35.7406 16.5223 36.5475 16.0388H36.5482L36.6067 16.0973C36.8725 15.945 37.1198 15.7625 37.3436 15.5535C38.0343 14.823 38.4143 13.8528 38.4033 12.8475C38.3924 11.8422 37.9915 10.8805 37.2851 10.1651V10.1644L33.9686 13.4603L33.9101 13.4021L37.2266 10.1048C36.8427 9.73467 36.3846 9.45035 35.8825 9.27063C35.3804 9.0909 34.8459 9.01988 34.3144 9.06226V9.06151ZM29.9479 14.4566C28.3579 14.454 25.7617 16.2563 19.4227 22.5953L19.4542 22.6275C19.4197 22.6155 19.3849 22.6144 19.3849 22.6144L16.9984 24.9799C16.9371 25.0382 16.8965 25.1149 16.8828 25.1984C16.8692 25.2818 16.8831 25.3675 16.9226 25.4423C16.9621 25.5171 17.0249 25.5769 17.1016 25.6127C17.1782 25.6486 17.2644 25.6583 17.3471 25.6406L21.4399 24.7676C21.4581 24.7508 21.4702 24.7284 21.4744 24.7039L21.5651 24.7976L20.1701 26.1814H20.1026L11.8204 34.5289L14.4776 37.0879C14.5518 37.1551 14.6456 37.1968 14.7452 37.2068C14.8448 37.2169 14.945 37.1948 15.0311 37.1438C15.118 37.0932 15.1875 37.0176 15.2307 36.9269C15.2738 36.8362 15.2886 36.7345 15.273 36.6353L14.8849 34.9478C14.8605 34.9139 14.8473 34.8732 14.8473 34.8315C14.8473 34.7898 14.8605 34.7491 14.8849 34.7153C18.5126 32.9858 21.8863 30.7672 24.9116 28.1216L23.211 26.4203L23.2432 26.415L22.2345 25.4066L22.299 25.3414L22.3672 25.4111L22.332 25.4453L25.0084 28.1801V28.179C30.1384 23.3213 33.7796 19.4164 32.8327 16.7884C32.7896 16.4741 32.6436 16.183 32.4176 15.9604V15.9619C32.3601 15.9194 32.2995 15.881 32.2365 15.8471C32.2054 15.8141 32.178 15.7804 32.145 15.7481L32.1202 15.7729C32.0506 15.7308 31.9776 15.6944 31.902 15.6641L32.0104 15.5546C31.3369 14.9546 30.7804 14.4581 29.9479 14.4559V14.4566ZM11.7626 34.5788L9.82349 36.5183V36.5198C9.75391 36.5629 9.69983 36.6269 9.66902 36.7028C9.63822 36.7786 9.6323 36.8622 9.65212 36.9416C9.67124 37.021 9.71492 37.0923 9.77693 37.1455C9.83894 37.1986 9.91612 37.2308 9.99749 37.2375L14.7495 37.5656L11.7626 34.5788Z" fill="white"/>
<path d="M34.6413 8.74124C33.553 8.74001 32.5078 9.16701 31.7317 9.92999C31.1796 10.4952 30.8015 11.2071 30.6426 11.9811C30.4837 12.7551 30.5507 13.5584 30.8354 14.2954C29.0576 13.5341 26.6523 14.8616 19.1707 22.3417C19.1655 22.3533 19.1608 22.365 19.1568 22.377C19.1414 22.3837 19.1265 22.3915 19.1122 22.4002L16.7463 24.7867C16.6329 24.8981 16.5584 25.043 16.5339 25.1999C16.5094 25.3569 16.5361 25.5177 16.6102 25.6582C16.6762 25.7695 16.7698 25.8619 16.8819 25.9266C16.9941 25.9912 17.1209 26.0259 17.2503 26.0272L17.3677 25.9511L20.5267 25.2772L19.0154 26.8024C19.0069 26.8225 19.0001 26.8433 18.9952 26.8646L11.5889 34.2892C11.5594 34.3141 11.535 34.3444 11.5169 34.3785L9.60969 36.2872C9.51475 36.3876 9.44987 36.5127 9.42243 36.6481C9.39499 36.7835 9.40608 36.9239 9.45444 37.0534C9.50435 37.1819 9.58872 37.2941 9.69828 37.3778C9.80783 37.4615 9.93833 37.5134 10.0754 37.5277L14.8072 37.8577C14.888 37.8296 14.9569 37.7747 15.0022 37.7021C15.0427 37.6455 15.0644 37.5777 15.0644 37.5081C15.0644 37.4385 15.0427 37.3706 15.0022 37.314L14.9924 37.3046C15.0948 37.2514 15.1849 37.1773 15.2568 37.0871C15.3327 36.9885 15.3858 36.8742 15.4121 36.7525C15.4384 36.6308 15.4374 36.5048 15.4091 36.3836L15.0401 34.8135C18.5803 33.1217 21.8973 30.9979 24.9153 28.4906C24.9444 28.5076 24.9757 28.5206 25.0083 28.5292C25.1036 28.5221 25.1928 28.4812 25.2603 28.4137C30.3416 23.6025 33.3284 20.3055 33.3284 17.688C33.3397 17.3249 33.285 16.9628 33.1668 16.6192C33.6248 16.8088 34.1133 16.9142 34.6087 16.9305L34.6031 16.932C35.2855 16.9114 35.9526 16.7248 36.5467 16.3882L36.5482 16.3886C36.6251 16.4115 36.7079 16.4041 36.7796 16.368C37.0663 16.1992 37.3276 15.9906 37.5558 15.7485C37.9426 15.3691 38.2498 14.9164 38.4596 14.4169C38.6694 13.9174 38.7775 13.381 38.7776 12.8392C38.7775 12.2975 38.6695 11.7612 38.4598 11.2617C38.2501 10.7621 37.9429 10.3094 37.5562 9.92999C37.5423 9.91753 37.5275 9.90613 37.5119 9.89587C36.7399 9.15483 35.7111 8.74121 34.6409 8.74162L34.6413 8.74124ZM34.6087 9.40574C35.3665 9.41027 36.1021 9.66231 36.7034 10.1235L33.6779 13.1674C33.6677 13.179 33.6582 13.1913 33.6494 13.2041C33.5949 13.2593 33.5629 13.3329 33.5598 13.4104C33.5598 13.4572 33.5703 13.5035 33.5906 13.5457C33.611 13.5879 33.6405 13.6249 33.6772 13.6541H33.6779L35.9654 15.9416C35.3393 16.2149 34.6453 16.2926 33.9742 16.1646C33.3032 16.0366 32.6865 15.7088 32.2049 15.2242C31.2352 14.2492 30.9539 12.7852 31.4726 11.5151C31.9912 10.2439 33.2276 9.41324 34.6087 9.40574ZM37.2787 10.6927C37.7734 11.2913 38.0431 12.044 38.0411 12.8205C38.0397 13.7302 37.6771 14.6021 37.0331 15.2445C36.9039 15.366 36.7663 15.4781 36.6213 15.5801L34.7752 13.7625L34.4141 13.4014L34.5134 13.302L37.2783 10.692L37.2787 10.6927ZM37.1414 12.2651C37.0736 12.2438 37.0002 12.2479 36.9352 12.2767C36.8708 12.31 36.8223 12.3675 36.8002 12.4365C36.7893 12.4709 36.7854 12.5072 36.7886 12.5432C36.7918 12.5792 36.8021 12.6141 36.8189 12.6461C36.8854 12.7863 36.9116 12.9421 36.8946 13.0963C36.8776 13.2505 36.818 13.3969 36.7226 13.5191C36.6981 13.5427 36.679 13.5712 36.6664 13.6028C36.6537 13.6343 36.648 13.6682 36.6494 13.7021C36.6509 13.7711 36.6757 13.8371 36.7226 13.8866C36.7726 13.9057 36.8278 13.9057 36.8778 13.8866C36.9229 13.8979 36.9702 13.8966 37.0146 13.8829C37.059 13.8692 37.0989 13.8437 37.1298 13.809C37.2895 13.6134 37.3906 13.3766 37.4215 13.126C37.4523 12.8754 37.4117 12.6211 37.3042 12.3926V12.3941C37.2675 12.3327 37.2096 12.2868 37.1414 12.2651ZM29.9126 14.7862C30.3651 14.8017 30.8004 14.9629 31.1538 15.246C30.7733 15.3009 30.4207 15.4771 30.1484 15.7485L21.5958 24.2629L19.9173 22.5844C24.3528 18.1699 27.0648 15.864 28.7508 15.1084C29.0982 14.8896 29.5021 14.7779 29.9126 14.7862ZM31.3994 15.8962C31.6866 15.8965 31.962 16.0102 32.1656 16.2127C32.2736 16.3145 32.3588 16.438 32.4156 16.5751C32.4725 16.7122 32.4996 16.8598 32.4952 17.0081C32.4903 17.1559 32.4549 17.3012 32.3914 17.4347C32.3278 17.5683 32.2374 17.6873 32.1258 17.7844L23.0321 25.6991L22.0507 24.7177L30.6333 16.2127C30.837 16.0104 31.1123 15.8964 31.3994 15.8962ZM32.5222 18.408C31.8884 20.9212 28.5296 24.3266 25.0271 27.6356L23.6107 26.2207L32.5222 18.408ZM19.4227 23.0801L19.5254 23.1814L20.8428 24.4987L17.2316 25.2712L19.4227 23.0801ZM21.5951 25.2701L21.5966 25.2716L22.0346 25.7197L22.0413 25.7512L22.0706 25.7557L22.1636 25.851L22.4711 26.166L20.4517 26.4135L21.5951 25.2701ZM23.0452 26.7986L24.3869 28.1396C21.42 30.6067 18.1643 32.7041 14.6913 34.3856C14.5786 34.4393 14.4879 34.5304 14.4348 34.6434C14.3816 34.7565 14.3693 34.8844 14.3999 35.0055L14.7881 36.693C14.8024 36.7128 14.8101 36.7366 14.8101 36.7611C14.8101 36.7855 14.8024 36.8093 14.7881 36.8291C14.7667 36.8483 14.7391 36.8588 14.7104 36.8588C14.6818 36.8588 14.6541 36.8483 14.6328 36.8291L12.3446 34.5221L19.3976 27.3656L23.0452 26.7986ZM11.8203 35.0261L12.1462 35.3314L13.8307 37.0159L10.0747 36.7729L11.8203 35.0261Z" fill="#F37036"/>
</svg>
