<svg width="49" height="48" viewBox="0 0 49 48" fill="none" xmlns="http://www.w3.org/2000/svg">
<path d="M16.9925 37.222L28.9845 9.21401C29.1861 8.7462 29.5585 8.37293 30.0259 8.17036C30.4933 7.96778 31.0203 7.95118 31.4995 8.12392C31.9787 8.29667 32.374 8.64575 32.6046 9.09994C32.8352 9.55412 32.8838 10.0792 32.7405 10.568L32.6605 10.788L20.6685 38.796C20.467 39.2638 20.0945 39.6371 19.6271 39.8397C19.1598 40.0422 18.6327 40.0588 18.1535 39.8861C17.6743 39.7133 17.2791 39.3643 17.0485 38.9101C16.8179 38.4559 16.7692 37.9308 16.9125 37.442L16.9925 37.222ZM5.40652 22.586L13.4065 14.586C13.7664 14.2273 14.2494 14.0191 14.7573 14.0036C15.2652 13.988 15.7599 14.1664 16.1411 14.5025C16.5222 14.8386 16.7611 15.3071 16.8093 15.813C16.8575 16.3188 16.7113 16.824 16.4005 17.226L16.2345 17.414L9.64852 24L16.2345 30.586C16.597 30.9451 16.8086 31.4291 16.8259 31.9391C16.8432 32.4491 16.6649 32.9463 16.3276 33.3292C15.9903 33.712 15.5194 33.9514 15.0113 33.9984C14.5032 34.0454 13.9964 33.8965 13.5945 33.582L13.4065 33.414L5.40652 25.414C5.06217 25.0696 4.85531 24.6114 4.82475 24.1254C4.79418 23.6393 4.94202 23.1588 5.24052 22.774L5.40652 22.586ZM33.4065 14.584C33.7509 14.2397 34.2091 14.0328 34.6952 14.0022C35.1812 13.9717 35.6617 14.1195 36.0465 14.418L36.2325 14.584L44.2345 22.586C44.5789 22.9304 44.7857 23.3886 44.8163 23.8746C44.8469 24.3607 44.699 24.8412 44.4005 25.226L44.2345 25.416L36.2325 33.406C35.8726 33.7647 35.3897 33.973 34.8818 33.9885C34.3739 34.004 33.8791 33.8256 33.498 33.4895C33.1168 33.1534 32.8779 32.6849 32.8297 32.1791C32.7815 31.6732 32.9277 31.168 33.2385 30.766L33.4065 30.576L39.9905 24L33.4045 17.412C33.0296 17.037 32.819 16.5283 32.819 15.998C32.819 15.4677 33.0316 14.9591 33.4065 14.584Z" fill="white"/>
</svg>
