<svg width="53" height="48" viewBox="0 0 53 48" fill="none" xmlns="http://www.w3.org/2000/svg">
<path d="M33.0692 29.7364L32.0719 31.516C31.9242 31.7793 31.7116 31.998 31.4556 32.1501C31.1995 32.3022 30.9089 32.3822 30.6132 32.3823H22.9726C22.6768 32.3822 22.3862 32.3022 22.1302 32.1501C21.8741 31.998 21.6615 31.7793 21.5138 31.516L20.5164 29.7364H33.0692ZM35.8613 24.7549L34.1028 27.8924H19.4829L17.7244 24.7549H35.8613ZM34.1674 19.8835L35.8642 22.9108H17.7216L19.4183 19.8835H34.1674ZM30.613 15.2784C30.9088 15.2784 31.1994 15.3585 31.4555 15.5106C31.7116 15.6626 31.9242 15.8814 32.0719 16.1447L33.1338 18.0395H20.452L21.514 16.1447C21.6617 15.8814 21.8743 15.6627 22.1304 15.5106C22.3864 15.3585 22.677 15.2784 22.9728 15.2784H30.613Z" fill="#00435B"/>
<path d="M11.853 14.4526C11.0066 10.2357 10.8249 7.00131 11.372 4.65286C11.6974 3.25606 12.2921 2.11658 13.1968 1.29432C14.1518 0.426355 15.3591 0.000407616 16.7159 0.000407616C18.9537 0.000407616 21.3066 1.0491 23.8207 3.0411C24.8464 3.85376 25.9107 4.83317 27.016 5.97996C27.1041 5.86371 27.2035 5.75394 27.3144 5.6523C30.4394 2.79109 33.0705 1.013 35.321 0.327642C36.659 -0.0801489 37.9153 -0.118966 39.0592 0.276721C40.2669 0.694112 41.229 1.55749 41.908 2.76646C43.0284 4.7618 43.3237 7.38364 42.9061 10.6211C42.7359 11.9407 42.4448 13.378 42.0335 14.9355C42.1887 14.9547 42.3443 14.9902 42.4983 15.0426C46.4632 16.3928 49.271 17.8445 50.9708 19.5039C51.9823 20.491 52.6426 21.59 52.8815 22.8067C53.1333 24.0908 52.8875 25.3786 52.2096 26.5868C51.0912 28.5794 49.035 30.1507 46.1057 31.3953C44.9297 31.8952 43.5987 32.3478 42.1117 32.755C42.1796 32.9123 42.2324 33.0795 42.2675 33.2548C43.1139 37.4717 43.2955 40.7061 42.7485 43.0545C42.4231 44.4513 41.8282 45.5908 40.9235 46.4131C39.9687 47.281 38.7612 47.707 37.4047 47.707C35.1666 47.707 32.814 46.6583 30.2999 44.6663C29.2632 43.8449 28.1871 42.8533 27.069 41.6907C26.9514 41.8798 26.8089 42.0513 26.6457 42.2003C23.5207 45.062 20.8896 46.8396 18.6391 47.5252C17.301 47.933 16.0448 47.9718 14.9009 47.5761C13.6932 47.1587 12.7311 46.2954 12.0521 45.0864C10.9317 43.091 10.6364 40.4692 11.054 37.2317C11.2305 35.8645 11.5366 34.3707 11.9716 32.7479C11.7982 32.7299 11.6272 32.6923 11.4618 32.6358C7.4969 31.2856 4.68911 29.8339 2.98928 28.1745C1.97779 27.1874 1.31748 26.0884 1.07862 24.8717C0.826767 23.5876 1.07253 22.2995 1.75051 21.0914C2.86884 19.099 4.92512 17.5275 7.85438 16.2831C9.06552 15.7682 10.4408 15.3036 11.9816 14.8871C11.926 14.7466 11.883 14.6011 11.853 14.4526Z" fill="#002B3B"/>
<path d="M39.5011 33.6695C39.6903 33.635 39.8852 33.6767 40.0454 33.7859C40.2055 33.8951 40.3186 34.0634 40.3613 34.2559L40.3659 34.2793L40.408 34.5037C41.7709 41.8657 40.8108 45.5468 37.5279 45.5468C34.316 45.5468 30.2273 42.4057 25.2617 36.1235C25.1734 36.0119 25.1175 35.8771 25.1001 35.7343C25.0827 35.5916 25.1047 35.4468 25.1634 35.3163C25.2222 35.1857 25.3154 35.0747 25.4325 34.9959C25.5495 34.9171 25.6858 34.8736 25.8257 34.8703H25.8489L26.1105 34.8722C28.2001 34.8839 30.2314 34.809 32.2046 34.6477C34.5336 34.457 36.9657 34.131 39.5011 33.6695ZM16.9557 28.1044L16.9683 28.1263L17.0995 28.3615C18.1509 30.2398 19.2464 32.0225 20.3858 33.7098C21.728 35.6966 23.2371 37.708 24.9131 39.744C25.0375 39.8951 25.1004 40.0897 25.0887 40.2872C25.0771 40.4848 24.9917 40.6701 24.8504 40.8046L24.8315 40.8219L24.6629 40.9711C19.1166 45.8541 15.5118 46.8288 13.8485 43.8954C12.2202 41.0243 12.8105 35.8036 15.6194 28.2334C15.6691 28.0993 15.7544 27.9821 15.8656 27.8952C15.9768 27.8084 16.1094 27.7552 16.2485 27.7418C16.3876 27.7283 16.5275 27.7552 16.6525 27.8193C16.7775 27.8834 16.8825 27.9822 16.9557 28.1044ZM42.3154 17.241L42.3381 17.2487L42.5469 17.3226C49.3927 19.7696 51.9936 22.4586 50.3496 25.3897C48.7418 28.2565 44.0675 30.3437 36.3267 31.6514C36.1864 31.6751 36.0424 31.6573 35.9117 31.6C35.7809 31.5426 35.6687 31.4482 35.5883 31.3277C35.5079 31.2073 35.4625 31.0657 35.4576 30.9197C35.4526 30.7737 35.4883 30.6293 35.5604 30.5034C36.6691 28.5656 37.6676 26.6374 38.556 24.719C39.5635 22.5432 40.5089 20.2079 41.3925 17.713C41.4566 17.5317 41.5848 17.3818 41.7516 17.2931C41.9184 17.2043 42.1115 17.1833 42.2927 17.2341L42.3154 17.241ZM18.1337 16.009C18.2184 16.0602 18.2925 16.1279 18.3518 16.2085C18.411 16.2891 18.4542 16.3808 18.4789 16.4785C18.5036 16.5762 18.5093 16.678 18.4958 16.778C18.4822 16.878 18.4496 16.9742 18.3998 17.0613C17.2908 18.999 16.2922 20.9271 15.4039 22.8457C14.3965 25.0213 13.451 27.3566 12.5675 29.8516C12.5019 30.0369 12.3695 30.1892 12.1978 30.277C12.026 30.3649 11.828 30.3816 11.6446 30.3237L11.6218 30.316L11.413 30.2419C4.56725 27.795 1.96635 25.106 3.61033 22.175C5.21815 19.3082 9.89246 17.2209 17.6333 15.913C17.8059 15.8838 17.983 15.9178 18.1337 16.009ZM40.1115 3.95707C41.7397 6.82831 41.1494 12.049 38.3405 19.6193C38.2908 19.7534 38.2055 19.8705 38.0943 19.9574C37.9832 20.0443 37.8505 20.0975 37.7115 20.1109C37.5724 20.1243 37.4324 20.0975 37.3074 20.0334C37.1825 19.9693 37.0774 19.8705 37.0043 19.7482L36.9917 19.7263L36.8605 19.4911C35.809 17.6129 34.7136 15.8301 33.5741 14.1429C32.232 12.1561 30.7229 10.1447 29.0468 8.10866C28.9224 7.95756 28.8595 7.76298 28.8712 7.56543C28.8829 7.36788 28.9683 7.18256 29.1096 7.04807L29.1285 7.03074L29.2971 6.88153C34.8433 1.99874 38.4481 1.02393 40.1115 3.95707ZM16.7128 2.21008C19.9247 2.21008 24.0135 5.35109 28.979 11.6331C29.0672 11.7448 29.1232 11.8796 29.1405 12.0223C29.1579 12.165 29.136 12.3099 29.0772 12.4404C29.0185 12.5709 28.9253 12.6819 28.8082 12.7607C28.6911 12.8396 28.5549 12.8831 28.4149 12.8863H28.3918L28.1302 12.8847C26.0407 12.873 24.0094 12.9478 22.0363 13.1092C19.707 13.2998 17.2748 13.6259 14.7395 14.0874C14.5503 14.1218 14.3555 14.0801 14.1954 13.9709C14.0353 13.8617 13.9222 13.6934 13.8796 13.5009L13.8747 13.4774L13.8327 13.2532C12.4697 5.89113 13.4297 2.21008 16.7128 2.21008Z" fill="#FF4154"/>
<path d="M23.587 15.3746H30.0004C30.4612 15.3746 30.9139 15.4995 31.3126 15.7368C31.7114 15.974 32.0421 16.3152 32.2714 16.7259L35.4917 22.4913C35.7194 22.8989 35.8392 23.3606 35.8392 23.8305C35.8392 24.3005 35.7194 24.7622 35.4917 25.1697L32.2714 30.9352C32.0421 31.3458 31.7114 31.687 31.3126 31.9243C30.9139 32.1616 30.4612 32.2865 30.0004 32.2865H23.587C22.6491 32.2865 21.7828 31.771 21.3159 30.9352L18.096 25.1697C17.8683 24.7622 17.7485 24.3005 17.7485 23.8305C17.7485 23.3606 17.8683 22.8989 18.096 22.4913L21.3161 16.7259C21.5454 16.3152 21.8762 15.974 22.275 15.7367C22.6737 15.4995 23.1262 15.3745 23.587 15.3746ZM29.0231 17.1147C29.9614 17.1147 30.8283 17.6308 31.2949 18.4673L33.5404 22.4926C33.7677 22.8998 33.8872 23.3611 33.8872 23.8305C33.8872 24.3 33.7677 24.7612 33.5404 25.1685L31.2949 29.1938C31.0656 29.6048 30.7348 29.9463 30.3359 30.1837C29.937 30.4212 29.4841 30.5462 29.0231 30.5462H24.5648C23.6264 30.5462 22.7596 30.0303 22.293 29.1938L20.0474 25.1685C19.8202 24.7612 19.7007 24.3 19.7007 23.8305C19.7007 23.3611 19.8202 22.8998 20.0474 22.4926L22.293 18.4673C22.5223 18.0563 22.853 17.7149 23.2519 17.4774C23.6508 17.2399 24.1036 17.1149 24.5646 17.1149L29.0231 17.1147ZM27.9695 19.018H25.6183C25.1577 19.018 24.7052 19.1428 24.3066 19.3798C23.9079 19.6169 23.5772 19.9579 23.3478 20.3683L22.1612 22.4901C21.9331 22.8979 21.813 23.3601 21.813 23.8305C21.813 24.3009 21.9331 24.7631 22.1612 25.171L23.3478 27.293C23.5772 27.7034 23.9079 28.0444 24.3066 28.2814C24.7052 28.5185 25.1577 28.6433 25.6183 28.6433H27.9695C28.9071 28.6433 29.7732 28.1282 30.2401 27.293L31.4267 25.171C31.6548 24.7631 31.7749 24.3009 31.7749 23.8305C31.7749 23.3601 31.6548 22.8979 31.4267 22.4901L30.2401 20.3681C30.0107 19.9577 29.68 19.6167 29.2813 19.3796C28.8826 19.1426 28.4302 19.018 27.9695 19.018ZM26.9552 20.8395C27.892 20.8395 28.7574 21.3537 29.2246 22.1877L29.3929 22.4882C29.6217 22.8965 29.7421 23.3593 29.7421 23.8303C29.7421 24.3014 29.6217 24.7642 29.3929 25.1724L29.2246 25.473C28.995 25.8828 28.6643 26.2232 28.2659 26.4599C27.8675 26.6966 27.4154 26.8212 26.9552 26.8211H26.6327C26.1725 26.8212 25.7204 26.6966 25.322 26.4599C24.9235 26.2232 24.5929 25.8828 24.3633 25.473L24.1949 25.1724C23.9662 24.7642 23.8458 24.3014 23.8458 23.8303C23.8458 23.3593 23.9662 22.8965 24.1949 22.4882L24.3633 22.1877C24.5929 21.7779 24.9235 21.4374 25.322 21.2007C25.7204 20.9641 26.1725 20.8395 26.6327 20.8395H26.9552ZM26.7943 22.6341C26.5898 22.634 26.3889 22.6893 26.2117 22.7943C26.0345 22.8992 25.8873 23.0503 25.7849 23.2322C25.6827 23.414 25.6289 23.6203 25.6289 23.8303C25.6289 24.0403 25.6827 24.2466 25.7849 24.4284C25.8872 24.6104 26.0343 24.7615 26.2115 24.8666C26.3886 24.9716 26.5895 25.0269 26.794 25.0269C26.9986 25.0269 27.1995 24.9716 27.3766 24.8666C27.5538 24.7615 27.7009 24.6104 27.8032 24.4284C27.9054 24.2466 27.9592 24.0403 27.9592 23.8303C27.9592 23.6203 27.9054 23.414 27.8032 23.2322C27.7008 23.0504 27.5537 22.8994 27.3767 22.7944C27.1996 22.6894 26.9988 22.6341 26.7943 22.6341ZM17.3479 23.8303H19.444H17.3479Z" fill="#FFD94C"/>
</svg>
