<svg width="54" height="48" viewBox="0 0 54 48" fill="none" xmlns="http://www.w3.org/2000/svg">
<path d="M44.395 15.5419C43.8214 15.3451 43.243 15.1628 42.6602 14.9951C42.7581 14.5951 42.8482 14.2 42.9282 13.8118C44.2415 7.43681 43.383 2.30102 40.4506 0.610069C37.639 -1.01098 33.0409 0.679332 28.3971 4.72081C27.9394 5.11981 27.4919 5.53032 27.055 5.95196C26.7625 5.6716 26.4648 5.39668 26.1621 5.12733C21.2952 0.806069 16.4169 -1.01519 13.4876 0.680595C10.6786 2.3067 9.84676 7.1347 11.0291 13.1764C11.1467 13.7747 11.2795 14.37 11.4274 14.9616C10.7369 15.1579 10.0706 15.3667 9.43287 15.589C3.72676 17.5785 0.0827637 20.6962 0.0827637 23.9301C0.0827637 27.2701 3.99476 30.6202 9.93792 32.6515C10.4198 32.8155 10.9056 32.9675 11.395 33.1073C11.2361 33.7445 11.095 34.3861 10.9718 35.0311C9.84466 40.968 10.7249 45.6819 13.5263 47.2976C16.4198 48.9663 21.2762 47.2513 26.0049 43.1176C26.3883 42.7816 26.7633 42.436 27.1295 42.0812C27.6027 42.5378 28.0885 42.981 28.5863 43.4105C33.167 47.352 37.6908 48.9435 40.4895 47.3233C43.3802 45.6499 44.3198 40.5859 43.1 34.4248C43.0039 33.9421 42.8962 33.4618 42.7769 32.9844C43.1179 32.8833 43.4527 32.7793 43.779 32.6711C49.9575 30.6242 53.9775 27.3147 53.9775 23.9301C53.9775 20.6844 50.2158 17.5456 44.395 15.5419ZM43.055 30.4859C42.76 30.5833 42.4582 30.6776 42.1497 30.769C41.4676 28.6096 40.5472 26.3136 39.4207 23.9412C40.4956 21.6254 41.3807 19.3587 42.0436 17.2134C42.595 17.373 43.1299 17.5412 43.6457 17.7187C48.6331 19.4358 51.6752 21.9741 51.6752 23.9301C51.6752 26.0134 48.3897 28.7181 43.055 30.4859ZM40.8415 34.872C41.3809 37.5962 41.4577 40.0593 41.1004 41.985C40.7796 43.7153 40.1341 44.8688 39.3358 45.3309C37.6375 46.3141 34.0053 45.0362 30.088 41.6652C29.625 41.2659 29.1731 40.8538 28.7329 40.4294C30.2516 38.7686 31.7693 36.8379 33.2506 34.6934C35.856 34.4623 38.3175 34.0842 40.5497 33.5682C40.6599 34.012 40.7572 34.4466 40.8415 34.872ZM18.4567 45.161C16.7973 45.7469 15.4756 45.7638 14.6767 45.3031C12.9767 44.3227 12.2699 40.5377 13.2339 35.4606C13.3485 34.8607 13.4797 34.264 13.6274 33.6713C15.835 34.1598 18.2786 34.5109 20.8901 34.7227C22.3815 36.821 23.943 38.7496 25.5167 40.4385C25.1822 40.7621 24.8399 41.0774 24.4899 41.3842C22.3988 43.212 20.3034 44.5088 18.4567 45.161ZM10.6828 30.473C8.05476 29.5747 5.88445 28.4073 4.39687 27.1334C3.06003 25.9888 2.38529 24.8522 2.38529 23.9301C2.38529 21.9675 5.31097 19.4644 10.1908 17.7631C10.783 17.5568 11.4028 17.3621 12.0459 17.1793C12.7204 19.373 13.6051 21.6667 14.6727 23.9861C13.5912 26.3398 12.6939 28.6701 12.0129 30.8896C11.5662 30.7617 11.1227 30.6227 10.6828 30.473ZM13.2887 12.7341C12.2758 7.55786 12.9484 3.65323 14.6413 2.67323C16.4442 1.62944 20.4312 3.11765 24.6335 6.84902C24.9075 7.09288 25.1771 7.34169 25.4421 7.59533C23.8762 9.2768 22.3291 11.1911 20.851 13.277C18.3162 13.512 15.8899 13.8892 13.6592 14.3947C13.5217 13.8444 13.3982 13.2906 13.2887 12.7341ZM36.5364 18.4749C36.0095 17.5648 35.4631 16.6661 34.8975 15.7795C36.6171 15.997 38.2647 16.2856 39.8118 16.6385C39.3474 18.1273 38.7684 19.6838 38.087 21.2795C37.5889 20.3344 37.0719 19.3994 36.5364 18.4749ZM27.056 9.24102C28.1179 10.3915 29.1815 11.676 30.2276 13.0696C28.1055 12.9694 25.9799 12.969 23.8577 13.0684C24.9049 11.6875 25.9775 10.4048 27.056 9.24102ZM17.5148 18.4905C16.986 19.4075 16.4787 20.3367 15.9933 21.2774C15.323 19.6873 14.7493 18.1238 14.2809 16.6139C15.8186 16.2699 17.4583 15.9886 19.167 15.7751C18.5951 16.6671 18.0442 17.5726 17.5148 18.4905ZM19.216 32.2486C17.4508 32.0515 15.7863 31.7848 14.2491 31.4501C14.7249 29.9132 15.3112 28.3164 15.996 26.6922C16.4833 27.6336 16.9928 28.5634 17.5238 29.4808C18.0699 30.424 18.6354 31.3478 19.216 32.2486ZM27.1196 38.7812C26.0282 37.604 24.9398 36.3014 23.8769 34.9006C24.9089 34.941 25.9609 34.9616 27.0301 34.9616C28.1287 34.9616 29.2146 34.937 30.2834 34.8894C29.2339 36.3155 28.1743 37.62 27.1196 38.7812ZM38.1087 26.6092C38.8291 28.2513 39.4362 29.8398 39.9183 31.3503C38.3558 31.7069 36.6687 31.9941 34.891 32.2073C35.4606 31.3043 36.0122 30.39 36.5455 29.465C37.0877 28.5248 37.6089 27.5726 38.1087 26.6092ZM34.5512 28.3147C33.7347 29.7328 32.8725 31.1241 31.9657 32.4863C30.3231 32.6027 28.6769 32.6605 27.0301 32.6595C25.3529 32.6595 23.7215 32.6073 22.1506 32.5054C21.22 31.1465 20.3413 29.7528 19.5162 28.3273C18.6949 26.9095 17.9281 25.4609 17.2169 23.9848C17.9263 22.5083 18.691 21.0591 19.5095 19.6402L19.5093 19.6404C20.3273 18.221 21.1991 16.8333 22.1226 15.4802C23.7253 15.3589 25.3689 15.2958 27.0299 15.2958C28.6986 15.2958 30.3444 15.3595 31.9468 15.4816C32.8609 16.8327 33.7271 18.2157 34.5436 19.628C35.3647 21.0438 36.1395 22.486 36.867 23.9522C36.147 25.4333 35.3746 26.8884 34.5512 28.3147ZM39.3007 2.60438C41.1053 3.64523 41.8072 7.84249 40.6733 13.3467C40.6006 13.6981 40.5199 14.0553 40.4312 14.4183C38.195 13.9021 35.767 13.5183 33.2249 13.2798C31.744 11.1709 30.2095 9.25365 28.6691 7.59386C29.0728 7.20472 29.4861 6.82565 29.9087 6.45702C33.8876 2.99449 37.6063 1.62733 39.3007 2.60438ZM27.0301 19.1174C29.688 19.1174 31.8428 21.2722 31.8428 23.9301C31.8428 26.588 29.688 28.7427 27.0301 28.7427C24.3722 28.7427 22.2175 26.588 22.2175 23.9301C22.2175 21.2722 24.3722 19.1174 27.0301 19.1174Z" fill="#00D8FF"/>
</svg>
