<svg width="49" height="48" viewBox="0 0 49 48" fill="none" xmlns="http://www.w3.org/2000/svg">
<rect x="0.97998" width="48" height="48" rx="10" fill="#EC5990"/>
<path d="M22.9663 32.1903H14.7949C14.7318 32.1865 14.6685 32.1956 14.6091 32.2169C14.5497 32.2382 14.4953 32.2713 14.4493 32.3142C14.4032 32.357 14.3666 32.4087 14.3415 32.4661C14.3165 32.5234 14.3035 32.5852 14.3035 32.6477C14.3035 32.7102 14.3165 32.772 14.3415 32.8294C14.3666 32.8867 14.4032 32.9384 14.4493 32.9813C14.4953 33.0241 14.5497 33.0572 14.6091 33.0785C14.6685 33.0998 14.7318 33.1089 14.7949 33.1052H22.968C23.0311 33.1089 23.0943 33.0998 23.1537 33.0785C23.2132 33.0572 23.2675 33.0241 23.3136 32.9813C23.3596 32.9384 23.3962 32.8867 23.4213 32.8294C23.4464 32.772 23.4593 32.7102 23.4593 32.6477C23.4593 32.5852 23.4464 32.5234 23.4213 32.4661C23.3962 32.4087 23.3596 32.357 23.3136 32.3142C23.2675 32.2713 23.2132 32.2382 23.1537 32.2169C23.0943 32.1956 23.0311 32.1865 22.968 32.1903M35.0056 32.1903H26.8341C26.771 32.1865 26.7078 32.1956 26.6484 32.2169C26.5889 32.2382 26.5345 32.2713 26.4885 32.3142C26.4425 32.357 26.4058 32.4087 26.3808 32.4661C26.3557 32.5234 26.3428 32.5852 26.3428 32.6477C26.3428 32.7102 26.3557 32.772 26.3808 32.8294C26.4058 32.8867 26.4425 32.9384 26.4885 32.9813C26.5345 33.0241 26.5889 33.0572 26.6484 33.0785C26.7078 33.0998 26.771 33.1089 26.8341 33.1052H35.0056C35.1236 33.0982 35.2344 33.047 35.3155 32.962C35.3966 32.8769 35.4417 32.7645 35.4417 32.6477C35.4417 32.5309 35.3966 32.4185 35.3155 32.3335C35.2344 32.2484 35.1236 32.1972 35.0056 32.1903ZM22.9449 21.6682H14.7965C14.7334 21.6644 14.6702 21.6735 14.6108 21.6948C14.5513 21.7161 14.4969 21.7492 14.4509 21.7921C14.4049 21.8349 14.3682 21.8866 14.3432 21.944C14.3181 22.0013 14.3052 22.0631 14.3052 22.1256C14.3052 22.1881 14.3181 22.2499 14.3432 22.3073C14.3682 22.3646 14.4049 22.4163 14.4509 22.4592C14.4969 22.502 14.5513 22.5351 14.6108 22.5564C14.6702 22.5777 14.7334 22.5868 14.7965 22.5831H22.9433C23.0064 22.5868 23.0696 22.5777 23.129 22.5564C23.1885 22.5351 23.2429 22.502 23.2889 22.4592C23.3349 22.4163 23.3716 22.3646 23.3966 22.3073C23.4217 22.2499 23.4346 22.1881 23.4346 22.1256C23.4346 22.0631 23.4217 22.0013 23.3966 21.944C23.3716 21.8866 23.3349 21.8349 23.2889 21.7921C23.2429 21.7492 23.1885 21.7161 23.129 21.6948C23.0696 21.6735 23.0064 21.6644 22.9433 21.6682M34.9809 21.6682H26.8325C26.7694 21.6644 26.7062 21.6735 26.6467 21.6948C26.5873 21.7161 26.5329 21.7492 26.4869 21.7921C26.4409 21.8349 26.4042 21.8866 26.3791 21.944C26.3541 22.0013 26.3411 22.0631 26.3411 22.1256C26.3411 22.1881 26.3541 22.2499 26.3791 22.3073C26.4042 22.3646 26.4409 22.4163 26.4869 22.4592C26.5329 22.502 26.5873 22.5351 26.6467 22.5564C26.7062 22.5777 26.7694 22.5868 26.8325 22.5831H34.9809C35.0989 22.5761 35.2098 22.5249 35.2908 22.4399C35.3719 22.3548 35.417 22.2424 35.417 22.1256C35.417 22.0088 35.3719 21.8964 35.2908 21.8114C35.2098 21.7263 35.0989 21.6751 34.9809 21.6682ZM35.8887 6.71784H28.75C28.4949 5.92882 27.9926 5.24033 27.3157 4.7518C26.6388 4.26327 25.8223 4 24.9841 4C24.1459 4 23.3294 4.26327 22.6524 4.7518C21.9755 5.24033 21.4733 5.92882 21.2182 6.71784H14.0713C12.7211 6.71828 11.4264 7.24848 10.4717 8.1919C9.51696 9.13532 8.98042 10.4148 8.97998 11.749V37.9673C8.97998 39.302 9.51656 40.5821 10.4717 41.5259C11.4268 42.4698 12.7222 43 14.0729 43H35.8887C37.2391 42.9996 38.5341 42.4691 39.4889 41.5254C40.4436 40.5816 40.98 39.3018 40.98 37.9673V11.7506C40.9795 10.4164 40.443 9.13695 39.4883 8.19352C38.5336 7.2501 37.2388 6.7199 35.8887 6.71947M21.5734 7.63436C21.6812 7.63697 21.7865 7.60213 21.8709 7.5359C21.9554 7.46968 22.0136 7.37628 22.0355 7.27198C22.1823 6.60449 22.5559 6.00675 23.0941 5.57809C23.6323 5.14943 24.3027 4.91568 24.994 4.91568C25.6852 4.91568 26.3556 5.14943 26.8938 5.57809C27.432 6.00675 27.8056 6.60449 27.9524 7.27198C27.9743 7.37657 28.0328 7.47018 28.1176 7.53644C28.2024 7.60269 28.3081 7.63736 28.4161 7.63436H30.9059V10.6293C30.9054 10.9929 30.7591 11.3415 30.4989 11.5986C30.2387 11.8558 29.8859 12.0004 29.5179 12.0008H20.4667C20.0987 12.0004 19.7459 11.8558 19.4858 11.5986C19.2256 11.3415 19.0792 10.9929 19.0788 10.6293V7.63274L21.5734 7.63436ZM40.0541 37.9689C40.0541 40.2439 38.1893 42.0867 35.8887 42.0867H14.0729C12.968 42.0863 11.9085 41.6523 11.1274 40.8801C10.3463 40.1079 9.90747 39.0607 9.90747 37.9689V11.7506C9.90747 10.6589 10.3463 9.61192 11.1275 8.83998C11.9087 8.06804 12.9682 7.63436 14.0729 7.63436H18.1513V10.6293C18.1513 11.892 19.1873 12.9157 20.4667 12.9157H29.4949C30.7727 12.9157 31.8087 11.892 31.8087 10.6293V7.63274H35.887C38.1893 7.63274 40.0541 9.47553 40.0541 11.749V37.9689Z" fill="white"/>
</svg>
