<svg width="49" height="48" viewBox="0 0 49 48" fill="none" xmlns="http://www.w3.org/2000/svg">
<path d="M37.58 24C37.584 24.5527 37.4781 25.1006 37.2685 25.612C37.0588 26.1234 36.7496 26.5879 36.3588 26.9788C35.968 27.3696 35.5034 27.6788 34.992 27.8884C34.4806 28.0981 33.9327 28.204 33.38 28.2C32.2687 28.2 31.2027 28.6404 30.4155 29.4249C29.6283 30.2093 29.184 31.2737 29.18 32.385C29.184 32.9377 29.0781 33.4856 28.8685 33.997C28.6588 34.5084 28.3496 34.9729 27.9588 35.3638C27.568 35.7546 27.1034 36.0638 26.592 36.2734C26.0806 36.4831 25.5327 36.589 24.98 36.585C23.8661 36.585 22.7978 36.1425 22.0102 35.3549C21.2225 34.5672 20.78 33.4989 20.78 32.385C20.78 31.2711 21.2225 30.2028 22.0102 29.4152C22.7978 28.6275 23.8661 28.185 24.98 28.185C25.5594 28.2341 26.1426 28.1624 26.6929 27.9743C27.2431 27.7863 27.7482 27.4861 28.1764 27.0927C28.6045 26.6993 28.9463 26.2213 29.1801 25.6889C29.414 25.1566 29.5347 24.5815 29.5347 24C29.5347 23.4186 29.414 22.8435 29.1801 22.3111C28.9463 21.7787 28.6045 21.3007 28.1764 20.9073C27.7482 20.5139 27.2431 20.2137 26.6929 20.0257C26.1426 19.8376 25.5594 19.7659 24.98 19.815C24.1493 19.815 23.3373 19.5687 22.6466 19.1072C21.956 18.6457 21.4176 17.9897 21.0997 17.2223C20.7818 16.4548 20.6987 15.6104 20.8607 14.7956C21.0228 13.9809 21.4228 13.2325 22.0102 12.6452C22.5976 12.0578 23.3459 11.6578 24.1607 11.4957C24.9754 11.3337 25.8199 11.4168 26.5873 11.7347C27.3548 12.0526 28.0107 12.5909 28.4722 13.2816C28.9337 13.9723 29.18 14.7843 29.18 15.615C29.176 16.1677 29.282 16.7156 29.4916 17.227C29.7013 17.7384 30.0105 18.203 30.4013 18.5938C30.7921 18.9846 31.2567 19.2938 31.7681 19.5034C32.2794 19.7131 32.8274 19.819 33.38 19.815C34.4913 19.815 35.5574 20.2554 36.3446 21.0399C37.1318 21.8243 37.5761 22.8887 37.58 24Z" fill="#F44250"/>
<path d="M20.78 24C20.78 22.8861 20.3375 21.8178 19.5498 21.0301C18.7622 20.2425 17.6939 19.8 16.58 19.8C15.4661 19.8 14.3978 20.2425 13.6101 21.0301C12.8225 21.8178 12.38 22.8861 12.38 24C12.38 25.1139 12.8225 26.1822 13.6101 26.9698C14.3978 27.7575 15.4661 28.2 16.58 28.2C17.6939 28.2 18.7622 27.7575 19.5498 26.9698C20.3375 26.1822 20.78 25.1139 20.78 24ZM12.38 32.385C12.38 31.2711 11.9375 30.2028 11.1498 29.4151C10.3622 28.6275 9.29389 28.185 8.17998 28.185C7.06607 28.185 5.99778 28.6275 5.21013 29.4151C4.42248 30.2028 3.97998 31.2711 3.97998 32.385C3.97998 33.4989 4.42248 34.5672 5.21013 35.3548C5.99778 36.1425 7.06607 36.585 8.17998 36.585C9.29389 36.585 10.3622 36.1425 11.1498 35.3548C11.9375 34.5672 12.38 33.4989 12.38 32.385ZM45.98 32.385C45.98 31.2711 45.5375 30.2028 44.7498 29.4151C43.9622 28.6275 42.8939 28.185 41.78 28.185C40.6661 28.185 39.5978 28.6275 38.8101 29.4151C38.0225 30.2028 37.58 31.2711 37.58 32.385C37.58 33.4989 38.0225 34.5672 38.8101 35.3548C39.5978 36.1425 40.6661 36.585 41.78 36.585C42.8939 36.585 43.9622 36.1425 44.7498 35.3548C45.5375 34.5672 45.98 33.4989 45.98 32.385Z" fill="#D2D2D2"/>
</svg>
