<svg width="49" height="48" viewBox="0 0 49 48" fill="none" xmlns="http://www.w3.org/2000/svg">
<path d="M46.175 34.9125C43.6625 36.225 30.65 41.55 27.875 43.0125C25.1 44.475 23.5625 44.4375 21.3876 43.3875C19.2125 42.3375 5.37505 36.7875 2.86255 35.5875C1.62505 34.9875 0.987549 34.5 0.987549 34.0125V29.25C0.987549 29.25 18.9875 25.3125 21.9125 24.3C24.8375 23.25 25.8125 23.2125 28.2875 24.1125C30.7625 25.0125 45.575 27.675 48.0125 28.575V33.2625C48.0125 33.75 47.4501 34.275 46.175 34.9125Z" fill="#A41E11"/>
<path d="M46.175 30.1875C43.6625 31.5 30.65 36.825 27.875 38.2875C25.1 39.75 23.5625 39.7125 21.3875 38.6625C19.2125 37.6125 5.37499 32.025 2.86249 30.825C0.387487 29.625 0.312487 28.8 2.74999 27.8625C5.18749 26.8875 18.95 21.4875 21.875 20.475C24.8 19.425 25.775 19.3875 28.25 20.2875C30.725 21.1875 43.6625 26.325 46.1 27.225C48.6125 28.125 48.6875 28.875 46.175 30.1875Z" fill="#D82C20"/>
<path d="M46.175 27.1875C43.6625 28.5 30.65 33.825 27.875 35.2875C25.1 36.7125 23.5625 36.7125 21.3876 35.6625C19.2125 34.6125 5.37505 29.025 2.86255 27.825C1.62505 27.225 0.987549 26.7375 0.987549 26.25V21.4875C0.987549 21.4875 18.9875 17.55 21.9125 16.5375C24.8375 15.4875 25.8125 15.45 28.2875 16.35C30.7625 17.25 45.575 19.9125 48.0125 20.8125V25.5C48.0125 25.9875 47.4501 26.5125 46.175 27.1875Z" fill="#A41E11"/>
<path d="M46.1749 22.425C43.6624 23.7375 30.6499 29.0625 27.8749 30.525C25.0999 31.95 23.5624 31.95 21.3874 30.9C19.2124 29.85 5.37489 24.2625 2.86239 23.0625C0.349889 21.8625 0.312389 21.0375 2.74989 20.1C5.18739 19.125 18.9499 13.725 21.8749 12.7125C24.7999 11.6625 25.7749 11.625 28.2499 12.525C30.7249 13.425 43.6624 18.5625 46.0999 19.4625C48.6124 20.3625 48.6874 21.1125 46.1749 22.425Z" fill="#D82C20"/>
<path d="M46.175 19.125C43.6625 20.4375 30.65 25.7625 27.875 27.225C25.1 28.65 23.5625 28.65 21.3875 27.6C19.2125 26.5875 5.37495 21 2.86245 19.8C1.62495 19.2 0.949951 18.7125 0.949951 18.225V13.4625C0.949951 13.4625 18.95 9.52499 21.875 8.51249C24.8 7.46249 25.775 7.42499 28.25 8.32499C30.725 9.22499 45.5375 11.8875 47.975 12.7875V17.475C48.0125 17.9625 47.45 18.45 46.175 19.125Z" fill="#A41E11"/>
<path d="M46.1749 14.3625C43.6624 15.675 30.6499 21 27.8749 22.4625C25.0999 23.8875 23.5624 23.8875 21.3874 22.8375C19.2124 21.7875 5.37489 16.2375 2.86239 15.0375C0.349889 13.8375 0.312389 13.0125 2.74989 12.075C5.18739 11.1 18.9499 5.70001 21.8749 4.68751C24.7999 3.63751 25.7749 3.60001 28.2499 4.50001C30.7249 5.40001 43.6624 10.5375 46.0999 11.4375C48.6124 12.3375 48.6874 13.0875 46.1749 14.3625Z" fill="#D82C20"/>
<path d="M30.65 9.78749L26.6 10.2375L25.6625 12.4125L24.2 9.97499L19.5125 9.56249L23 8.28749L21.95 6.33749L25.25 7.61249L28.3249 6.59999L27.5 8.62499L30.65 9.78749ZM25.4375 20.4375L17.825 17.2875L28.7375 15.6375L25.4375 20.4375Z" fill="white"/>
<path d="M14.8999 15.525C18.1101 15.525 20.7124 14.5176 20.7124 13.275C20.7124 12.0324 18.1101 11.025 14.8999 11.025C11.6897 11.025 9.0874 12.0324 9.0874 13.275C9.0874 14.5176 11.6897 15.525 14.8999 15.525Z" fill="white"/>
<path d="M35.4875 10.3875L41.9375 12.9375L35.4875 15.4875V10.3875Z" fill="#7A0C00"/>
<path d="M28.3625 13.2375L35.4875 10.3875V15.4875L34.775 15.7875L28.3625 13.2375Z" fill="#AD2115"/>
</svg>
