<svg width="49" height="48" viewBox="0 0 49 48" fill="none" xmlns="http://www.w3.org/2000/svg">
<rect x="0.5" width="48" height="48" rx="10" fill="#0C0C0C"/>
<path d="M24.5 30H11.5C10.1739 30 8.90215 29.4732 7.96447 28.5355C7.02678 27.5979 6.5 26.3261 6.5 25C6.5 23.6739 7.02678 22.4021 7.96447 21.4645C8.90215 20.5268 10.1739 20 11.5 20H12.5M30.5 24V37C30.5 38.3261 29.9732 39.5979 29.0355 40.5355C28.0979 41.4732 26.8261 42 25.5 42C24.1739 42 22.9021 41.4732 21.9645 40.5355C21.0268 39.5979 20.5 38.3261 20.5 37V36M24.5 18H37.5C38.8261 18 40.0979 18.5268 41.0355 19.4645C41.9732 20.4021 42.5 21.6739 42.5 23C42.5 24.3261 41.9732 25.5979 41.0355 26.5355C40.0979 27.4732 38.8261 28 37.5 28H36.5M18.5 24V11C18.5 9.67392 19.0268 8.40215 19.9645 7.46447C20.9021 6.52678 22.1739 6 23.5 6C24.8261 6 26.0979 6.52678 27.0355 7.46447C27.9732 8.40215 28.5 9.67392 28.5 11V12" stroke="black" stroke-width="4" stroke-linecap="round" stroke-linejoin="round"/>
<path d="M24.5 30H11.5C10.1739 30 8.90215 29.4732 7.96447 28.5355C7.02678 27.5979 6.5 26.3261 6.5 25C6.5 23.6739 7.02678 22.4021 7.96447 21.4645C8.90215 20.5268 10.1739 20 11.5 20H12.5M30.5 24V37C30.5 38.3261 29.9732 39.5979 29.0355 40.5355C28.0979 41.4732 26.8261 42 25.5 42C24.1739 42 22.9021 41.4732 21.9645 40.5355C21.0268 39.5979 20.5 38.3261 20.5 37V36M24.5 18H37.5C38.8261 18 40.0979 18.5268 41.0355 19.4645C41.9732 20.4021 42.5 21.6739 42.5 23C42.5 24.3261 41.9732 25.5979 41.0355 26.5355C40.0979 27.4732 38.8261 28 37.5 28H36.5M18.5 24V11C18.5 9.67392 19.0268 8.40215 19.9645 7.46447C20.9021 6.52678 22.1739 6 23.5 6C24.8261 6 26.0979 6.52678 27.0355 7.46447C27.9732 8.40215 28.5 9.67392 28.5 11V12" stroke="black" stroke-width="4" stroke-linecap="round" stroke-linejoin="round"/>
<path d="M32.8333 28.3102C31.0278 28.3102 29.5 29.4722 28.9444 31.2152H23.1111C23.1111 30.1984 22.8333 29.3269 22.4167 28.6007L32.2778 17.9973C32.6944 17.9973 33.1111 18.1426 33.5278 18.1426C35.4722 18.1426 37 16.5448 37 14.5113C37 12.4778 35.4722 10.88 33.5278 10.88C31.5833 10.88 30.0556 12.4778 30.0556 14.5113C30.0556 14.947 30.1944 15.528 30.3333 15.9638L20.6111 26.4219C19.7778 25.6956 18.6667 25.4051 17.5556 25.4051V19.3046C19.2222 18.7236 20.3333 17.1258 20.3333 15.2375C20.3333 12.7683 18.5278 10.88 16.1667 10.88C13.8056 10.88 12 12.7683 12 15.2375C12 17.1258 13.1111 18.7236 14.7778 19.3046V26.1314C13.1111 27.1482 12 29.0364 12 31.07C12 34.2655 14.5 36.88 17.5556 36.88C19.6389 36.88 21.4444 35.718 22.2778 33.975H28.8056C29.3611 35.5727 30.8889 36.88 32.6944 36.88C34.9167 36.88 36.8611 34.9917 36.8611 32.5225C37 30.1984 35.0556 28.3102 32.8333 28.3102Z" fill="white"/>
</svg>
