<svg width="49" height="48" viewBox="0 0 49 48" fill="none" xmlns="http://www.w3.org/2000/svg">
<path d="M36.8301 0H11.3301C5.11687 0 0.0800781 5.0368 0.0800781 11.25V36.75C0.0800781 42.9632 5.11687 48 11.3301 48H36.8301C43.0433 48 48.0801 42.9632 48.0801 36.75V11.25C48.0801 5.0368 43.0433 0 36.8301 0Z" fill="#CD6799"/>
<mask id="mask0_6_643" style="mask-type:luminance" maskUnits="userSpaceOnUse" x="5" y="9" width="38" height="30">
<path d="M5.33008 9.9375H42.8301V38.0454H5.33008V9.9375Z" fill="white"/>
</mask>
<g mask="url(#mask0_6_643)">
<path d="M37.6002 26.0931C36.2925 26.0998 35.1563 26.4148 34.2047 26.8802C33.8556 26.1889 33.5065 25.5728 33.4448 25.1209C33.3764 24.5938 33.2942 24.2721 33.3764 23.6423C33.4585 23.0124 33.8282 22.1158 33.8213 22.0474C33.8144 21.9789 33.7392 21.6572 32.9862 21.6503C32.2332 21.6433 31.5829 21.7941 31.5075 21.9926C31.4322 22.191 31.2885 22.6429 31.1927 23.1084C31.0626 23.793 29.6865 26.2369 28.8994 27.5169C28.6461 27.0173 28.4271 26.5791 28.3791 26.2299C28.3107 25.7029 28.2285 25.3811 28.3107 24.7513C28.3928 24.1215 28.7625 23.2247 28.7556 23.1563C28.7487 23.0878 28.6735 22.7661 27.9205 22.7593C27.1675 22.7526 26.517 22.9029 26.4418 23.1015C26.3665 23.3001 26.2843 23.7656 26.1269 24.2173C25.9695 24.6692 24.1418 28.7492 23.6625 29.8033C23.4689 30.2299 23.2658 30.6522 23.0534 31.0697C23.0534 31.0697 23.0464 31.0903 23.026 31.1244C22.9592 31.2554 22.8907 31.3855 22.8205 31.5146V31.5216C22.7179 31.7064 22.6082 31.8774 22.5535 31.8774C22.5124 31.8774 22.4372 31.3847 22.5672 30.7138C22.8411 29.2967 23.4914 27.0924 23.4846 27.0173C23.4846 26.9762 23.6078 26.5928 23.0601 26.3942C22.5261 26.1956 22.3345 26.5243 22.2865 26.5243C22.2387 26.5243 22.2043 26.6408 22.2043 26.6408C22.2043 26.6408 22.8 24.1626 21.0681 24.1626C19.9864 24.1626 18.4941 25.3468 17.755 26.4148C16.9145 26.8722 16.0746 27.3308 15.2355 27.7907C14.8319 28.0166 14.4143 28.2426 14.0239 28.4548C13.9965 28.4274 13.9692 28.3931 13.9418 28.3658C11.847 26.1272 7.97254 24.546 8.13679 21.5408C8.19847 20.4454 8.57497 17.5703 15.5779 14.079C21.3419 11.2382 25.9285 12.0253 26.7225 13.7709C27.8588 16.2628 24.265 20.8903 18.3094 21.5612C16.0365 21.8145 14.8455 20.9383 14.5444 20.6098C14.2294 20.2674 14.1814 20.247 14.065 20.3154C13.8733 20.418 13.9965 20.7261 14.065 20.904C14.2431 21.3696 14.9755 22.191 16.2145 22.5949C17.3098 22.9509 19.9727 23.1495 23.197 21.9036C26.8047 20.5071 29.625 16.6254 28.7967 13.374C27.9685 10.0744 22.492 8.98595 17.3098 10.8274C14.2292 11.9228 10.8887 13.6478 8.48591 15.8931C5.63122 18.5631 5.17954 20.8836 5.36441 21.8556C6.02835 25.3058 10.786 27.5511 12.6891 29.2146C12.5933 29.2693 12.5042 29.3173 12.429 29.3584C11.4775 29.8307 7.84935 31.7269 6.9456 33.7328C5.91885 36.0054 7.11004 37.6346 7.89716 37.8536C10.341 38.5314 12.8533 37.3129 14.202 35.3003C15.5507 33.2876 15.3863 30.6728 14.7632 29.4748C14.7564 29.4597 14.7472 29.4458 14.7358 29.4338C14.9824 29.2899 15.2355 29.1394 15.4821 28.9956C15.9351 28.7279 16.3939 28.4699 16.858 28.2219C16.6253 28.8587 16.4541 29.6184 16.372 30.7138C16.2694 32.0008 16.7965 33.6711 17.4878 34.3283C17.7958 34.6157 18.1587 34.6226 18.3915 34.6226C19.1993 34.6226 19.5621 33.9518 19.966 33.1577C20.4587 32.1855 20.9038 31.056 20.9038 31.056C20.9038 31.056 20.3492 34.1093 21.8552 34.1093C22.4029 34.1093 22.9573 33.3973 23.2039 33.0345V33.0413C23.2039 33.0413 23.2176 33.0208 23.245 32.9728C23.2997 32.8838 23.3338 32.829 23.3338 32.829V32.8153C23.553 32.4321 24.0458 31.5626 24.7784 30.1181C25.723 28.2563 26.6335 25.9288 26.6335 25.9288C26.6335 25.9288 26.7156 26.4969 26.9963 27.4416C27.1605 27.9962 27.5029 28.6054 27.7767 29.1941C27.5577 29.5022 27.4208 29.6732 27.4208 29.6732L27.4275 29.6801C27.2496 29.9128 27.058 30.1661 26.8457 30.4125C26.0995 31.3026 25.2096 32.3226 25.0864 32.6169C24.9426 32.9661 24.9769 33.2192 25.2507 33.4247C25.4492 33.5753 25.8051 33.5957 26.1679 33.5753C26.8388 33.5273 27.3113 33.363 27.544 33.2603C27.9068 33.1303 28.3313 32.9318 28.7282 32.6374C29.4608 32.0966 29.9057 31.323 29.8647 30.303C29.844 29.7416 29.6592 29.1804 29.4334 28.6532C29.5019 28.5574 29.5634 28.4616 29.6318 28.3658C30.7889 26.6749 31.6855 24.8198 31.6855 24.8198C31.6855 24.8198 31.7676 25.3879 32.0483 26.3327C32.1852 26.8118 32.4659 27.3321 32.7124 27.8387C31.624 28.7218 30.9531 29.7486 30.7135 30.4194C30.2822 31.6654 30.6177 32.2266 31.2542 32.3567C31.5419 32.4184 31.9525 32.2815 32.2538 32.1514C32.637 32.0282 33.0889 31.8159 33.5202 31.5009C34.2525 30.9602 34.9577 30.2072 34.9167 29.1872C34.896 28.7218 34.7729 28.263 34.6017 27.8181C35.5259 27.4348 36.717 27.2226 38.2367 27.4005C41.4953 27.7839 42.1388 29.817 42.0154 30.6728C41.8922 31.5283 41.2077 31.9939 40.9817 32.1377C40.756 32.2815 40.6806 32.3293 40.7012 32.4321C40.7286 32.5826 40.8381 32.5757 41.0297 32.5483C41.2967 32.5005 42.741 31.857 42.8027 30.2826C42.9055 28.2699 40.9887 26.0724 37.6002 26.0931ZM12.4632 34.5679C11.3817 35.7452 9.87566 36.1903 9.22522 35.8138C8.52697 35.4098 8.80072 33.6711 10.129 32.4251C10.9365 31.6654 11.9772 30.9602 12.6685 30.5289C12.826 30.4331 13.0587 30.2963 13.3393 30.1251C13.3874 30.0977 13.4147 30.084 13.4147 30.084L13.579 29.9813C14.065 31.7612 13.5994 33.3289 12.4632 34.5679ZM20.3357 29.2146C19.9592 30.132 19.1721 32.4799 18.6928 32.3499C18.2822 32.2403 18.0289 30.4605 18.6107 28.7012C18.9051 27.8181 19.528 26.7639 19.8908 26.3531C20.4795 25.6959 21.1298 25.4769 21.2873 25.7439C21.4859 26.0931 20.5686 28.6395 20.3357 29.2146ZM26.8322 32.3226C26.6747 32.4047 26.5242 32.4594 26.4557 32.4184C26.4077 32.391 26.5242 32.2815 26.5242 32.2815C26.5242 32.2815 27.3389 31.4051 27.6606 31.0082C27.8453 30.7753 28.0645 30.5016 28.2972 30.1935V30.2826C28.2972 31.3299 27.2841 32.0349 26.8322 32.3226ZM31.8432 31.1792C31.7267 31.0971 31.7474 30.8233 32.1375 29.9676C32.2881 29.6321 32.6442 29.0709 33.2534 28.53C33.3218 28.7492 33.3698 28.9613 33.3629 29.1598C33.3561 30.4811 32.4113 30.9739 31.8432 31.1792Z" fill="white"/>
</g>
</svg>
