<svg width="49" height="48" viewBox="0 0 49 48" fill="none" xmlns="http://www.w3.org/2000/svg">
<path d="M0.67041 16.65C0.67041 10.822 0.67041 7.90793 1.80462 5.68191C2.80231 3.72385 4.39426 2.1319 6.35232 1.13421C8.57834 0 11.4924 0 17.3204 0H32.0204C37.8485 0 40.7625 0 42.9885 1.13421C44.9466 2.1319 46.5385 3.72385 47.5362 5.68191C48.6704 7.90793 48.6704 10.822 48.6704 16.65V31.35C48.6704 37.178 48.6704 40.0921 47.5362 42.3181C46.5385 44.2761 44.9466 45.8681 42.9885 46.8658C40.7625 48 37.8485 48 32.0204 48H17.3204C11.4924 48 8.57834 48 6.35232 46.8658C4.39426 45.8681 2.80231 44.2761 1.80462 42.3181C0.67041 40.0921 0.67041 37.178 0.67041 31.35V16.65Z" fill="url(#paint0_linear_315_27399)"/>
<path d="M3.71729 19.6969C3.71729 13.8688 3.71729 10.9548 4.8515 8.72879C5.84918 6.77072 7.44113 5.17877 9.3992 4.18109C11.6252 3.04688 14.5392 3.04688 20.3673 3.04688H28.9735C34.8016 3.04688 37.7156 3.04688 39.9416 4.18109C41.8997 5.17877 43.4916 6.77072 44.4893 8.72879C45.6235 10.9548 45.6235 13.8688 45.6235 19.6969V28.3031C45.6235 34.1312 45.6235 37.0452 44.4893 39.2712C43.4916 41.2293 41.8997 42.8212 39.9416 43.8189C37.7156 44.9531 34.8016 44.9531 28.9735 44.9531H20.3673C14.5392 44.9531 11.6252 44.9531 9.3992 43.8189C7.44113 42.8212 5.84918 41.2293 4.8515 39.2712C3.71729 37.0452 3.71729 34.1312 3.71729 28.3031V19.6969Z" fill="url(#paint1_radial_315_27399)"/>
<path fill-rule="evenodd" clip-rule="evenodd" d="M3.80112 34.2656C3.7482 33.2657 3.72868 32.1269 3.72149 30.8077H17.2236C18.8623 30.8077 19.804 29.6871 19.804 28.0244C19.804 26.4581 18.9617 25.5424 17.4436 25.5424C13.1055 25.5424 8.23845 25.121 8.23845 19.5422C8.23845 16.506 10.359 13.7589 13.588 13.7589H45.541C45.5934 14.7621 45.6125 15.9049 45.6195 17.2289H29.7456V22.2893H39.8018V24.0002C39.8018 24.9451 39.0358 25.7111 38.0909 25.7111H29.842V32.5306C29.842 33.4888 29.0652 34.2656 28.107 34.2656H26.372V17.2289H15.1544C13.588 17.2289 12.2011 17.7616 12.2011 19.4725C12.2011 20.4846 13.0939 21.5423 14.2747 21.5423H17.9255C21.3474 21.5423 22.8912 24.2653 22.8912 28.0244C22.8912 31.5667 21.5883 34.2656 18.2388 34.2656H3.80112Z" fill="white"/>
<defs>
<linearGradient id="paint0_linear_315_27399" x1="24.6704" y1="2.8125" x2="45.2885" y2="27.4196" gradientUnits="userSpaceOnUse">
<stop stop-color="#51ABFF"/>
<stop offset="1" stop-color="#2294FF"/>
</linearGradient>
<radialGradient id="paint1_radial_315_27399" cx="0" cy="0" r="1" gradientUnits="userSpaceOnUse" gradientTransform="translate(24.6704 24) rotate(90) scale(24)">
<stop stop-color="#2C2C2C"/>
<stop offset="1" stop-color="#222222"/>
</radialGradient>
</defs>
</svg>
