<svg width="49" height="48" viewBox="0 0 49 48" fill="none" xmlns="http://www.w3.org/2000/svg">
<path d="M11.041 30.2696C11.041 33.0184 8.79927 35.2635 6.05014 35.2635C3.30102 35.2635 1.05664 33.0184 1.05664 30.2696C1.05664 27.5209 3.30177 25.2758 6.05052 25.2758H11.0414L11.041 30.2696ZM13.5569 30.2696C13.5569 27.5209 15.802 25.2758 18.5508 25.2758C21.2995 25.2758 23.5446 27.5205 23.5446 30.2696V42.7703C23.5446 45.519 21.2999 47.7641 18.5508 47.7641C15.802 47.7641 13.5569 45.519 13.5569 42.7703V30.2696Z" fill="#DE1C59"/>
<path d="M18.5508 10.2206C15.802 10.2206 13.5569 7.97889 13.5569 5.22977C13.5569 2.48064 15.802 0.236267 18.5508 0.236267C21.2995 0.236267 23.5446 2.48139 23.5446 5.23014V10.221L18.5508 10.2206ZM18.5508 12.7365C21.2995 12.7365 23.5446 14.9816 23.5446 17.7304C23.5446 20.4791 21.2999 22.7243 18.5508 22.7243H6.05014C3.30139 22.7243 1.05664 20.4795 1.05664 17.7304C1.05664 14.9816 3.30177 12.7365 6.05052 12.7365H18.5508Z" fill="#35C5F0"/>
<path d="M38.5998 17.7304C38.5998 14.9816 40.8416 12.7365 43.5907 12.7365C46.3398 12.7365 48.5846 14.9816 48.5846 17.7304C48.5846 20.4791 46.3394 22.7243 43.5907 22.7243H38.5998V17.7304ZM36.0839 17.7304C36.0839 20.4791 33.8388 22.7243 31.0901 22.7243C28.3413 22.7243 26.0962 20.4795 26.0962 17.7304V5.22977C26.0962 2.48102 28.3409 0.236267 31.0901 0.236267C33.8388 0.236267 36.0839 2.48139 36.0839 5.23014V17.7304Z" fill="#2EB57D"/>
<path d="M31.0901 37.7794C33.8388 37.7794 36.0839 40.0211 36.0839 42.7703C36.0839 45.5194 33.8388 47.7641 31.0901 47.7641C28.3413 47.7641 26.0962 45.519 26.0962 42.7703V37.7794H31.0901ZM31.0901 35.2635C28.3413 35.2635 26.0962 33.0184 26.0962 30.2696C26.0962 27.5209 28.3409 25.2758 31.0901 25.2758H43.5907C46.3394 25.2758 48.5846 27.5205 48.5846 30.2696C48.5846 33.0184 46.3394 35.2635 43.5907 35.2635H31.0901Z" fill="#EBB02E"/>
</svg>
