<svg width="49" height="48" viewBox="0 0 49 48" fill="none" xmlns="http://www.w3.org/2000/svg">
<path fill-rule="evenodd" clip-rule="evenodd" d="M44.9639 41.0829L25.8701 1.0931C25.5539 0.419749 24.8862 0 24.1582 0C23.4315 0 22.7639 0.428493 22.4379 1.0931L3.35315 41.0829C3.00234 41.8175 3.13923 42.692 3.68696 43.2866C4.23468 43.8724 5.0905 44.056 5.82656 43.7325L18.3816 38.2234C18.4504 38.1884 18.5277 38.1797 18.6135 38.1797C18.8524 38.1797 19.0576 38.3283 19.1433 38.5381L22.3957 46.7757C22.6866 47.5103 23.388 48 24.1666 48H24.1765C24.9551 48 25.6565 47.5103 25.9474 46.7669L29.1224 38.5381C29.2082 38.337 29.4134 38.1884 29.6453 38.1884C29.7128 38.1884 29.7816 38.197 29.8421 38.2234L42.5085 43.75C43.2436 44.0735 44.0911 43.8899 44.6393 43.3041C45.1874 42.7182 45.3153 41.8175 44.9639 41.0829ZM23.6916 3.31874L22.8792 37.1819C22.8623 37.9106 23.4386 38.5109 24.1568 38.5109C24.8764 38.5109 25.4541 37.9059 25.433 37.1743L24.4252 3.31655C24.4196 3.11534 24.2566 2.95538 24.0584 2.95538C23.8602 2.95538 23.6972 3.11664 23.6916 3.31874Z" fill="url(#paint0_linear_63_27117)"/>
<defs>
<linearGradient id="paint0_linear_63_27117" x1="24.5953" y1="47.9885" x2="24.5953" y2="0" gradientUnits="userSpaceOnUse">
<stop stop-color="#006DEE"/>
<stop offset="0.3113" stop-color="#1E9DF5"/>
<stop offset="0.6136" stop-color="#36C5FA"/>
<stop offset="0.8531" stop-color="#45DDFE"/>
<stop offset="1" stop-color="#4BE6FF"/>
</linearGradient>
</defs>
</svg>
