<svg width="49" height="48" viewBox="0 0 49 48" fill="none" xmlns="http://www.w3.org/2000/svg">
<path d="M24.8203 0C11.5656 0 0.820312 10.7454 0.820312 24C0.820312 37.2555 11.5658 48 24.8203 48C38.076 48 48.8203 37.2555 48.8203 24C48.8203 10.7464 38.076 0.0013125 24.8199 0.0013125L24.8203 0ZM35.8264 34.6151C35.3964 35.3201 34.4736 35.5436 33.7686 35.1109C28.1336 31.6689 21.0401 30.8893 12.6861 32.7981C12.2992 32.8861 11.8932 32.817 11.5573 32.6058C11.2215 32.3945 10.9833 32.0586 10.8951 31.6717C10.8511 31.4803 10.8454 31.282 10.8782 31.0883C10.911 30.8946 10.9817 30.7092 11.0861 30.5429C11.1906 30.3765 11.3269 30.2324 11.4872 30.1187C11.6474 30.0051 11.8285 29.9242 12.0201 29.8806C21.1626 27.7918 29.0044 28.6911 35.3306 32.5573C36.0356 32.9901 36.2591 33.9101 35.8264 34.6151ZM38.7639 28.0802C38.2221 28.9605 37.0701 29.2386 36.1903 28.6969C29.7392 24.7316 19.9054 23.5832 12.2751 25.8994C11.2854 26.1983 10.2403 25.6406 9.93994 24.6527C9.64181 23.6631 10.1998 22.6198 11.1877 22.3191C19.9037 19.6742 30.7393 20.9554 38.1478 25.5079C39.0276 26.0498 39.3056 27.2016 38.7639 28.0802ZM39.0161 21.2752C31.281 16.6807 18.5192 16.2581 11.1341 18.4999C9.94819 18.8595 8.694 18.1899 8.33475 17.004C7.97531 15.8175 8.64412 14.5642 9.831 14.2037C18.3084 11.6301 32.4017 12.1275 41.307 17.4142C42.3761 18.0473 42.7256 19.425 42.0923 20.4902C41.4619 21.5571 40.0804 21.9086 39.0173 21.2752H39.0161Z" fill="#1ED760"/>
</svg>
