<svg width="49" height="48" viewBox="0 0 49 48" fill="none" xmlns="http://www.w3.org/2000/svg">
<path d="M24.6704 0C11.4157 0 0.67041 10.7454 0.67041 24C0.67041 37.2555 11.4158 48 24.6704 48C37.9261 48 48.6704 37.2555 48.6704 24C48.6704 10.7464 37.9261 0.0013125 24.67 0.0013125L24.6704 0ZM35.6765 34.6151C35.2465 35.3201 34.3237 35.5436 33.6187 35.1109C27.9837 31.6689 20.8902 30.8893 12.5362 32.7981C12.1493 32.8861 11.7433 32.817 11.4074 32.6058C11.0716 32.3945 10.8334 32.0586 10.7452 31.6717C10.7012 31.4803 10.6955 31.282 10.7283 31.0883C10.7611 30.8946 10.8318 30.7092 10.9362 30.5429C11.0407 30.3765 11.177 30.2324 11.3373 30.1187C11.4975 30.0051 11.6786 29.9242 11.8702 29.8806C21.0127 27.7918 28.8545 28.6911 35.1807 32.5573C35.8857 32.9901 36.1092 33.9101 35.6765 34.6151ZM38.614 28.0802C38.0722 28.9605 36.9202 29.2386 36.0404 28.6969C29.5893 24.7316 19.7555 23.5832 12.1252 25.8994C11.1355 26.1983 10.0904 25.6406 9.79004 24.6527C9.49191 23.6631 10.0499 22.6198 11.0378 22.3191C19.7538 19.6742 30.5894 20.9554 37.9979 25.5079C38.8777 26.0498 39.1557 27.2016 38.614 28.0802ZM38.8662 21.2752C31.1311 16.6807 18.3693 16.2581 10.9842 18.4999C9.79829 18.8595 8.5441 18.1899 8.18485 17.004C7.82541 15.8175 8.49422 14.5642 9.6811 14.2037C18.1585 11.6301 32.2518 12.1275 41.1571 17.4142C42.2262 18.0473 42.5757 19.425 41.9423 20.4902C41.312 21.5571 39.9305 21.9086 38.8673 21.2752H38.8662Z" fill="#1ED760"/>
</svg>
