<svg width="48" height="48" viewBox="0 0 48 48" fill="none" xmlns="http://www.w3.org/2000/svg">
<path d="M24.002 4C13.002 4 4.00201 13 4.00201 24C4.00201 35 13.002 44 24.002 44C35.002 44 44.002 35 44.002 24C44.002 13 35.102 4 24.002 4ZM31.502 33.3C26.802 30.4 20.902 29.8 13.902 31.4C13.202 31.6 12.602 31.1 12.402 30.5C12.202 29.8 12.702 29.2 13.302 29C20.902 27.3 27.502 28 32.702 31.2C33.402 31.5 33.502 32.3 33.202 32.9C32.802 33.5 32.102 33.7 31.502 33.3ZM33.502 27.9C28.102 24.6 19.902 23.6 13.602 25.6C12.802 25.8 11.902 25.4 11.702 24.6C11.502 23.8 11.902 22.9 12.702 22.7C20.002 20.5 29.002 21.6 35.202 25.4C35.802 25.7 36.102 26.7 35.602 27.4C35.102 28.1 34.202 28.4 33.502 27.9ZM12.6 19.5C11.6 19.8 10.6 19.2 10.3 18.3C10 17.3 10.6 16.3 11.5 16C18.6 13.9 30.3 14.3 37.7 18.7C38.6 19.2 38.9 20.4 38.4 21.3C37.9 22 36.7 22.3 35.8 21.8C29.4 18 18.7 17.6 12.6 19.5Z" fill="#4EACFF"/>
</svg>
