<svg width="49" height="48" viewBox="0 0 49 48" fill="none" xmlns="http://www.w3.org/2000/svg">
<path d="M38.405 43.422L11.405 42.072C11.0203 42.0528 10.6578 41.8863 10.3925 41.607C10.1272 41.3278 9.9795 40.9572 9.97998 40.572V10.359C9.97998 9.98716 10.1181 9.62855 10.3675 9.35277C10.617 9.07699 10.96 8.9037 11.33 8.86651L38.33 6.00901C38.5384 5.98806 38.749 6.01101 38.948 6.07639C39.1471 6.14176 39.3302 6.2481 39.4857 6.38857C39.6411 6.52903 39.7654 6.70051 39.8505 6.89194C39.9357 7.08336 39.9798 7.29051 39.98 7.50001V41.9235C39.9798 42.1267 39.9384 42.3278 39.8582 42.5145C39.778 42.7012 39.6607 42.8696 39.5134 43.0096C39.3661 43.1496 39.1919 43.2582 39.0014 43.3289C38.8108 43.3995 38.6079 43.4322 38.405 43.422Z" fill="#FF4081"/>
<path d="M30.9801 12.78L31.2651 6.41699L36.7386 6.00449L36.9786 12.5595C36.9798 12.6706 36.9369 12.7777 36.8593 12.8573C36.7817 12.9368 36.6757 12.9824 36.5646 12.984C36.4626 12.9854 36.3632 12.952 36.2826 12.8895L34.1646 11.28L31.6626 13.125C31.5717 13.191 31.4588 13.2193 31.3475 13.2039C31.2362 13.1885 31.1352 13.1307 31.0656 13.0425C31.0072 12.9677 30.977 12.8748 30.9801 12.78ZM27.7881 22.7505C27.7881 23.481 32.9601 23.1255 33.6561 22.6095C33.6561 17.6235 30.8511 15 25.7091 15C20.5776 15 17.6916 17.661 17.6916 21.654C17.6916 28.617 27.5331 28.7565 27.5331 32.553C27.5605 32.7867 27.5337 33.0235 27.4548 33.2452C27.376 33.4669 27.2471 33.6674 27.0783 33.8313C26.9095 33.9952 26.7052 34.118 26.4813 34.1903C26.2574 34.2625 26.0199 34.2823 25.7871 34.248C24.2166 34.248 23.5986 33.48 23.6676 30.885C23.6676 30.3225 17.6916 30.144 17.5161 30.885C17.0541 37.182 21.1551 39 25.8561 39C30.4086 39 33.9801 36.675 33.9801 32.487C33.9801 25.0275 24.0006 25.224 24.0006 21.522C23.9866 21.2808 24.0267 21.0396 24.1179 20.8159C24.2092 20.5922 24.3494 20.3918 24.5281 20.2293C24.7069 20.0668 24.9197 19.9463 25.151 19.8767C25.3824 19.8071 25.6263 19.7901 25.8651 19.827C26.5821 19.827 27.8961 19.947 27.7881 22.7505Z" fill="#FAFAFA"/>
</svg>
