<svg width="49" height="48" viewBox="0 0 49 48" fill="none" xmlns="http://www.w3.org/2000/svg">
<path d="M0.5 16.6401C0.5 8.79581 0.5 4.87369 2.93694 2.43694C5.37387 0.000187397 9.29562 0 17.1401 0H31.8601C39.7042 0 43.6261 0 46.0632 2.43694C48.5 4.87369 48.5 8.79562 48.5 16.6401V31.3601C48.5 39.2042 48.5 43.1261 46.0631 45.5632C43.6261 48 39.7044 48 31.8599 48H17.1403C9.296 48 5.37388 48 2.93712 45.5631C0.500375 43.1261 0.5 39.2044 0.5 31.3599V16.6401Z" fill="#4945FF"/>
<path d="M33.62 14.5599H17.46V22.8H25.7V31.0399H33.9399V14.88C33.9399 14.7032 33.7966 14.5599 33.62 14.5599Z" fill="white"/>
<path d="M25.3799 22.8H25.6999V23.1201H25.3799V22.8Z" fill="white"/>
<path d="M17.4598 22.8H25.3798C25.5566 22.8 25.6999 22.9432 25.6999 23.1199V31.0399H17.7799C17.7379 31.0399 17.6962 31.0316 17.6574 31.0156C17.6186 30.9995 17.5833 30.976 17.5536 30.9463C17.5239 30.9165 17.5003 30.8813 17.4842 30.8425C17.4681 30.8036 17.4598 30.762 17.4598 30.72V22.8ZM25.6999 31.0399H33.9398L25.9729 39.0067C25.8722 39.1076 25.6999 39.0362 25.6999 38.8939V31.0399ZM17.4598 22.8H9.60601C9.46351 22.8 9.39226 22.6275 9.49295 22.5268L17.4598 14.5599V22.8Z" fill="#9593FF"/>
</svg>
