<svg width="49" height="48" viewBox="0 0 49 48" fill="none" xmlns="http://www.w3.org/2000/svg">
<path d="M0.980103 44.0137V32.727L14.0286 22.2015C16.9334 19.8585 19.7676 19.1205 22.7897 20.7941C23.9687 21.4466 24.3884 23.6062 23.6316 25.2701L0.980103 44.0137Z" fill="url(#paint0_linear_19_722)"/>
<path d="M13.3083 22.9766C15.7446 20.0145 19.0225 17.3557 22.8734 15.0285C25.4245 13.4872 27.4758 16.6511 25.2711 19.8232C22.9874 22.8319 19.8786 25.4212 17.3451 27.1972C15.6441 28.3894 12.199 24.3259 13.3083 22.9766Z" fill="url(#paint1_linear_19_722)"/>
<path d="M13.3083 22.9766C15.7446 20.0145 19.0225 17.3557 22.8734 15.0285C25.4245 13.4872 27.4758 16.6511 25.2711 19.8232C22.9874 22.8319 19.8786 25.4212 17.3451 27.1972C15.6441 28.3894 12.199 24.3259 13.3083 22.9766Z" fill="url(#paint2_radial_19_722)"/>
<path d="M0.980103 44.0137V47.7686H12.0152L32.2367 31.3384C34.273 29.3884 34.042 26.1484 33.0321 24.3761C30.9149 20.6565 26.5746 24.012 23.6316 25.2701L0.980103 44.0137Z" fill="url(#paint3_linear_19_722)"/>
<path d="M23.005 25.5263C24.9599 23.3831 33.601 15.861 35.197 17.4818C36.6482 18.9563 35.8521 22.206 32.392 26.0243C29.6511 29.0471 26.1981 31.0826 24.4026 29.6599C22.9124 28.4809 21.8646 26.7765 23.005 25.5263Z" fill="url(#paint4_linear_19_722)"/>
<path d="M23.005 25.5263C24.9599 23.3831 33.601 15.861 35.197 17.4818C36.6482 18.9563 35.8521 22.206 32.392 26.0243C29.6511 29.0471 26.1981 31.0826 24.4026 29.6599C22.9124 28.4809 21.8646 26.7765 23.005 25.5263Z" fill="url(#paint5_radial_19_722)"/>
<path d="M12.0153 47.7686H28.9713C33.5005 43.3894 39.184 38.1814 36.8189 34.1036C35.4254 31.704 33.8114 31.266 32.2368 31.338L12.0153 47.7686Z" fill="url(#paint6_linear_19_722)"/>
<path d="M38.7757 27.6997C38.2852 24.7545 27.9415 33.5419 27.3179 34.7032C26.7149 35.826 28.2595 40.1265 30.7068 39.0277C33.8399 37.5472 39.5879 32.5755 38.7757 27.6997Z" fill="url(#paint7_linear_19_722)"/>
<path d="M38.7757 27.6997C38.2852 24.7545 27.9415 33.5419 27.3179 34.7032C26.7149 35.826 28.2595 40.1265 30.7068 39.0277C33.8399 37.5472 39.5879 32.5755 38.7757 27.6997Z" fill="url(#paint8_radial_19_722)"/>
<path d="M39.4379 21.435C36.0603 23.9767 38.2499 28.1194 34.3424 30.3832C39.4465 31.4389 42.5924 24.3101 41.764 21.6952L39.4379 21.435Z" fill="url(#paint9_linear_19_722)"/>
<path d="M39.4379 21.435C36.0603 23.9767 38.2499 28.1194 34.3424 30.3832C39.4465 31.4389 42.5924 24.3101 41.764 21.6952L39.4379 21.435Z" fill="url(#paint10_radial_19_722)"/>
<path d="M46.1124 7.69013L41.7699 21.9776C40.9464 22.3084 39.9887 22.0808 39.4457 21.4121L42.8848 6.67688L46.1124 7.69013Z" fill="url(#paint11_linear_19_722)"/>
<path d="M48.9801 0.231384V9.19388C45.9943 10.3841 38.4388 7.40701 39.3186 4.59826L40.6855 0.231384H48.9801Z" fill="url(#paint12_linear_19_722)"/>
<defs>
<linearGradient id="paint0_linear_19_722" x1="6.624" y1="27.3525" x2="12.2447" y2="34.3918" gradientUnits="userSpaceOnUse">
<stop offset="0.085" stop-color="#CC7F12"/>
<stop offset="0.127" stop-color="#FFC22F"/>
<stop offset="0.5" stop-color="#FFD468"/>
<stop offset="1" stop-color="#FFD255"/>
</linearGradient>
<linearGradient id="paint1_linear_19_722" x1="16.6126" y1="18.4463" x2="21.604" y2="24.3937" gradientUnits="userSpaceOnUse">
<stop stop-color="#BF4F95"/>
<stop offset="0.284" stop-color="#D26AAA"/>
<stop offset="0.588" stop-color="#DC81BB"/>
<stop offset="0.711" stop-color="#D76CAD"/>
<stop offset="0.825" stop-color="#D26CAB"/>
<stop offset="0.957" stop-color="#CA629D"/>
<stop offset="1" stop-color="#C96499"/>
</linearGradient>
<radialGradient id="paint2_radial_19_722" cx="0" cy="0" r="1" gradientUnits="userSpaceOnUse" gradientTransform="translate(19.9703 20.8797) rotate(44.1948) scale(4.68646 8.87622)">
<stop stop-color="#B94481" stop-opacity="0"/>
<stop offset="0.694" stop-color="#B94481" stop-opacity="0.186"/>
<stop offset="1" stop-color="#B94481"/>
</radialGradient>
<linearGradient id="paint3_linear_19_722" x1="14.1533" y1="31.923" x2="21.6289" y2="40.9162" gradientUnits="userSpaceOnUse">
<stop offset="0.027" stop-color="#CC7F12"/>
<stop offset="0.157" stop-color="#FFC22F"/>
<stop offset="0.5" stop-color="#FFD468"/>
<stop offset="1" stop-color="#FFD255"/>
</linearGradient>
<linearGradient id="paint4_linear_19_722" x1="27.5311" y1="21.7627" x2="31.3827" y2="26.2653" gradientUnits="userSpaceOnUse">
<stop stop-color="#BF4F95"/>
<stop offset="0.284" stop-color="#D26AAA"/>
<stop offset="0.588" stop-color="#DC81BA"/>
<stop offset="0.711" stop-color="#D76CAD"/>
<stop offset="0.825" stop-color="#D26CAB"/>
<stop offset="0.957" stop-color="#CA629D"/>
<stop offset="1" stop-color="#C96499"/>
</linearGradient>
<radialGradient id="paint5_radial_19_722" cx="0" cy="0" r="1" gradientUnits="userSpaceOnUse" gradientTransform="translate(29.2033 23.689) rotate(42.0704) scale(5.07649 8.94367)">
<stop stop-color="#B94481" stop-opacity="0"/>
<stop offset="0.694" stop-color="#B94481" stop-opacity="0.186"/>
<stop offset="1" stop-color="#B94481"/>
</radialGradient>
<linearGradient id="paint6_linear_19_722" x1="22.0152" y1="38.5153" x2="29.5064" y2="47.8184" gradientUnits="userSpaceOnUse">
<stop offset="0.027" stop-color="#CC7F12"/>
<stop offset="0.157" stop-color="#FFC22F"/>
<stop offset="0.5" stop-color="#FFD468"/>
<stop offset="1" stop-color="#FFD255"/>
</linearGradient>
<linearGradient id="paint7_linear_19_722" x1="30.7336" y1="30.5686" x2="34.6831" y2="35.3132" gradientUnits="userSpaceOnUse">
<stop stop-color="#BF4F95"/>
<stop offset="0.284" stop-color="#D26AAA"/>
<stop offset="0.588" stop-color="#DC81BB"/>
<stop offset="0.711" stop-color="#D76CAD"/>
<stop offset="0.825" stop-color="#D26CAB"/>
<stop offset="0.957" stop-color="#CA629D"/>
<stop offset="1" stop-color="#C96499"/>
</linearGradient>
<radialGradient id="paint8_radial_19_722" cx="0" cy="0" r="1" gradientUnits="userSpaceOnUse" gradientTransform="translate(33.0118 33.434) rotate(-40.4719) scale(9.22259 3.47233)">
<stop stop-color="#B94481" stop-opacity="0"/>
<stop offset="0.644" stop-color="#B94481" stop-opacity="0.186"/>
<stop offset="1" stop-color="#B94481"/>
</radialGradient>
<linearGradient id="paint9_linear_19_722" x1="40.2947" y1="23.6588" x2="36.3667" y2="29.5919" gradientUnits="userSpaceOnUse">
<stop stop-color="#DC83B9"/>
<stop offset="0.159" stop-color="#DE77B5"/>
<stop offset="0.56" stop-color="#DD74B3"/>
<stop offset="0.797" stop-color="#D65FA3"/>
<stop offset="1" stop-color="#C95195" stop-opacity="0.992"/>
</linearGradient>
<radialGradient id="paint10_radial_19_722" cx="0" cy="0" r="1" gradientUnits="userSpaceOnUse" gradientTransform="translate(38.8877 26.3354) rotate(20.4815) scale(2.5058 5.45909)">
<stop stop-color="#B94481" stop-opacity="0"/>
<stop offset="0.644" stop-color="#B94481" stop-opacity="0.186"/>
<stop offset="1" stop-color="#B94481"/>
</radialGradient>
<linearGradient id="paint11_linear_19_722" x1="39.4442" y1="14.4031" x2="46.4179" y2="16.1734" gradientUnits="userSpaceOnUse">
<stop offset="0.195" stop-color="#974377"/>
<stop offset="0.247" stop-color="#CC76AC"/>
<stop offset="0.33" stop-color="#F5A3D4"/>
<stop offset="0.39" stop-color="#FCA6DA"/>
<stop offset="0.476" stop-color="#E980C1"/>
<stop offset="0.62" stop-color="#A34D81"/>
</linearGradient>
<linearGradient id="paint12_linear_19_722" x1="39.2466" y1="4.8468" x2="49.5106" y2="7.76744" gradientUnits="userSpaceOnUse">
<stop offset="0.021" stop-color="#A65486"/>
<stop offset="0.095" stop-color="#DB77B4"/>
<stop offset="0.146" stop-color="#F188C8"/>
<stop offset="0.255" stop-color="#FFADDF"/>
<stop offset="0.372" stop-color="#FFADDF"/>
<stop offset="0.576" stop-color="#EE84C5"/>
<stop offset="0.747" stop-color="#DA6FB0"/>
<stop offset="1" stop-color="#A63D7B"/>
</linearGradient>
</defs>
</svg>
