<svg width="49" height="48" viewBox="0 0 49 48" fill="none" xmlns="http://www.w3.org/2000/svg">
<path d="M13.5801 20.55C14.9801 14.95 18.4801 12.15 24.0801 12.15C32.4801 12.15 33.5301 18.45 37.7301 19.5C40.5301 20.2 42.9801 19.15 45.0801 16.35C43.6801 21.95 40.1801 24.75 34.5801 24.75C26.1801 24.75 25.1301 18.45 20.9301 17.4C18.1301 16.7 15.6801 17.75 13.5801 20.55ZM3.08008 33.15C4.48008 27.55 7.98008 24.75 13.5801 24.75C21.9801 24.75 23.0301 31.05 27.2301 32.1C30.0301 32.8 32.4801 31.75 34.5801 28.95C33.1801 34.55 29.6801 37.35 24.0801 37.35C15.6801 37.35 14.6301 31.05 10.4301 30C7.63008 29.3 5.18008 30.35 3.08008 33.15Z" fill="#44A8B3"/>
</svg>
