<svg width="49" height="48" viewBox="0 0 49 48" fill="none" xmlns="http://www.w3.org/2000/svg">
<path d="M36.2944 38.762C39.5758 38.7588 42.7218 37.4539 45.0421 35.1337C47.3623 32.8134 48.6672 29.6674 48.6704 26.386C48.6704 22.986 47.2244 19.682 44.7544 17.356C44.7254 14.1889 43.4476 11.1613 41.1987 8.93112C38.9498 6.70095 35.9116 5.44851 32.7444 5.44601C30.8456 5.44504 28.9736 5.89469 27.2824 6.75801C25.0538 4.65621 22.1058 3.4863 19.0424 3.48801C15.9484 3.4901 12.9743 4.68522 10.7391 6.82465C8.50396 8.96408 7.17987 11.883 7.04241 14.974C5.11021 16.0537 3.50105 17.6293 2.38095 19.5383C1.26084 21.4473 0.670356 23.6206 0.67041 25.834C0.67217 27.549 1.02821 29.245 1.71622 30.8159C2.40422 32.3868 3.40935 33.7986 4.66857 34.9628C5.9278 36.1271 7.41397 37.0186 9.0339 37.5815C10.6538 38.1444 12.3726 38.3665 14.0824 38.234C15.2195 40.1434 16.8319 41.7255 18.7626 42.8261C20.6932 43.9268 22.8761 44.5083 25.0984 44.514C27.2187 44.5144 29.3059 43.9881 31.1725 42.9824C33.0391 41.9767 34.6266 40.523 35.7924 38.752C35.9604 38.7587 36.1291 38.762 36.2944 38.762ZM25.0984 41.246C23.2907 41.2412 21.5212 40.725 19.9945 39.757C18.4677 38.7891 17.246 37.4089 16.4704 35.776L15.9364 34.652L14.7104 34.868C13.3911 35.0999 12.037 35.0404 10.7431 34.6937C9.44921 34.3469 8.24683 33.7213 7.22028 32.8608C6.19373 32.0002 5.36786 30.9255 4.80058 29.712C4.2333 28.4985 3.93835 27.1756 3.93641 25.836C3.93717 24.068 4.44849 22.3377 5.40891 20.8533C6.36933 19.3689 7.73799 18.1933 9.35041 17.468L10.3624 17.012L10.3104 15.902C10.2572 14.7214 10.4436 13.5422 10.8584 12.4356C11.2732 11.3289 11.9078 10.3177 12.7239 9.46292C13.54 8.60812 14.5208 7.92743 15.607 7.46186C16.6933 6.9963 17.8626 6.75551 19.0444 6.75401C21.6384 6.75401 24.0684 7.88601 25.7384 9.87401L26.6784 10.994L27.8964 10.18C29.3316 9.22027 31.0199 8.70926 32.7464 8.71201C33.9378 8.71439 35.1161 8.95975 36.2094 9.43309C37.3027 9.90643 38.2879 10.5978 39.1049 11.4649C39.9218 12.3321 40.5533 13.3567 40.9608 14.4762C41.3682 15.5958 41.543 16.7866 41.4744 17.976L41.4244 18.808L42.0684 19.338C43.106 20.1975 43.9426 21.274 44.5193 22.4917C45.096 23.7094 45.3988 25.0387 45.4064 26.386C45.405 27.6808 45.1279 28.9604 44.5936 30.1398C44.0592 31.3191 43.2799 32.3712 42.3074 33.226C41.3349 34.0808 40.1916 34.7188 38.9534 35.0974C37.7153 35.476 36.4107 35.5867 35.1264 35.422L34.0184 35.28L33.4844 36.26C32.6666 37.77 31.4555 39.0306 29.9795 39.9084C28.5036 40.7862 26.8177 41.2484 25.1004 41.246H25.0984ZM31.3024 28.18L31.3344 28.166C31.7584 27.984 31.9104 27.824 31.9104 27.38V26.824C31.9104 26.336 31.6304 26.022 31.1704 26.022H31.1444L31.0524 26.042C30.0894 26.3931 29.0734 26.5771 28.0484 26.586C27.0884 26.586 26.1404 26.406 25.2304 26.046L25.2044 26.036L25.1004 26.022C24.6404 26.022 24.3604 26.336 24.3604 26.824V27.38C24.3604 27.798 24.5164 27.986 24.8824 28.144L24.9224 28.162L24.9624 28.178C25.9374 28.5994 26.9882 28.8172 28.0504 28.818C29.1004 28.818 30.1924 28.604 31.3024 28.18ZM17.1404 23.61C17.1404 23.162 17.3724 22.914 17.6844 22.85L20.6864 22.062L17.6764 21.272C17.3644 21.19 17.1404 20.944 17.1404 20.512V19.566C17.1404 19.152 17.3884 18.974 17.6724 18.974C17.7657 18.974 17.8597 18.9927 17.9544 19.03L23.3144 20.764C23.7204 20.9 23.9444 21.226 23.9444 21.674V22.448C23.9444 22.896 23.7204 23.224 23.3124 23.36L17.9424 25.096C17.8617 25.1225 17.7773 25.136 17.6924 25.136C17.3564 25.136 17.1404 24.896 17.1404 24.542V23.61Z" fill="url(#paint0_linear_61_26709)"/>
<defs>
<linearGradient id="paint0_linear_61_26709" x1="0.67041" y1="24.001" x2="48.6704" y2="24.001" gradientUnits="userSpaceOnUse">
<stop stop-color="#27B7B6"/>
<stop offset="1" stop-color="#4797F8"/>
</linearGradient>
</defs>
</svg>
