<svg width="49" height="48" viewBox="0 0 49 48" fill="none" xmlns="http://www.w3.org/2000/svg">
<path d="M36.4443 38.762C39.7257 38.7588 42.8717 37.4539 45.192 35.1337C47.5122 32.8134 48.8171 29.6674 48.8203 26.386C48.8203 22.986 47.3743 19.682 44.9043 17.356C44.8753 14.1889 43.5975 11.1613 41.3486 8.93112C39.0997 6.70095 36.0615 5.44851 32.8943 5.44601C30.9955 5.44504 29.1235 5.89469 27.4323 6.75801C25.2037 4.65621 22.2557 3.4863 19.1923 3.48801C16.0983 3.4901 13.1242 4.68522 10.889 6.82465C8.65386 8.96408 7.32977 11.883 7.19231 14.974C5.26011 16.0537 3.65095 17.6293 2.53085 19.5383C1.41074 21.4473 0.820258 23.6206 0.820313 25.834C0.822073 27.549 1.17812 29.245 1.86612 30.8159C2.55412 32.3868 3.55925 33.7986 4.81847 34.9628C6.0777 36.1271 7.56387 37.0186 9.1838 37.5815C10.8037 38.1444 12.5225 38.3665 14.2323 38.234C15.3694 40.1434 16.9818 41.7255 18.9125 42.8261C20.8431 43.9268 23.026 44.5083 25.2483 44.514C27.3686 44.5144 29.4558 43.9881 31.3224 42.9824C33.189 41.9767 34.7765 40.523 35.9423 38.752C36.1103 38.7587 36.279 38.762 36.4443 38.762ZM25.2483 41.246C23.4406 41.2412 21.6711 40.725 20.1444 39.757C18.6176 38.7891 17.3959 37.4089 16.6203 35.776L16.0863 34.652L14.8603 34.868C13.541 35.0999 12.1869 35.0404 10.893 34.6937C9.59912 34.3469 8.39674 33.7213 7.37018 32.8608C6.34363 32.0002 5.51776 30.9255 4.95048 29.712C4.38321 28.4985 4.08825 27.1756 4.08631 25.836C4.08707 24.068 4.59839 22.3377 5.55881 20.8533C6.51923 19.3689 7.88789 18.1933 9.50031 17.468L10.5123 17.012L10.4603 15.902C10.4071 14.7214 10.5935 13.5422 11.0083 12.4356C11.4231 11.3289 12.0577 10.3177 12.8738 9.46292C13.6899 8.60812 14.6707 7.92743 15.7569 7.46186C16.8432 6.9963 18.0125 6.75551 19.1943 6.75401C21.7883 6.75401 24.2183 7.88601 25.8883 9.87401L26.8283 10.994L28.0463 10.18C29.4815 9.22027 31.1698 8.70926 32.8963 8.71201C34.0877 8.71439 35.266 8.95975 36.3593 9.43309C37.4526 9.90643 38.4378 10.5978 39.2548 11.4649C40.0717 12.3321 40.7032 13.3567 41.1107 14.4762C41.5181 15.5958 41.6929 16.7866 41.6243 17.976L41.5743 18.808L42.2183 19.338C43.2559 20.1975 44.0925 21.274 44.6692 22.4917C45.2459 23.7094 45.5487 25.0387 45.5563 26.386C45.5549 27.6808 45.2778 28.9604 44.7435 30.1398C44.2092 31.3191 43.4298 32.3712 42.4573 33.226C41.4848 34.0808 40.3415 34.7188 39.1033 35.0974C37.8652 35.476 36.5606 35.5867 35.2763 35.422L34.1683 35.28L33.6343 36.26C32.8165 37.77 31.6054 39.0306 30.1294 39.9084C28.6535 40.7862 26.9676 41.2484 25.2503 41.246H25.2483ZM31.4523 28.18L31.4843 28.166C31.9083 27.984 32.0603 27.824 32.0603 27.38V26.824C32.0603 26.336 31.7803 26.022 31.3203 26.022H31.2943L31.2023 26.042C30.2393 26.3931 29.2233 26.5771 28.1983 26.586C27.2383 26.586 26.2903 26.406 25.3803 26.046L25.3543 26.036L25.2503 26.022C24.7903 26.022 24.5103 26.336 24.5103 26.824V27.38C24.5103 27.798 24.6663 27.986 25.0323 28.144L25.0723 28.162L25.1123 28.178C26.0873 28.5994 27.1381 28.8172 28.2003 28.818C29.2503 28.818 30.3423 28.604 31.4523 28.18ZM17.2903 23.61C17.2903 23.162 17.5223 22.914 17.8343 22.85L20.8363 22.062L17.8263 21.272C17.5143 21.19 17.2903 20.944 17.2903 20.512V19.566C17.2903 19.152 17.5383 18.974 17.8223 18.974C17.9156 18.974 18.0096 18.9927 18.1043 19.03L23.4643 20.764C23.8703 20.9 24.0943 21.226 24.0943 21.674V22.448C24.0943 22.896 23.8703 23.224 23.4623 23.36L18.0923 25.096C18.0116 25.1225 17.9272 25.136 17.8423 25.136C17.5063 25.136 17.2903 24.896 17.2903 24.542V23.61Z" fill="url(#paint0_linear_61_26709)"/>
<defs>
<linearGradient id="paint0_linear_61_26709" x1="0.820312" y1="24.001" x2="48.8203" y2="24.001" gradientUnits="userSpaceOnUse">
<stop stop-color="#27B7B6"/>
<stop offset="1" stop-color="#4797F8"/>
</linearGradient>
</defs>
</svg>
