<svg width="49" height="48" viewBox="0 0 49 48" fill="none" xmlns="http://www.w3.org/2000/svg">
<path d="M24.6704 0C18.3052 0 12.2007 2.52856 7.69985 7.02944C3.19897 11.5303 0.67041 17.6348 0.67041 24C0.67041 30.3652 3.19897 36.4697 7.69985 40.9706C12.2007 45.4714 18.3052 48 24.6704 48C31.0356 48 37.1401 45.4714 41.641 40.9706C46.1418 36.4697 48.6704 30.3652 48.6704 24C48.6704 17.6348 46.1418 11.5303 41.641 7.02944C37.1401 2.52856 31.0356 0 24.6704 0ZM22.9044 8.644H26.4364V26.158H22.9044V8.644ZM21.4244 12.75V16.328C19.4947 17.0845 17.8897 18.4911 16.8866 20.3049C15.8835 22.1187 15.5452 24.2259 15.9302 26.2625C16.3152 28.2991 17.3992 30.1374 18.9951 31.46C20.5911 32.7825 22.5987 33.5063 24.6714 33.5063C26.7441 33.5063 28.7518 32.7825 30.3477 31.46C31.9436 30.1374 33.0277 28.2991 33.4126 26.2625C33.7976 24.2259 33.4593 22.1187 32.4562 20.3049C31.4531 18.4911 29.8481 17.0845 27.9184 16.328V12.75C29.7018 13.2371 31.3523 14.1202 32.7471 15.3335C34.1419 16.5468 35.2451 18.0591 35.9745 19.7578C36.7039 21.4565 37.0407 23.2978 36.96 25.1447C36.8792 26.9916 36.3829 28.7965 35.5079 30.4251C34.633 32.0536 33.402 33.4638 31.9066 34.5507C30.4112 35.6376 28.6899 36.3732 26.8709 36.7028C25.0518 37.0323 23.1818 36.9473 21.4002 36.4541C19.6185 35.9609 17.971 35.0721 16.5804 33.854C14.9086 32.3919 13.6642 30.504 12.9796 28.3911C12.295 26.2782 12.1957 24.0193 12.6924 21.8545C13.1891 19.6897 14.2631 17.7 15.8003 16.0968C17.3375 14.4937 19.2824 13.3371 21.4244 12.75Z" fill="#E57CD8"/>
</svg>
