<svg width="49" height="48" viewBox="0 0 49 48" fill="none" xmlns="http://www.w3.org/2000/svg">
<path d="M36.8301 0H11.3301C5.11687 0 0.0800781 5.0368 0.0800781 11.25V36.75C0.0800781 42.9632 5.11687 48 11.3301 48H36.8301C43.0433 48 48.0801 42.9632 48.0801 36.75V11.25C48.0801 5.0368 43.0433 0 36.8301 0Z" fill="#007ACC"/>
<path d="M10.6946 24.1592L10.6794 26.1249H16.9269V43.8772H21.3461V26.1249H27.5936V24.1972C27.5936 23.1306 27.5709 22.2392 27.5404 22.2163C27.5175 22.1859 23.7156 22.1706 19.1061 22.1782L10.7175 22.2011L10.6946 24.1592ZM38.8114 22.1452C40.0303 22.4501 40.9599 22.9911 41.8133 23.8747C42.2552 24.3472 42.9103 25.2082 42.9638 25.4139C42.9789 25.4749 40.8913 26.8768 39.6266 27.6615C39.5809 27.6921 39.3979 27.4939 39.1922 27.1892C38.5751 26.2901 37.9275 25.9014 36.9369 25.833C35.4818 25.7338 34.5446 26.4958 34.5523 27.7682C34.5523 28.1415 34.6056 28.3624 34.758 28.6672C35.0779 29.3301 35.6723 29.7262 37.539 30.5338C40.9751 32.0121 42.4455 32.9872 43.3599 34.3738C44.3809 35.9205 44.6094 38.3891 43.9161 40.2253C43.1543 42.2214 41.2646 43.5776 38.6055 44.0272C37.7828 44.172 35.8322 44.1491 34.9485 43.9892C33.0208 43.6462 31.1923 42.6939 30.0647 41.4444C29.6228 40.9567 28.7618 39.6844 28.8152 39.5929C28.8379 39.5625 29.0361 39.4406 29.2569 39.3111C29.4703 39.1892 30.2781 38.7244 31.0399 38.2824L32.4189 37.4824L32.7084 37.9091C33.1123 38.5262 33.996 39.372 34.5294 39.6538C36.0608 40.4615 38.1638 40.3472 39.1999 39.4177C39.6418 39.0139 39.8246 38.5948 39.8246 37.9777C39.8246 37.4214 39.756 37.1777 39.4665 36.7586C39.0932 36.2254 38.3314 35.7757 36.1674 34.8386C33.6913 33.7719 32.6246 33.1091 31.6494 32.0576C31.0856 31.4482 30.5522 30.4729 30.3313 29.6576C30.1485 28.9796 30.1028 27.2805 30.2475 26.5948C30.7579 24.2025 32.5637 22.5339 35.1694 22.0386C36.0152 21.8786 37.9808 21.9396 38.8114 22.1452Z" fill="white"/>
</svg>
