<svg width="49" height="48" viewBox="0 0 49 48" fill="none" xmlns="http://www.w3.org/2000/svg">
<path d="M48.7524 23.9406C48.7524 37.1619 38.034 47.8806 24.8118 47.8806C11.5893 47.8806 0.871094 37.1619 0.871094 23.9406C0.871094 10.7184 11.5897 0 24.8118 0C38.0342 0 48.7524 10.7184 48.7524 23.9406Z" fill="#DD4814"/>
<path d="M8.53281 20.7437C6.76675 20.7437 5.33594 22.1745 5.33594 23.9406C5.33594 25.7057 6.76675 27.1367 8.53281 27.1367C10.2981 27.1367 11.7289 25.7057 11.7289 23.9406C11.7289 22.1745 10.2981 20.7437 8.53281 20.7437ZM31.3544 35.2708C29.8257 36.1539 29.3012 38.1077 30.1844 39.6356C31.0666 41.1645 33.0203 41.6886 34.5492 40.8056C36.0779 39.9234 36.6021 37.9697 35.7192 36.4406C34.837 34.9129 32.8821 34.3888 31.3544 35.2708ZM15.4757 23.9406C15.4757 20.7819 17.0448 17.9912 19.4453 16.3014L17.1085 12.3876C14.3121 14.2569 12.2312 17.1133 11.3665 20.4589C12.3756 21.282 13.0214 22.5354 13.0214 23.9404C13.0214 25.3446 12.3756 26.598 11.3665 27.4213C12.2301 30.7676 14.311 33.6244 17.1085 35.4937L19.4453 31.5787C17.0448 29.8899 15.4757 27.0994 15.4757 23.9406ZM24.8118 14.6036C29.6892 14.6036 33.6908 18.3431 34.1108 23.1124L38.6652 23.0452C38.4413 19.5244 36.9031 16.3635 34.5398 14.0392C33.3244 14.4984 31.9204 14.4281 30.7073 13.7287C29.4917 13.0273 28.7296 11.844 28.5213 10.5596C27.313 10.2253 26.0652 10.0557 24.8116 10.0552C22.677 10.0532 20.5709 10.5449 18.658 11.4921L20.8789 15.4721C22.1107 14.8988 23.4531 14.6024 24.8118 14.6036ZM24.8118 33.2767C23.4532 33.278 22.1108 32.9815 20.8791 32.4082L18.6582 36.3879C20.5708 37.3363 22.6771 37.8286 24.8119 37.8262C26.0656 37.826 27.3135 37.6559 28.5214 37.3206C28.7297 36.0362 29.4921 34.854 30.7073 34.1514C31.9216 33.4507 33.3246 33.3817 34.5398 33.8409C36.9032 31.5167 38.4413 28.3558 38.6656 24.8349L34.1099 24.7678C33.6908 29.5384 29.6894 33.2767 24.8118 33.2767ZM31.3533 12.6082C32.8821 13.491 34.8361 12.9682 35.7181 11.4394C36.6012 9.91049 36.0781 7.95656 34.5492 7.07343C33.0203 6.19143 31.0666 6.71531 30.1833 8.24418C29.3014 9.77231 29.8255 11.7261 31.3533 12.6082Z" fill="white"/>
</svg>
