<svg width="49" height="48" viewBox="0 0 49 48" fill="none" xmlns="http://www.w3.org/2000/svg">
<path d="M12.3403 20H40.8203V36H8.82031V12.94M44.8203 8H36.8203L40.8203 16H34.8203L30.8203 8H26.8203L30.8203 16H24.8203L20.8203 8H16.8203L20.8203 16H14.8203L10.8203 8H8.82031C7.75945 8 6.74203 8.42143 5.99189 9.17157C5.24174 9.92172 4.82031 10.9391 4.82031 12V36C4.82031 37.0609 5.24174 38.0783 5.99189 38.8284C6.74203 39.5786 7.75945 40 8.82031 40H40.8203C41.8812 40 42.8986 39.5786 43.6487 38.8284C44.3989 38.0783 44.8203 37.0609 44.8203 36V8Z" fill="white"/>
</svg>
