<svg width="50" height="48" viewBox="0 0 50 48" fill="none" xmlns="http://www.w3.org/2000/svg">
<mask id="mask0_61_26697" style="mask-type:luminance" maskUnits="userSpaceOnUse" x="0" y="0" width="49" height="48">
<path d="M34.9534 47.7364C35.3369 47.8859 35.747 47.9549 36.1583 47.9391C36.5695 47.9233 36.9732 47.823 37.344 47.6445L47.2654 42.8706C47.7764 42.6246 48.2076 42.2393 48.5093 41.7591C48.811 41.2789 48.971 40.7233 48.971 40.1561V7.78523C48.971 7.21814 48.811 6.66256 48.5092 6.18239C48.2075 5.70223 47.7764 5.31698 47.2654 5.07097L37.3442 0.296857C36.7836 0.0271773 36.153 -0.0615982 35.5397 0.0428128C34.9264 0.147224 34.3607 0.43966 33.9209 0.87966L14.9274 18.2078L6.65405 11.9278C6.28085 11.6445 5.82026 11.5008 5.35219 11.5216C4.88412 11.5424 4.4381 11.7264 4.09153 12.0417L1.43811 14.4555C0.563148 15.2513 0.562203 16.6278 1.43584 17.4249L8.61071 23.9707L1.43584 30.5163C0.562203 31.3135 0.563148 32.6899 1.43811 33.4858L4.09153 35.8994C4.43808 36.2148 4.88408 36.3988 5.35216 36.4197C5.82023 36.4405 6.28083 36.2968 6.65405 36.0136L14.9274 29.7333L33.9209 47.0615C34.2145 47.3557 34.5662 47.5855 34.9534 47.7364ZM36.9309 13.031L22.5192 23.9707L36.9309 34.9101V13.031Z" fill="white"/>
</mask>
<g mask="url(#mask0_61_26697)">
<path d="M47.2949 5.07836L37.3657 0.29764C36.8049 0.0276593 36.1741 -0.0613514 35.5606 0.0429256C34.947 0.147203 34.381 0.439611 33.9409 0.879688L1.4362 30.5163C0.561991 31.3136 0.563125 32.6899 1.43846 33.4859L4.09358 35.8995C4.44044 36.2149 4.88673 36.3989 5.35507 36.4198C5.82342 36.4406 6.28429 36.2969 6.6578 36.0136L45.8009 6.31862C47.1141 5.32252 49.0002 6.25909 49.0002 7.90734V7.79207C49.0002 7.22509 48.8401 6.66964 48.5384 6.18959C48.2368 5.70953 47.8057 5.32436 47.2949 5.07836Z" fill="#0065A9"/>
</g>
<mask id="mask1_61_26697" style="mask-type:luminance" maskUnits="userSpaceOnUse" x="0" y="0" width="49" height="48">
<path d="M34.9534 47.7364C35.3369 47.8859 35.747 47.9549 36.1583 47.9391C36.5695 47.9233 36.9732 47.823 37.344 47.6445L47.2654 42.8706C47.7764 42.6246 48.2076 42.2393 48.5093 41.7591C48.811 41.2789 48.971 40.7233 48.971 40.1561V7.78523C48.971 7.21814 48.811 6.66256 48.5092 6.18239C48.2075 5.70223 47.7764 5.31698 47.2654 5.07097L37.3442 0.296857C36.7836 0.0271773 36.153 -0.0615982 35.5397 0.0428128C34.9264 0.147224 34.3607 0.43966 33.9209 0.87966L14.9274 18.2078L6.65405 11.9278C6.28085 11.6445 5.82026 11.5008 5.35219 11.5216C4.88412 11.5424 4.4381 11.7264 4.09153 12.0417L1.43811 14.4555C0.563148 15.2513 0.562203 16.6278 1.43584 17.4249L8.61071 23.9707L1.43584 30.5163C0.562203 31.3135 0.563148 32.6899 1.43811 33.4858L4.09153 35.8994C4.43808 36.2148 4.88408 36.3988 5.35216 36.4197C5.82023 36.4405 6.28083 36.2968 6.65405 36.0136L14.9274 29.7333L33.9209 47.0615C34.2145 47.3557 34.5662 47.5855 34.9534 47.7364ZM36.9309 13.031L22.5192 23.9707L36.9309 34.9101V13.031Z" fill="white"/>
</mask>
<g mask="url(#mask1_61_26697)">
<path d="M47.2949 42.8629L37.3657 47.6436C36.8049 47.9134 36.1741 48.0024 35.5606 47.8981C34.947 47.7938 34.3811 47.5015 33.9409 47.0615L1.4362 17.4249C0.561991 16.6278 0.563125 15.2513 1.43846 14.4555L4.09358 12.0418C4.44046 11.7264 4.88676 11.5424 5.35511 11.5215C5.82345 11.5007 6.28431 11.6445 6.6578 11.9278L45.8009 41.6226C47.1141 42.6187 49.0002 41.6821 49.0002 40.0337V40.1492C49.0002 40.7161 48.8401 41.2716 48.5384 41.7516C48.2368 42.2317 47.8057 42.6169 47.2949 42.8629Z" fill="#007ACC"/>
</g>
<mask id="mask2_61_26697" style="mask-type:luminance" maskUnits="userSpaceOnUse" x="0" y="0" width="49" height="48">
<path d="M34.9534 47.7364C35.3369 47.8859 35.747 47.9549 36.1583 47.9391C36.5695 47.9233 36.9732 47.823 37.344 47.6445L47.2654 42.8706C47.7764 42.6246 48.2076 42.2393 48.5093 41.7591C48.811 41.2789 48.971 40.7233 48.971 40.1561V7.78523C48.971 7.21814 48.811 6.66256 48.5092 6.18239C48.2075 5.70223 47.7764 5.31698 47.2654 5.07097L37.3442 0.296857C36.7836 0.0271773 36.153 -0.0615982 35.5397 0.0428128C34.9264 0.147224 34.3607 0.43966 33.9209 0.87966L14.9274 18.2078L6.65405 11.9278C6.28085 11.6445 5.82026 11.5008 5.35219 11.5216C4.88412 11.5424 4.4381 11.7264 4.09153 12.0417L1.43811 14.4555C0.563148 15.2513 0.562203 16.6278 1.43584 17.4249L8.61071 23.9707L1.43584 30.5163C0.562203 31.3135 0.563148 32.6899 1.43811 33.4858L4.09153 35.8994C4.43808 36.2148 4.88408 36.3988 5.35216 36.4197C5.82023 36.4405 6.28083 36.2968 6.65405 36.0136L14.9274 29.7333L33.9209 47.0615C34.2145 47.3557 34.5662 47.5855 34.9534 47.7364ZM36.9309 13.031L22.5192 23.9707L36.9309 34.9101V13.031Z" fill="white"/>
</mask>
<g mask="url(#mask2_61_26697)">
<path d="M37.3344 47.6473C36.7735 47.9172 36.1426 48.0061 35.529 47.9017C34.9153 47.7973 34.3493 47.5049 33.9092 47.0647C35.0205 48.1759 36.9211 47.3888 36.9211 45.8169V2.13031C36.9211 0.558403 35.0205 -0.228683 33.9092 0.882687C34.3493 0.442527 34.9153 0.150011 35.5289 0.0456012C36.1426 -0.0588082 36.7735 0.0300499 37.3344 0.299884L47.2619 5.07399C47.773 5.31987 48.2043 5.70506 48.5062 6.18524C48.8081 6.66542 48.9683 7.22107 48.9683 7.78826V40.1593C48.9683 41.3168 48.305 42.3721 47.2619 42.8736L37.3344 47.6473Z" fill="#1F9CF0"/>
</g>
<mask id="mask3_61_26697" style="mask-type:luminance" maskUnits="userSpaceOnUse" x="0" y="0" width="49" height="48">
<path d="M34.9534 47.7364C35.3369 47.8859 35.747 47.9549 36.1583 47.9391C36.5695 47.9233 36.9732 47.823 37.344 47.6445L47.2654 42.8706C47.7764 42.6246 48.2076 42.2393 48.5093 41.7591C48.811 41.2789 48.971 40.7233 48.971 40.1561V7.78523C48.971 7.21814 48.811 6.66256 48.5092 6.18239C48.2075 5.70223 47.7764 5.31698 47.2654 5.07097L37.3442 0.296857C36.7836 0.0271773 36.153 -0.0615982 35.5397 0.0428128C34.9264 0.147224 34.3607 0.43966 33.9209 0.87966L14.9274 18.2078L6.65405 11.9278C6.28085 11.6445 5.82026 11.5008 5.35219 11.5216C4.88412 11.5424 4.4381 11.7264 4.09153 12.0417L1.43811 14.4555C0.563148 15.2513 0.562203 16.6278 1.43584 17.4249L8.61071 23.9707L1.43584 30.5163C0.562203 31.3135 0.563148 32.6899 1.43811 33.4858L4.09153 35.8994C4.43808 36.2148 4.88408 36.3988 5.35216 36.4197C5.82023 36.4405 6.28083 36.2968 6.65405 36.0136L14.9274 29.7333L33.9209 47.0615C34.2145 47.3557 34.5662 47.5855 34.9534 47.7364ZM36.9309 13.031L22.5192 23.9707L36.9309 34.9101V13.031Z" fill="white"/>
</mask>
<g mask="url(#mask3_61_26697)">
<path d="M34.9534 47.7364C35.3369 47.8859 35.747 47.9549 36.1583 47.9391C36.5695 47.9233 36.9732 47.823 37.344 47.6445L47.2653 42.8704C47.7762 42.6244 48.2074 42.2392 48.5092 41.759C48.8109 41.2788 48.971 40.7232 48.971 40.1561V7.78524C48.971 7.21815 48.811 6.66257 48.5092 6.1824C48.2075 5.70223 47.7764 5.31698 47.2654 5.07097L37.3438 0.296673C36.7832 0.0270372 36.1527 -0.0617148 35.5394 0.0426953C34.9261 0.147105 34.3605 0.439516 33.9207 0.879476L14.9274 18.2079L6.65405 11.9278C6.28085 11.6445 5.82026 11.5008 5.35219 11.5216C4.88412 11.5424 4.4381 11.7264 4.09153 12.0417L1.43811 14.4555C0.563148 15.2513 0.562203 16.6278 1.43584 17.4249L8.61071 23.9707L1.43584 30.5163C0.562203 31.3136 0.563148 32.6899 1.43811 33.4858L4.09153 35.8994C4.43808 36.2148 4.88408 36.3988 5.35216 36.4197C5.82023 36.4405 6.28083 36.2968 6.65405 36.0136L14.9274 29.7333L33.9207 47.0615C34.2146 47.3555 34.5662 47.5853 34.9534 47.7364ZM36.9309 13.0308L22.5192 23.9707L36.9309 34.9102V13.0308Z" fill="url(#paint0_linear_61_26697)" fill-opacity="0.25"/>
</g>
<defs>
<linearGradient id="paint0_linear_61_26697" x1="2410.27" y1="0.00012207" x2="2410.27" y2="4794.12" gradientUnits="userSpaceOnUse">
<stop stop-color="white"/>
<stop offset="1" stop-color="white" stop-opacity="0"/>
</linearGradient>
</defs>
</svg>
