<svg width="49" height="48" viewBox="0 0 49 48" fill="none" xmlns="http://www.w3.org/2000/svg">
<path d="M45.806 9.21901L26.093 44.469C26.0004 44.6348 25.8655 44.773 25.7019 44.8694C25.5383 44.9659 25.3521 45.0171 25.1622 45.0179C24.9723 45.0187 24.7856 44.9689 24.6213 44.8738C24.457 44.7787 24.3209 44.6416 24.227 44.4765L4.124 9.22201C4.02293 9.04512 3.97441 8.84307 3.98413 8.63958C3.99385 8.43608 4.06142 8.23958 4.17889 8.07313C4.29637 7.90668 4.45888 7.77719 4.64736 7.69985C4.83584 7.62252 5.04247 7.60055 5.243 7.63651L24.977 11.1645C25.1025 11.1876 25.2311 11.1876 25.3565 11.1645L44.678 7.64251C44.8778 7.60601 45.0838 7.62705 45.272 7.70318C45.4603 7.7793 45.623 7.90738 45.7412 8.07247C45.8595 8.23755 45.9283 8.43285 45.9398 8.63559C45.9513 8.83833 45.9049 9.04165 45.806 9.21901Z" fill="url(#paint0_linear_6_651)"/>
<path d="M34.3759 3.0105L19.7899 5.868C19.6735 5.89152 19.5681 5.95276 19.49 6.04225C19.4119 6.13173 19.3655 6.24447 19.3579 6.363L18.4609 21.519C18.456 21.6021 18.4705 21.6853 18.5033 21.7619C18.5361 21.8384 18.5863 21.9063 18.65 21.96C18.7136 22.0137 18.7889 22.0519 18.8699 22.0714C18.9509 22.0909 19.0353 22.0913 19.1164 22.0725L23.1769 21.135C23.2644 21.1148 23.3555 21.1169 23.442 21.1411C23.5284 21.1654 23.6074 21.2109 23.6716 21.2737C23.7359 21.3364 23.7833 21.4143 23.8095 21.5001C23.8358 21.586 23.8401 21.6771 23.8219 21.765L22.6159 27.6735C22.5973 27.7645 22.6027 27.8587 22.6315 27.947C22.6603 28.0352 22.7115 28.1145 22.7802 28.177C22.8489 28.2394 22.9326 28.283 23.0232 28.3033C23.1138 28.3237 23.2081 28.3201 23.2969 28.293L25.8049 27.531C25.8938 27.5038 25.9883 27.5002 26.0791 27.5206C26.1698 27.541 26.2537 27.5847 26.3224 27.6474C26.3912 27.7101 26.4424 27.7895 26.471 27.878C26.4997 27.9665 26.5048 28.0609 26.4859 28.152L24.5674 37.4325C24.4474 38.013 25.2199 38.3295 25.5424 37.833L25.7569 37.5L37.6444 13.7775C37.689 13.6881 37.7078 13.588 37.6985 13.4886C37.6892 13.3891 37.6523 13.2942 37.5919 13.2146C37.5315 13.135 37.45 13.0739 37.3567 13.0382C37.2634 13.0025 37.162 12.9936 37.0639 13.0125L32.8834 13.818C32.7934 13.8352 32.7005 13.8291 32.6136 13.8001C32.5267 13.7712 32.4486 13.7204 32.3869 13.6527C32.3252 13.585 32.2819 13.5026 32.2612 13.4133C32.2404 13.3241 32.2429 13.231 32.2684 13.143L34.9954 3.684C35.0211 3.59572 35.0236 3.50231 35.0028 3.41276C34.9819 3.32321 34.9383 3.24055 34.8762 3.17273C34.8141 3.10491 34.7356 3.05422 34.6482 3.02555C34.5609 2.99687 34.4676 2.99117 34.3774 3.009" fill="url(#paint1_linear_6_651)"/>
<defs>
<linearGradient id="paint0_linear_6_651" x1="3.63278" y1="6.3763" x2="28.1655" y2="39.6937" gradientUnits="userSpaceOnUse">
<stop stop-color="#41D1FF"/>
<stop offset="1" stop-color="#BD34FE"/>
</linearGradient>
<linearGradient id="paint1_linear_6_651" x1="23.8429" y1="3.78568" x2="28.2807" y2="34.2289" gradientUnits="userSpaceOnUse">
<stop stop-color="#FFEA83"/>
<stop offset="0.083" stop-color="#FFDD35"/>
<stop offset="1" stop-color="#FFA800"/>
</linearGradient>
</defs>
</svg>
