<svg width="49" height="48" viewBox="0 0 49 48" fill="none" xmlns="http://www.w3.org/2000/svg">
<path d="M44.9638 36.7875L25.8201 47.625V39.1838L37.7301 32.625L44.9638 36.7875ZM46.2763 35.6025V12.9562L39.2713 17.0062V31.56L46.2726 35.5988L46.2763 35.6025ZM4.99634 36.7875L24.1213 47.6175V39.1838L12.2076 32.625L4.99634 36.7875ZM3.68384 35.6025V12.9562L10.6888 17.0062V31.56L3.68384 35.6025ZM4.50509 11.49L24.1401 0.375V8.535L11.5588 15.4537L11.4576 15.51L4.50509 11.49ZM45.4476 11.49L25.8201 0.375V8.535L38.4013 15.45L38.5026 15.5062L45.4551 11.49H45.4476Z" fill="#8ED6FB"/>
<path d="M24.1399 37.2638L12.3687 30.7875V17.97L24.1399 24.75V37.2638ZM25.8199 37.2638L37.5912 30.795V17.97L25.8199 24.75V37.2638ZM13.1674 16.5L24.9799 9.9975L36.7924 16.5L24.9799 23.31L13.1674 16.5Z" fill="#1C78C0"/>
</svg>
