<svg width="50" height="48" viewBox="0 0 50 48" fill="none" xmlns="http://www.w3.org/2000/svg">
<path d="M44.5925 33.4125H5.36748C2.92998 33.4125 0.97998 31.4625 0.97998 29.025V14.025C0.97998 11.625 2.92998 9.67499 5.36748 9.67499H44.63C47.03 9.67499 49.0175 11.625 49.0175 14.0625V29.0625C48.98 31.4625 47.03 33.4125 44.5925 33.4125Z" fill="#7F54B3"/>
<path d="M6.15508 28.7625C6.15508 28.7625 7.20508 33.1875 9.34258 30.225C11.4801 27.2625 13.5426 22.6125 13.5426 22.6125C13.5426 22.6125 13.6926 21.45 14.2926 24C14.8926 26.55 17.4801 30 17.4801 30C17.4801 30 19.8426 32.9625 20.8176 29.85C20.4426 25.725 21.8676 18.225 23.3301 14.625C23.9301 11.4375 20.5926 12.3375 20.2926 13.0875C19.9926 13.8375 17.9301 18.6375 17.7801 23.6625C17.7801 23.6625 16.0176 18.8625 15.8676 17.1375C15.7176 15.375 13.8801 14.925 12.8301 16.6125C11.7801 18.3 8.59258 24.825 8.59258 24.825L6.53008 14.175C6.53008 14.175 4.46758 11.4375 3.26758 14.775C3.26758 14.775 5.40508 27.8625 6.15508 28.7625ZM33.6051 17.1375C30.4176 11.8125 25.6926 15.8625 25.6926 15.8625C25.6926 15.8625 22.0926 20.025 23.7051 25.6875C26.2926 31.275 29.9301 28.8 30.9051 28.35C31.9176 27.8625 36.1926 22.9875 33.6051 17.1375ZM31.1676 21.825C31.1676 24.0375 29.3301 26.1 27.8301 25.65C27.0051 25.1625 26.4801 23.85 26.4801 21.6C27.2301 17.9625 28.8801 17.475 29.7426 17.55C31.3551 18.4125 31.2801 20.325 31.1676 21.825ZM45.5676 17.1375C42.3801 11.8125 37.6551 15.8625 37.6551 15.8625C37.6551 15.8625 34.0551 20.025 35.6676 25.6875C38.2551 31.275 41.8926 28.8 42.8676 28.35C43.8426 27.8625 48.1551 22.9875 45.5676 17.1375ZM43.1301 21.825C43.1301 24.0375 41.2926 26.1 39.7926 25.65C38.9676 25.1625 38.4426 23.85 38.4426 21.6C39.1926 17.9625 40.8426 17.475 41.7051 17.55C43.2801 18.4125 43.2051 20.325 43.1301 21.825Z" fill="white"/>
<path d="M23.9675 33.4125L32.33 38.325L30.5675 33.4125L25.7675 32.0625L23.9675 33.4125Z" fill="#7F54B3"/>
</svg>
