<svg width="49" height="48" viewBox="0 0 49 48" fill="none" xmlns="http://www.w3.org/2000/svg">
<path d="M37.73 0H12.23C6.01678 0 0.97998 5.0368 0.97998 11.25V36.75C0.97998 42.9632 6.01678 48 12.23 48H37.73C43.9432 48 48.98 42.9632 48.98 36.75V11.25C48.98 5.0368 43.9432 0 37.73 0Z" fill="#0073AA"/>
<path d="M8.89502 23.9989C8.89502 30.3654 12.595 35.8674 17.9601 38.4748L10.2876 17.4531C9.36807 19.5127 8.89354 21.7433 8.89502 23.9989ZM35.8376 23.1872C35.8376 21.1995 35.1236 19.8229 34.5113 18.7513C33.6958 17.4264 32.9316 16.3044 32.9316 14.9796C32.9316 13.5009 34.053 12.1247 35.6325 12.1247C35.704 12.1247 35.7715 12.1335 35.841 12.1374C32.9794 9.51582 29.167 7.91513 24.9793 7.91513C19.3603 7.91513 14.4165 10.7981 11.5406 15.165C11.9179 15.1763 12.2736 15.1843 12.5756 15.1843C14.2581 15.1843 16.8623 14.9799 16.8623 14.9799C17.7293 14.9289 17.8316 16.2024 16.9654 16.305C16.9654 16.305 16.0941 16.4076 15.1245 16.4584L20.9816 33.8805L24.5016 23.3237L21.9956 16.4578C21.1296 16.407 20.3091 16.3044 20.3091 16.3044C19.4423 16.2536 19.5439 14.9284 20.4107 14.9796C20.4107 14.9796 23.0668 15.1836 24.6473 15.1836C26.3295 15.1836 28.9339 14.9796 28.9339 14.9796C29.8016 14.9284 29.9035 16.2019 29.037 16.3044C29.037 16.3044 28.1638 16.407 27.1961 16.4578L33.0088 33.7479L34.6131 28.3869C35.3085 26.1621 35.8376 24.5642 35.8376 23.1872Z" fill="white"/>
<path d="M25.2619 25.4059L20.436 39.429C21.9115 39.8635 23.4416 40.0842 24.9797 40.0843C26.7989 40.0849 28.6049 39.7766 30.3208 39.1725C30.2762 39.1022 30.238 39.028 30.2065 38.9509L25.2619 25.4059ZM39.093 16.2821C39.1661 16.8303 39.2023 17.3828 39.2014 17.9359C39.2014 19.5681 38.8965 21.4029 37.9783 23.6972L33.0653 37.902C37.8471 35.1135 41.0635 29.9331 41.0635 23.9993C41.0637 21.2027 40.3495 18.573 39.093 16.2821Z" fill="white"/>
<path d="M24.9796 5.25C14.6412 5.25 6.22998 13.6607 6.22998 23.9989C6.22998 34.3384 14.6412 42.7487 24.9796 42.7487C35.3174 42.7487 43.73 34.3384 43.73 23.9989C43.7296 13.6607 35.3174 5.25 24.9796 5.25ZM24.9796 41.8894C15.1152 41.8894 7.08967 33.8636 7.08967 23.9989C7.08967 14.1347 15.115 6.10969 24.9796 6.10969C34.8434 6.10969 42.8684 14.1347 42.8684 23.9989C42.8684 33.8636 34.8434 41.8894 24.9796 41.8894Z" fill="white"/>
</svg>
