<svg width="49" height="48" viewBox="0 0 49 48" fill="none" xmlns="http://www.w3.org/2000/svg">
<path d="M24.8203 0C11.5693 0 0.820312 10.749 0.820312 24C0.820312 37.251 11.5693 48 24.8203 48C38.0713 48 48.8203 37.251 48.8203 24C48.8203 10.749 38.0713 0 24.8203 0Z" fill="#368FB9"/>
<path d="M38.9424 32.6362C37.4599 32.9884 36.7093 33.3127 34.8746 34.5081C32.0113 36.3613 28.8791 37.2231 28.8791 37.2231C28.8791 37.2231 28.6198 37.6123 27.8691 37.7884C26.5719 38.1034 21.6885 38.3722 21.2438 38.3814C20.0483 38.3908 19.3163 38.0758 19.1124 37.5846C18.4916 36.102 20.0019 35.4532 20.0019 35.4532C20.0019 35.4532 19.6684 35.2494 19.4738 35.064C19.2977 34.8879 19.1124 34.536 19.0568 34.6656C18.8252 35.2309 18.7046 36.6116 18.0838 37.2324C17.2313 38.0942 15.6189 37.8069 14.6646 37.3065C13.6174 36.7506 14.7386 35.4441 14.7386 35.4441C14.7386 35.4441 14.1733 35.7776 13.7194 35.0919C13.3116 34.4619 12.9319 33.3868 13.0337 32.0619C13.1449 30.5514 14.8313 29.0872 14.8313 29.0872C14.8313 29.0872 14.5348 26.8541 15.5078 24.5653C16.3881 22.4803 18.7603 20.8031 18.7603 20.8031C18.7603 20.8031 16.7679 18.5977 17.5093 16.6147C17.9912 15.3172 18.1858 15.3266 18.3433 15.2711C18.8993 15.0579 19.4366 14.8262 19.8353 14.3908C21.8274 12.2409 24.3664 12.6486 24.3664 12.6486C24.3664 12.6486 25.5711 8.98855 26.6831 9.70199C27.0259 9.92437 28.2583 12.6671 28.2583 12.6671C28.2583 12.6671 29.5742 11.898 29.7225 12.1852C30.5194 13.7329 30.612 16.6888 30.2599 18.4866C29.6668 21.4517 28.1843 23.0456 27.5912 24.0463C27.4523 24.2781 29.1849 25.0101 30.2784 28.0401C31.2885 30.8107 30.3896 33.1367 30.5471 33.3962C30.5749 33.4425 30.5843 33.4611 30.5843 33.4611C30.5843 33.4611 31.7424 33.5537 34.0684 32.1174C35.31 31.3483 36.7834 30.4866 38.4606 30.468C40.0824 30.4401 40.1657 32.3398 38.9424 32.6362ZM41.148 31.2741C40.9811 29.9584 39.8693 29.0503 38.4422 29.0687C36.3109 29.0964 34.5225 30.1993 33.3364 30.9313C32.8731 31.2186 32.4746 31.4317 32.1317 31.5892C32.2058 30.5143 32.1411 29.1058 31.5849 27.5584C30.9084 25.7049 30.0006 24.5653 29.3518 23.9074C30.1024 22.8139 31.131 21.2201 31.6127 18.7552C32.0297 16.6517 31.9001 13.3807 30.9456 11.5459C30.7509 11.1754 30.4268 10.9065 30.0189 10.7953C29.8521 10.749 29.5371 10.6564 28.9163 10.8324C27.9804 8.89574 27.6561 8.69193 27.4058 8.52505C26.8869 8.19149 26.2753 8.11743 25.7008 8.33043C24.9317 8.60849 24.2739 9.34987 23.6529 10.6656C23.5636 10.8513 23.4802 11.0398 23.4028 11.2309C22.2259 11.3143 20.3726 11.7405 18.8066 13.4362C18.612 13.6494 18.2321 13.8069 17.8335 13.9552H17.8429C17.0274 14.2425 16.6568 14.9096 16.2028 16.1143C15.5726 17.8007 16.2212 19.4593 16.8606 20.5344C15.9896 21.3127 14.8313 22.5544 14.2198 24.0092C13.4599 25.8069 13.3764 27.5676 13.4042 28.5219C12.7556 29.2078 11.7549 30.4957 11.6436 31.9414C11.4954 33.9613 12.2274 35.3329 12.5518 35.8331C12.6444 35.9814 12.7464 36.102 12.8574 36.2224C12.8205 36.4725 12.8113 36.7414 12.8668 37.0192C12.9874 37.668 13.395 38.1962 14.0158 38.5297C15.2391 39.1785 16.944 39.4564 18.2599 38.7984C18.7324 39.2989 19.5943 39.7807 21.1603 39.7807H21.2529C21.6514 39.7807 26.7109 39.5121 28.1843 39.1507C28.8422 38.9931 29.2961 38.715 29.5928 38.4649C30.5378 38.1682 33.1509 37.2787 35.6158 35.685C37.3579 34.5544 37.9603 34.3134 39.2576 33.9984C40.5176 33.6928 41.3055 32.5436 41.148 31.2741Z" fill="white"/>
</svg>
